<?xml version="1.0" encoding="utf-8"?>
<!-- Generator: Adobe Illustrator 21.0.2, SVG Export Plug-In . SVG Version: 6.00 Build 0)  -->
<svg version="1.1" id="Layer_1" xmlns="http://www.w3.org/2000/svg" xmlns:xlink="http://www.w3.org/1999/xlink" x="0px" y="0px"
	 viewBox="0 0 1600 1600" style="enable-background:new 0 0 1600 1600;" xml:space="preserve">
<style type="text/css">
	.st0{fill:#EAEDF2;}
	.st1{display:none;}
	.st2{display:none;fill:#FFFFFF;}
	.st3{display:none;fill:#EAEDF2;}
	.st4{display:inline;fill:#EAEDF2;}
	.st5{fill:#EAEDF2;stroke:#000000;stroke-width:29.4634;stroke-miterlimit:10;}
	.st6{fill:#EAEDF2;stroke:#000000;stroke-width:28.9202;stroke-miterlimit:10;}
	.st7{font-family:'BigNoodleTitling';}
	.st8{font-size:253.4541px;}
	.st9{opacity:0.14;enable-background:new    ;}
	.st10{font-family:'Helvetica-Bold';}
	.st11{font-size:24px;}
	.st12{font-size:36px;}
</style>
<g id="Layer_2">
	<rect x="1.7" y="2.5" width="1596.9" height="1596.9"/>
</g>
<g>
	<path class="st0" d="M367.2,168.4c-36.1,35-62.2,77.1-91.1,115.3c-23.7,31.3-55.5,52.3-84.7,78.1c13.3-32.7,18.1-67.9,36.9-97.7
		C261.5,211.7,314.9,188.9,367.2,168.4z"/>
	<path class="st0" d="M1226.7,168.4c52.3,20.5,105.7,43.2,138.9,95.7c18.8,29.8,23.7,65,36.9,97.7c-29.3-25.8-61.1-46.8-84.7-78.1
		C1288.9,245.5,1262.8,203.4,1226.7,168.4z"/>
	<path class="st0" d="M213.6,245.1c-20.1,18.4-31.3,41.4-38.4,66c-8.4,29.4-11.9,60.8-20.3,89c-6.2,20.7-15.4,40.3-20.3,62.3
		l-0.4,1.7l5.9,4.7l1.4-3.7c9.1-24,24.8-47.2,45.2-66.4c19.3-18.2,43.7-33,65.9-50.1c17.7-13.6,33.8-29,44.7-48.7
		c-9.4,65.3-66.5,116.8-120.3,157.4c-23,17.4-42.6,40-56.5,64.1c1.3-15.4,1.9-30,0.5-46.1c-6-65.5-9.6-138.1,34.3-186.8
		C172.7,269.4,191.9,254.1,213.6,245.1L213.6,245.1z"/>
	<path class="st0" d="M1380.3,245.1c21.7,9,40.9,24.3,58.4,43.6c44,48.7,40.3,121.3,34.3,186.8c-1.5,16.1-0.8,30.6,0.5,46.1
		c-13.9-24.1-33.5-46.7-56.5-64.1c-53.8-40.6-110.9-92-120.3-157.4c10.9,19.7,27,35,44.7,48.7c22.2,17.1,46.6,31.9,65.9,50.1
		c20.4,19.2,36.1,42.4,45.2,66.4l1.4,3.7l5.9-4.7l-0.4-1.7c-5-22-14.2-41.7-20.3-62.3c-8.4-28.3-11.9-59.7-20.3-89
		C1411.6,286.6,1400.4,263.6,1380.3,245.1L1380.3,245.1z"/>
	<path class="st0" d="M94.8,360.7c-10.4,27.2-10.7,56.5-7.8,86.1c3.7,38.1,12,76.9,9.3,113.2l-5.8,77.3l1,0.7c0.1,0,0.2,0.6,0.5,1
		c0.4,0.6,1,1.3,2.1,1.7c1.1,0.6,2.3,0,3.2,0l1.2-0.6l0.4-1.3c2.6-8.8,3.4-17.9,4.8-26.4c10.1-59.6,62.9-101.7,108.4-144.9
		c5.8-5.5,10.7-11.6,14.9-18.1c-4.5,23.7-11.1,47.3-21.7,68.7c-32.1,65.6-93.3,120.4-111,194.4c-4.8-32.8-15.9-62.4-26.8-92.1
		C55,586.2,43.3,551.7,43.3,511.2c0-57.9,20.5-106,51.5-150.3V360.7z"/>
	<path class="st0" d="M1499.1,360.7c31.1,44.3,51.5,92.4,51.5,150.3c0,40.5-11.6,74.9-24.2,109.1c-10.9,29.7-22,59.3-26.8,92.1
		c-17.8-73.9-78.9-128.7-111.3-194.3c-10.6-21.4-17.1-45-21.7-68.7c4.2,6.4,9.1,12.6,14.9,18.1c45.6,43.2,98.4,85.3,108.4,144.9
		c1.4,8.6,2.2,17.6,4.8,26.4l0.4,1.3l1.2,0.6c0.9,0.6,2.1,0.6,3.2,0s1.8-1.1,2.1-1.7c0.3-0.6,0.4-0.7,0.5-0.9l1-0.7l-5.8-77.3
		c-2.7-36.3,5.6-75.1,9.3-113.2c2.9-29.6,2.6-58.9-7.8-86.1L1499.1,360.7z"/>
	<path class="st0" d="M20.4,567.9c-1.6,34.5,7,65.7,19.3,95.4c15,36.5,34.5,71.3,44.4,108.8c7.4,28.3,10,58.9,21.8,86.2l0.4,0.9
		l0.9,0.6c1.5,0.8,3.5,0.6,4.5-0.6c1-0.7,1.4-1.4,1.8-1.8l0.9-1.3l-0.5-1.5c-28.3-79.5,13.2-153.2,54.3-216.8
		c7.9-12.3,12.6-26,16.6-40c0.8,31.8-5.1,66.7-10.8,98.7c-8.7,48.3-25.2,93.8-38.5,140.8l0,0l0,0c-8.2,27.5-6.4,57.8-2.7,86.5
		C101.3,867.7,43,824,25.4,764.5C10.9,715.4,1,658.8,10.9,605.8l0,0c3-12.9,5.9-25.7,9.5-38.2V567.9z"/>
	<path class="st0" d="M1573.5,567.9c3.6,12.5,6.6,25.3,9.5,38.2h-0.1c10,53,0,109.6-14.5,158.7c-17.6,59.5-75.8,103.2-107.3,159.3
		c3.7-28.7,5.5-58.9-2.7-86.5l0,0c-13.2-47-29.8-92.5-38.5-140.8c-5.7-32-11.7-66.8-10.8-98.7c4,13.9,8.7,27.7,16.6,39.9
		c41.1,63.6,82.6,137.3,54.3,216.8l-0.5,1.5l0.9,1.3c0.4,0.6,0.9,1.2,1.8,1.8c1,0.7,3,1.1,4.5,0.6l0.9-0.6l0.4-0.9
		c11.8-27.3,14.4-57.9,21.8-86.2c9.8-37.5,29.3-72.2,44.4-108.8c12.2-29.7,20.9-60.9,19.3-95.4L1573.5,567.9z"/>
	<path class="st0" d="M180.7,779.7c32.3,84.2,22.6,186.4,44.9,276.5c4.5,18.3,14,34.3,21.6,50.5c-39.1-28.3-86.8-54.1-127.6-86.2
		C77.4,987.3,41,948.4,22.1,898c-11-29.2-15.2-63.2-14.7-96.8c9.3,36,31.3,65.8,57.3,93.5c31.7,33.8,68.1,65.3,91.4,103
		c10.1,16.3,20.6,33.5,35.7,47l6.7,6.1l-2-8.8c-2.5-11-10.9-19.9-15.1-29c-14.9-32.4-21.7-69.9-18-108.4
		C167.3,863.2,182.3,823.5,180.7,779.7L180.7,779.7z"/>
	<path class="st0" d="M1413.2,779.7c-1.6,43.8,13.4,83.5,17.4,124.9c3.7,38.6-3,76.1-18,108.4c-4.2,9.1-12.6,18-15.1,29l-2,8.8
		l6.7-6.1c15.1-13.6,25.6-30.7,35.7-47c23.3-37.7,59.7-69.2,91.4-103c26-27.7,48.1-57.6,57.3-93.5c0.5,33.6-3.8,67.6-14.8,96.8
		c-18.9,50.4-55.3,89.2-97.6,122.6c-40.8,32.1-88.5,57.9-127.6,86.2c7.6-16.2,17.1-32.3,21.6-50.5
		C1390.6,966.1,1381,863.9,1413.2,779.7L1413.2,779.7z"/>
	<path class="st0" d="M238.9,940.3c26,32.2,50.1,65.2,65.3,101.5c27.4,65.3,38.2,140.4,96.5,193.3c-68.3-19.8-143.9-18.3-203.1-57
		c-60.5-39.6-116.3-100.4-134.9-169.1c24.5,42.2,60.8,68.2,100.5,88.9c45.1,23.5,93.7,41.7,132.2,73.7
		c14.9,12.4,29.8,23.9,46.4,31.6l1.8,0.9l4.4-4.4l-2.2-2c-17.9-16.2-37.2-35.5-50.9-55.4c-21.8-31.7-29.2-69.6-35.4-108.3
		C254.4,1002.3,249.8,970.2,238.9,940.3L238.9,940.3z"/>
	<path class="st0" d="M1355,940.3c-10.9,29.8-15.5,62-20.5,93.7c-6.1,38.7-13.5,76.6-35.4,108.3c-13.7,19.9-33,39.2-51,55.4l-2.2,2
		l4.4,4.4l1.8-0.9c16.7-7.8,31.5-19.3,46.4-31.6c38.5-32,87.1-50.2,132.2-73.7c39.7-20.7,76-46.6,100.5-88.9
		c-18.6,68.7-74.4,129.5-134.9,169.1c-59.2,38.7-134.8,37.2-203.1,57c58.2-52.9,69.1-128,96.5-193.3
		C1304.9,1005.6,1329.1,972.6,1355,940.3L1355,940.3z"/>
	<path class="st0" d="M350.3,1100.2c48.7,34.9,90.9,79.8,138,122.9c32.3,29.6,71.8,43.5,112.8,52.8c-7.8,0.9-16,1.6-23.9,3.5
		c-82,20.3-172.1,52-258,23.7c-48.8-16.1-98.4-52.5-128.9-98.2c35.4,30.7,78.3,43.5,123.6,49.1c52.6,6.5,108,5,157.5,15.5
		c13.7,2.9,27.2,7.7,42.9,5.3l7.5-1.1l-6.4-4.1c-12.8-8.1-28.7-8.9-41.9-13.8c-38-14.3-59.8-41.6-77.7-72.9
		C380.4,1155.9,367.3,1126.6,350.3,1100.2L350.3,1100.2z"/>
	<path class="st0" d="M1243.6,1100.2c-17,26.4-30.1,55.7-45.5,82.8c-17.9,31.3-39.7,58.6-77.7,72.9c-13.1,5-29.1,5.7-41.8,13.8
		l-6.4,4.1l7.5,1.1c15.7,2.4,29.2-2.4,42.9-5.3c49.5-10.5,104.9-9,157.5-15.5c45.3-5.6,88.1-18.4,123.6-49
		c-30.5,45.7-80.1,82-128.9,98.1c-85.9,28.3-176-3.3-258-23.7c-7.9-1.9-16.1-2.6-23.9-3.5c41-9.3,80.5-23.3,112.8-52.8
		C1152.7,1180.1,1194.9,1135.1,1243.6,1100.2L1243.6,1100.2z"/>
	<path class="st0" d="M714.7,1277c27.6,0,54.9,4.6,81.5,12.7h0.8h0.8c26.6-8,53.9-12.7,81.5-12.7c75.7,0,143.8,36.8,211.3,64.7
		c55.7,23.1,127.1,21.1,180.9-7.1c-24.3,24.5-53.8,41.3-84.5,53l0,0l0,0c-67.3,26.9-146.4,6.2-204.1-30.6
		c-41.6-26.6-78.1-65.3-129.5-65.3c-9,0-18.1,1.1-27.2,3l-9.3,1.9l8.8,3.5c68.6,27.5,131.2,75.8,180.5,122.5
		c-8.1,8.9-18,17.3-27.8,25.3C923.3,1391,861,1329.8,798.1,1304l-1.1-0.6l-1.1,0.6c-62.9,25.7-125.2,87-180.3,143.8
		c-9.8-7.9-19.7-16.4-27.8-25.3c49.3-46.8,111.9-95,180.5-122.5l8.8-3.5l-9.3-1.9c-9.1-1.9-18.1-3-27.2-3
		c-51.4,0-87.9,38.8-129.5,65.3c-57.7,36.9-136.8,57.5-204.1,30.6l0,0l0,0c-30.8-11.7-60.2-28.5-84.5-53
		c53.8,28.2,125.2,30.2,180.9,7.1C570.9,1313.7,639,1277,714.7,1277L714.7,1277z"/>
</g>
<path class="st1" d="M0,800V0h800h800v800v800H800H0V800z M597.4,1471.6c9.8-1.7,9.8-1.7,21.1-5.3c9.1-2.8,22.2-9.2,31-15
	c32-21.1,41-26.4,60-34.8c10.8-4.7,22.5-8.2,34.2-10l4.2-0.7l2.7,5.4c10.4,20.5,27,32.8,48.8,36c16.4,2.3,33.3-2.1,46.7-12.2
	c7.9-5.9,12.5-11.3,17.5-20.6c2.1-3.8,3.9-7.1,4.1-7.3c0.6-0.9,18.9,4.2,27,7.5c13,5.2,32.3,15.7,49.3,26.9
	c21,13.7,26.2,16.7,35.5,20.8c19.5,8.6,42.6,12.3,69.5,11.4c32.3-1.2,70.9-9.1,100.5-20.4c9.2-3.5,28.8-13.4,28-14.1
	c-0.2-0.2-3.2,0.6-6.8,1.7c-22.5,7.5-52.7,9.6-74.7,5.3c-21.4-4.3-39.9-10.4-51.9-17.2c-9.4-5.3-17.9-8.3-31.8-10.9
	c-11.8-2.2-16.6-2.8-50.8-6.6c-12.6-1.4-28.8-3.4-36-4.5c-7.1-1-22.2-2.6-33.5-3.5c-11.3-1-21-1.9-21.7-2c-0.8-0.3-0.9-1.5-0.2-4.2
	c0.5-2.1,0.9-7,0.9-11v-7.2l6.8-2.1c26.7-8.1,65-29.2,88.2-48.6c14.6-12.1,19.7-19.2,25.5-35.4c2.1-5.8,7.5-18.2,12-27.6
	c11.8-24.6,20.2-36.7,35.9-51.6c7.8-7.4,7.9-7.7,4.1-6.2c-11.5,4.5-21.3,10.5-54.1,33.2c-21.8,15-33.7,25.1-45.2,38.2
	c-8.7,10-13.3,16.8-23.2,34.5c-10,18.1-12.5,21.9-19.8,30.7c-7.4,9-17.3,18.4-24.8,23.3c-2.9,1.9-5.4,3.5-5.7,3.5
	c-0.2,0-1.5-2.8-2.8-6.2c-6.1-16.8-17.1-29.3-32.4-37.1c-10.8-5.4-29.3-7.2-42.1-4.2c-22.1,5.2-40,22.2-46,43.8
	c-1.3,4.5-2.4,6.7-3.4,6.7c-2.3,0-12.6-6.5-20.2-12.7c-6.9-5.6-18.2-18.2-24.1-26.8c-1.8-2.7-7.1-11.7-11.7-20
	c-11.6-20.9-16.9-28.2-29.2-41.1c-14.6-15.1-21.5-20.4-63.8-49.1c-9.6-6.5-30.9-18.3-33.2-18.3c-0.3,0,4.4,5.1,10.6,11.3
	c7.2,7.2,13.5,14.8,17.8,21.2c7.9,12,21.3,39.3,26.8,54.4c4.7,13.3,7.3,17.5,16.4,27c22.4,23.3,75,52.6,108.9,60.7
	c2.6,0.6,2.7,0.9,2.7,6.8c0,3.3,0.4,7.7,1,9.5c0.5,1.9,0.9,3.6,0.7,3.7c-0.1,0.1-11.4,1.1-25.2,2.3c-13.7,1.2-29.3,2.8-34.5,3.6
	c-10.8,1.6-25.9,3.5-57.5,7c-24.9,2.8-44.4,6.3-52.5,9.5c-3,1.2-9.5,4.3-14.5,7c-10.3,5.4-29.5,11.8-47.6,15.6
	c-23.1,4.9-52.2,3.3-75.2-4.3c-4.3-1.4-8-2.3-8.3-2c-0.9,0.8,12.9,8,25.1,13c20.1,8.3,48.6,15.3,80.2,19.7
	C553.2,1474.3,583,1474.1,597.4,1471.6z M482.5,1412c9.6-2,20.5-5.8,32-11c16.4-7.5,29.6-12.4,46.5-17.4c13.7-4,21.5-4.7,42.9-4.1
	c18.5,0.6,19.4,0.5,16.1-1c-1.9-0.9-5.5-2-8-2.5c-11.1-2.3-45.6-6-64.6-7c-11.5-0.6-28.3-1.8-37.4-2.7c-9.6-1-25.9-1.7-39-1.7
	l-22.5-0.1l-12.6,4.2c-26.5,9-64,9.7-88.9,1.8c-9.3-2.9-20.6-7.6-27.6-11.4c-6.7-3.6-6-1.9,1.9,4.3c18.8,14.9,40.2,26,74.2,38.7
	c15.9,6,34.8,10.4,52,12.3C454.8,1415.1,473.3,1413.9,482.5,1412z M1177.1,1412c15.2-2.6,30.3-7.3,52.4-16.3
	c9.1-3.7,23.6-10.3,29.1-13.4c8.8-4.8,26.8-17.1,32.4-22.1l5.5-5l-11.9,5.9c-27.7,13.6-50.4,17.2-85.6,13.4
	c-10.6-1.1-16.3-2.3-26.5-5.7l-13-4.3l-22,0.1c-12.5,0-29.3,0.8-39,1.7c-9.3,0.9-26,2.1-37,2.7c-19,0.9-53.7,4.7-65.5,7.1
	c-3,0.6-6.6,1.8-8,2.6c-2.2,1.2-0.3,1.3,17,0.8c14.8-0.4,21.7-0.2,28.5,1c10.1,1.6,36.9,9.9,47.2,14.6
	c28.9,13.1,39.9,16.8,57.1,18.9C1146.9,1415.2,1163.1,1414.3,1177.1,1412z M632.5,1364.6c-1.1-0.7-6.9-4.1-13-7.6
	c-16-9-22.3-14.4-29.4-25c-9.4-13.9-14.9-27.7-22.3-55.5c-5.3-20.1-13.1-36.5-24.9-52.1c-6.6-8.7-26.4-30.8-40.4-44.9
	c-7.9-8-23-20.5-24.8-20.5c-0.3,0,2.1,3.7,5.3,8.3c7.6,10.5,14,23.5,17.8,36.2c4,13.2,8.9,35.2,9.7,44c2.3,23.6,10.7,38.1,38,65.1
	c27.6,27.3,50.9,42.8,79.5,52.7c0.8,0.3,2.6,0.6,4,0.6C634.4,1366,634.4,1366,632.5,1364.6z M986.7,1362.9
	c30.6-12.1,57.6-31.9,85.1-62.3c16.3-18.1,23.5-31.4,25.2-47.1c1.1-10.5,2.1-15.6,7.2-37c5.6-23.5,10.3-33.6,25.8-55.8l1.5-2.1
	l-3.2,1.9c-6.7,3.9-18.2,14.5-34.9,32.2c-25.5,27-34.8,39.2-43.4,57.6c-4.5,9.6-6.2,14.9-14,42.7c-5.7,20.3-17,41.2-27.8,51.3
	c-2.6,2.4-8.1,6.3-12.2,8.7c-4.1,2.3-10.5,6.1-14.2,8.2c-3.8,2.1-6.8,4.1-6.8,4.3C975,1366.8,979.7,1365.7,986.7,1362.9z
	 M384.3,1337.9c5.6-1.1,14.3-3.1,19.2-4.5c26.6-7.1,56.8-9.4,71.1-5.4c9,2.5,22.5,5.2,23,4.7c1.7-1.7-9-6.1-32.6-13.6
	c-16.1-5-20.9-6.3-47.5-13c-8.8-2.3-21.2-5.4-27.5-7.1c-13.7-3.7-26.7-6.5-37.1-7.9c-6.3-0.9-9.8-0.7-20.5,0.9
	c-10.9,1.6-14.9,1.7-26.4,1c-16-1.1-32.2-4-41.7-7.6c-9.9-3.7-24.4-11.7-33.2-18.2c-10.5-7.9-11-8.1-7.1-3.1
	c4.5,5.7,19,20.2,26.2,26.2c4.9,4.1,25.2,18.1,32.9,22.7c1.3,0.8,4.7,2.8,7.4,4.5c7.8,4.8,23.4,12.1,32.1,15.1
	C344.2,1340.1,364.9,1341.9,384.3,1337.9z M1270.5,1337.1c22.8-5.6,38.9-13.4,68.5-32.9c11.2-7.5,27.6-20.5,33.4-26.6
	c4.3-4.5,14.6-16.6,14.6-17.1c0-0.2-4.1,2.7-9,6.4c-15.9,11.8-33.2,19.6-51.2,23.2c-12.6,2.4-36.5,4-44.3,2.8
	c-15.7-2.4-19.9-2.7-26.2-1.8c-9.5,1.2-25.1,4.4-36.3,7.4c-5.2,1.5-21,5.5-35,9.1c-39.9,10.1-72.2,20.7-74.5,24.4
	c-1,1.6,4.5,0.7,19.5-3.2c11-2.9,12.1-3,27.5-2.5s36.8,3.7,46.5,6.9c1.9,0.7,9.1,2.4,16,3.9c11.1,2.5,14.1,2.8,27,2.5
	C1257.7,1339.4,1263.8,1338.7,1270.5,1337.1z M507,1316.8c-17.2-15.7-20.1-19-24.5-28.2c-4.1-8.4-7-17.6-9.6-30.9
	c-0.6-2.8-1.4-14-1.9-24.7c-0.6-15-1.4-22-3.4-30.5c-4.2-18.1-11.3-34.5-23.1-53c-1.7-2.7-5.8-9.3-9-14.5c-9-14.6-24.9-35-26.2-33.6
	c-0.2,0.2,0.4,2.1,1.5,4.3c5.9,11.6,10.3,26.8,12.2,41.8c0.7,5.4,1,20.3,0.8,37l-0.3,28l2.9,8c7.8,22.3,33.8,61.4,51.8,78
	c12.6,11.7,27.6,22.4,31.3,22.4C511.1,1320.9,510.6,1320.1,507,1316.8z M1105.4,1318.3c17.6-11.8,35.8-29.5,47.2-45.9
	c22.6-32.2,32.8-53.9,32.6-68.9c-0.3-31.5-0.1-51.4,0.7-59c1.3-10.9,5.1-24.1,10.2-35.2c3.7-8,3.7-8.3,1.3-6.4
	c-6.6,5.2-15.1,17.1-32.6,45.6c-20.5,33.4-25.5,49.1-27.3,86c-1.2,24.3-4.9,41.4-12.2,56c-2.9,5.7-5.9,9.3-15.7,18.7
	c-8.4,8.2-11.5,11.8-10.2,11.8C1100.5,1321,1103.2,1319.8,1105.4,1318.3z M395.3,1266.5c-1.4-3.7-31.6-20.1-64.1-34.9
	c-12.5-5.7-26.1-12-30.2-13.9c-9.9-4.7-13.7-6.2-25-10.4c-8.6-3.2-10.9-3.6-24.5-4.3c-37.1-2-65.6-13.6-88.9-36.2
	c-5-4.8-9.1-8.6-9.3-8.4c-0.6,0.5,7.8,13.9,13.4,21.3c11.7,15.6,40.8,42.7,57.8,53.8c28,18.3,48.3,23,85.5,19.5
	c16.1-1.5,39.1-0.8,50.3,1.5c4.3,0.9,13,4,19.5,6.9C396.1,1268.8,396.3,1268.9,395.3,1266.5z M1228.5,1261.5c6.6-2.9,15.6-6.1,20-7
	c11.4-2.3,34.4-3,50.5-1.5c7.4,0.7,17.8,1.2,23,1.2c18.9-0.1,39.9-6.6,57.8-17.9c19.6-12.3,49.5-39.9,63-58.1
	c6.2-8.4,13.2-19.4,13.2-20.8c0-0.4-4.2,3.3-9.2,8.2c-5.1,5-11.8,10.9-15,13.2c-19.1,14-45.9,22.7-74.8,24.2
	c-12.9,0.7-15.6,1.1-24.5,4.2c-5.5,2-17.4,7-26.5,11.3c-9.1,4.2-21.5,9.9-27.6,12.5c-24.4,10.6-56.2,27.6-63.4,34
	c-3.2,2.8-3.3,3-1,2.4C1215.4,1267.1,1221.9,1264.4,1228.5,1261.5z M406.5,1253.8c-16.1-22.2-18.4-28.3-19.2-51.8
	c-0.4-11.7-0.1-17,1.6-27.5c4.2-26.2,3.8-44.9-1.5-64.5c-2.5-9.3-14.1-39.5-20.5-53.5c-2.7-6-12.5-22.5-13.4-22.5
	c-0.1,0,1,5,2.6,11.1c2.6,10,2.9,12.7,2.9,27.3c0,17.8-3,39.9-7.2,53.1c-3.1,9.7-2.9,21.6,0.5,35c6,23,18.3,51.1,30.6,69.7
	c7.1,10.6,24.4,29.8,26.9,29.8C410.5,1260,409.1,1257.3,406.5,1253.8z M1212.2,1247.5c10-11.4,17.9-23.2,24.5-36.5
	c14-28.4,22.3-54.7,22.3-70.7c0-3.1-1.3-10.6-3-16.7c-3.4-12.8-7-39.2-7-51.6c0-9.5,2.2-24.5,4.6-31.6c0.8-2.5,1.3-4.8,1.1-5
	c-0.7-0.7-9,12.3-12.5,19.7c-5.8,12.2-17.9,43.3-20.5,52.9c-5.7,20.9-6.2,34.9-2.3,65.5c2.2,16.4,2.6,23,2.1,30
	c-1.6,20.7-4.8,30.1-15.2,44.1c-3.4,4.5-6.6,9.1-7.3,10.4l-1.2,2.2l3.3-1.8C1202.8,1257.3,1207.8,1252.5,1212.2,1247.5z
	 M1301.5,1186.3c2.8-1.8,6.8-4.5,9-6.1c14.8-10.4,32.9-15.2,70.5-18.7c22.8-2.1,34.1-5.7,50.5-16.3c13.4-8.6,25.3-20,39.9-38.2
	c10.8-13.5,16.7-21.8,22.4-31.5c4.3-7.2,12.2-24.7,12.2-26.8c0-0.6-2,1.8-4.4,5.4c-5.8,8.6-19.1,22.6-27.5,28.9
	c-13.1,9.8-35.5,19.4-53.6,23c-15.6,3-25.8,8.1-51.5,26.1c-5.2,3.6-16.2,11.1-24.5,16.7c-21.7,14.6-45.1,33.5-49.2,39.9
	C1293.3,1191.7,1293.2,1191.8,1301.5,1186.3z M312.8,1187.8c-3.5-5.4-26.6-23.9-47.5-38.1c-6.2-4.3-16.3-11.1-22.4-15.3
	c-17.8-12.2-22-14.9-30.6-19.7c-9.6-5.3-14.6-7-26.7-9.2c-14.1-2.6-35.1-11.5-48.6-20.6c-8.7-5.9-17.7-14.5-25.1-24.3
	c-3.8-5-7.5-10-8.4-11.1c-1-1.4-0.8-0.2,0.6,4c9,25.2,39.2,65.7,62.9,84.4c20,15.8,33.6,21.1,60.9,23.7c36.9,3.4,55.9,8.3,69.1,17.9
	c7.2,5.3,15.4,10.5,16.3,10.5C313.8,1190,313.6,1189,312.8,1187.8z M1288.5,1175c11-16.9,17.3-32.5,23.4-58.1
	c7.9-33.3,8-54.3,0.2-69.8c-3.2-6.3-9.3-24.3-13.3-39.1c-1.8-7-2.2-11.2-2.3-24c0-8.5,0.3-17.1,0.8-19c0.7-3.1,0.6-3.3-0.6-1.5
	c-4.2,6.3-9.7,23.9-15.1,48c-4.3,19.1-5.1,25.6-5.1,41c0.1,17.4,1.4,24.7,8.1,44.8c5.8,17.5,8.4,31.1,8.4,44.5
	c0,12.8-0.6,15.2-7.6,30.5c-3,6.5-5.4,12.1-5.4,12.4C1280,1186.2,1284.7,1180.9,1288.5,1175z M322.4,1170.9
	c-6.8-14.9-7.9-21.6-6.4-38.9c1-11.4,1.7-14.2,11.5-46.5c3.2-10.8,3.7-13.5,4.2-27c0.6-16-0.5-28.4-3.7-42
	c-7.8-33-11.1-44-15.5-51.5c-1.4-2.3-1.5-2-0.8,4c1.2,10.3,0.7,24.8-1.1,34c-2.5,12.2-9.1,33.1-13.7,43.2c-5.4,11.8-7.3,21-6.5,32.3
	c1.3,20.5,8.7,53.1,16.1,71c6.6,15.8,19.2,36.1,21.2,34.1C328,1183.4,325.6,1177.6,322.4,1170.9z M247.2,1098.3
	c-5.8-9-22.8-26.8-50.1-52.5c-30.6-28.9-39.6-35.7-53.1-40.2c-9.8-3.2-17.7-7.3-31-16.1c-16.3-10.8-29.6-26-39-44.7
	c-1.9-3.7-3.5-6.6-3.7-6.5c-0.3,0.4,4.5,18.7,5.9,22.2c6.2,15.9,17.6,37.4,28.7,54c12.9,19.5,31.7,36.1,48.7,43.3
	c3.9,1.6,13.6,4.6,21.7,6.6c20.6,5.2,36.1,10.7,47,16.7c3.2,1.7,10.6,7.6,16.4,13.1c5.8,5.4,10.8,9.6,11.1,9.4
	C250,1103.3,248.9,1100.9,247.2,1098.3z M1370.5,1093.5c0.6-0.7,3.5-3.4,6.5-6c6.2-5.3,12.6-8.8,25.5-13.8c9-3.5,13.7-4.9,36-10.7
	c22.7-5.9,39.8-16.8,55-35.1c7.4-8.8,8.9-11.1,19-27.4c6.8-10.9,15.2-28.1,19.3-39c2.6-7.1,6.3-21.7,5.7-22.3
	c-0.2-0.2-2.2,3.4-4.4,7.9c-8,15.9-19.4,29.5-33.1,39.3c-10.7,7.8-25.8,16-34,18.7c-15.1,4.9-22.4,10.2-52.5,38.5
	c-24.4,22.8-37.7,36.5-46.7,47.7c-9.1,11.5-10.3,15.3-2.5,8.2C1367.1,1096.8,1370,1094.1,1370.5,1093.5z M263.5,1096.3
	c-6.4-22.2-6.9-29.1-3.5-44c2.6-11.2,4.6-16.4,13.5-34.3c9.2-18.6,11-23.4,13.5-35c3.1-14,3.5-30.3,1.6-51.5
	c-2.3-24.4-3.2-30.2-5.8-38.2l-2.3-6.8l-0.7,12.6c-0.6,9.6-1.5,14.9-3.8,22.4c-3.6,11.6-14.2,34.1-21,44.5
	c-9.4,14.3-11.6,26-10.6,55.2c0.4,12.8,1.4,23.2,3.1,33.1c3.1,18.3,10.2,39.2,15.3,45C265,1101.8,265,1101.5,263.5,1096.3z
	 M1351.3,1088.5c7.3-17.3,10.4-32.6,12.8-62.5c1.2-15.6,0.6-27-1.8-39c-1.9-9.4-3-12.1-8.6-20.8c-5.3-8.1-15.2-27.8-19-37.7
	c-3.5-9.1-5.6-19.8-6.4-31.3c-0.6-8.9-0.7-9.2-1.9-6.2c-4.5,10.5-8,45.7-7.1,71c0.7,21.3,3.1,29.9,14.8,54
	c10,20.4,14.2,32.3,15.9,44.9c1.3,9.9,0.8,15.1-3.1,28.6c-1.6,5.5-2.9,10.5-2.9,11C1344.1,1102.7,1348.2,1096,1351.3,1088.5z
	 M1416,1001.5c2-2.7,5.2-6.5,7.1-8.4c7.5-7.4,26.2-18.1,43.9-25.1c18.5-7.4,27.4-12.6,37.5-22.2c8.6-8.2,17.7-20,23.2-30.4
	c9.7-18.3,21.3-50.5,23.9-66.4c2-12.7,1.6-16.6-1-9c-2.8,8.5-10.7,23.9-15.6,30.5c-9.4,12.8-28,28.5-42,35.5
	c-14.4,7.2-20.2,13.1-51.6,53c-18.5,23.5-24.7,32.2-31.8,44.7C1401.6,1018,1404.5,1016.9,1416,1001.5z M200.4,1006.4
	c-4.8-8.9-19.1-29.7-27.6-40.4c-4.6-5.8-13.6-17-20-25c-15.8-19.8-25.1-28.6-35.8-34c-15.8-7.9-35.8-25.1-44.9-38.5
	c-6.6-9.8-9.7-15.9-13.7-27.5c-3-8.4-3.4-9.1-3.4-5.5c0.1,9.9,6.8,36.1,13.3,52c11.4,27.6,15,34.3,26.8,49
	c12,15,23.5,22.5,51.4,33.5c8.4,3.4,27.8,14.2,34.2,19.1c5.1,4,6.8,5.9,17.3,19.5C203.2,1015.4,204.6,1014.1,200.4,1006.4z
	 M216.4,1001c-1.5-13.7-0.7-21.5,3.1-31.5c3.8-9.9,10-21.5,15.4-28.8c21.4-28.7,26.1-42.8,29.1-87c1.2-17,0.9-27-1.2-36.2l-1.1-5
	l-1.8,10c-1.7,9.9-4.7,19.1-9,27.6c-3.9,7.6-18,28.1-23.7,34.4c-2.9,3.3-6.4,8-7.7,10.5c-11.2,22-14.8,76-7.1,105.8
	c2,7.8,4.3,13.1,5.1,12C217.6,1012.6,217.1,1007.3,216.4,1001z M1394.4,1007.2c0.8-2.6,2.5-9.6,3.6-15.7c3.7-18.8,2.6-53.4-2.5-77.3
	c-2.5-11.9-6.9-21.2-13.6-28.8c-7.9-9-21-28.6-25.9-39c-3.9-8.2-7.2-19.2-8.6-28.9c-0.7-4.9-0.8-4.9-1.6-2
	c-2.9,9.6-1.6,52.2,2.2,71.5c3.8,19.7,8.7,30.3,23.9,51.5c8.4,11.7,15.3,24.8,18.6,35.8c2.5,7.9,2.7,9.8,2.2,18.5
	c-0.4,5.3-1,12.1-1.3,15.1C1390.6,1014.5,1392.1,1014.2,1394.4,1007.2z M186,907.5c0.1-9.5,0.4-11.9,2.9-18.1
	c4.1-10.4,12.4-22.4,24-34.9c16.9-18,23.7-28.6,29.6-45.7c6.4-19,14.2-68.8,10.7-68.8c-0.4,0-1.8,3.3-3.1,7.3
	c-5.5,17.1-14.9,30.6-36.2,51.7c-16.5,16.3-19.9,22.9-26.8,52.5c-4.9,20.9-6.4,34-5.8,49.5c0.6,14.4,2.3,23.1,3.8,19.5
	C185.5,919.4,185.9,913.6,186,907.5z M1425.7,919.3c0.5-1.6,0.8-12.7,0.7-24.8c0-21.7-0.1-22.2-3.7-38c-7.3-31.6-12.9-44-23.7-53.4
	c-9.3-8.1-23-23.2-29.6-32.6c-3.6-5.2-7.6-13.6-11-23.5l-3.4-9.5v10.4c0,15.7,6.9,51.4,12.7,65.6c6,14.9,12.2,24.4,23.8,36.5
	c11.2,11.7,17.6,19.8,22.7,28.5c6.7,11.6,8.8,19.3,8.8,32.6C1423,921.8,1424.1,925.1,1425.7,919.3z M168,909.2
	c-5.3-12.6-12.2-25.7-24.9-47.3c-22.4-38.1-28.2-46-39.8-54.2c-13.9-9.8-30.1-27.7-37.2-41.2c-4.4-8.1-9.7-23.8-10.7-31.1l-0.8-5.9
	l-0.8,4.5c-1.2,6.3,0.7,27.4,3.6,40.3c7.3,32.2,15.1,51.5,27.3,67.2c8.4,10.9,14.9,16.1,37.3,29.5c23,13.9,33.3,23.4,42.3,39.5
	c4.7,8.4,6.2,10.5,6.5,8.7C171,917.9,169.7,913.4,168,909.2z M1444.5,910c2.7-5.1,6.7-11.2,8.9-13.7c6.5-7.4,23.5-20.2,36.1-27.2
	c32.5-18.2,46.1-37,57.9-80.1c5.3-19.5,6.8-28.9,7.2-45c0.2-11.4,0.1-14.3-0.6-11.1c-3.6,17.1-10.2,33-18.4,44.5
	c-7,9.8-19.9,23-28.5,29c-4.2,3-9.3,7.1-11.4,9.3c-3.6,3.5-13.7,18-19.5,27.8c-1.3,2.2-6.9,11.7-12.4,21
	c-13.4,22.7-26.8,50.4-26.8,55.4C1437,922.5,1439.4,919.3,1444.5,910z M168.4,820.2c1.9-12.1,3-15.1,9-24.1
	c5.5-8.2,14.2-17.1,26.1-26.6c16.5-13.1,23.7-21.7,31.5-37.4c7.5-15,19-53,19-62.6c0-3.3-0.4-2.8-4.8,5.7
	c-6,11.9-12.1,19.8-21.9,28.4c-4.3,3.8-9.2,8.2-10.9,9.7s-6.7,5.1-11,8c-4.7,3.1-9.4,7.2-11.7,10.2c-8.4,11.1-21.2,42.5-25.8,62.9
	c-3.5,15.9-4.8,40.2-2,37C166.4,830.9,167.5,825.9,168.4,820.2z M1444,822.7c0-19.7-7.8-49.5-19.8-75.1c-6.1-13-12.8-21.2-21.7-26.9
	c-11.7-7.3-30.6-25-37.4-35c-1.8-2.7-5.1-8.5-7.2-13l-4-8.2l0.6,6.5c1.1,12.1,11.8,46.6,18.8,60.7c7.8,15.9,13.9,23,32.7,38.6
	c22.7,18.9,31.1,30.7,33.6,47.4c0.8,5.4,1.7,10.8,2.1,12.1C1442.7,834,1444,830.1,1444,822.7z M1463.7,811.1
	c5.6-12.3,18-25.9,36.3-39.7c25.5-19.2,36.1-37.8,42.7-74.8c2.4-13.4,2.7-17.6,2.7-37.1c0-23.9-1.5-34.6-2.7-20
	c-2.3,25.9-14,49.8-34.9,70.8c-12,12.1-16.9,20-26.6,43.2c-1.9,4.6-9.7,23-14.2,33.5c-4.9,11.5-12,35.4-12,40.5c0,2.6,0.4,2.2,2.7-3
	C1459.1,821.2,1461.8,815.2,1463.7,811.1z M152,818.9c-4.5-17.6-9.9-31.5-27.6-71.8c-8.6-19.5-12.9-26.2-22.7-35.8
	c-9.6-9.2-18.8-21.5-25.2-33.5C71,667.3,66,649,66,638.7c-0.1-10.5-1.6-6.5-3,7.9c-1.1,10.1-1,14.7,0.4,29.4
	c3.6,38.1,10.7,59.6,26,78.3c2.1,2.7,10.2,9.9,18,16.2c14.8,11.8,28.2,24.9,33.3,32.5c1.7,2.5,4.7,8.8,6.8,14
	C153.5,832.1,155.6,833,152,818.9z M163.5,732.5c5.3-18.1,14.5-27.6,45.3-46.8c16.5-10.2,27.1-22.9,38.3-45.7
	c8.8-17.6,12.5-26.5,14.5-34.4c0.8-3.4,1.8-7,2.1-8.1c0.3-1.1-2.3,2.1-5.7,7.2s-9.1,11.9-12.6,15.3c-7.7,7.1-25.4,19.2-34,23.1
	c-12.3,5.6-22.9,18.4-35.1,42.4c-10.9,21.4-16.2,37.7-16.9,52C158.9,746.7,159.5,746,163.5,732.5z M1449.7,738.3
	c-1.7-15.9-7.6-33.6-17.7-53c-13.1-25.1-22-36.2-33.2-41.2c-7.2-3.3-24.9-14.9-32.4-21.2c-5.7-4.9-13.3-13.8-18.2-21.4
	c-1.7-2.7-3.2-4.3-3.2-3.4c0,7.1,16.6,45.5,25.6,59c7.2,10.8,17.4,21,27.2,27.4c4.8,3.1,12.1,7.7,16.3,10.4
	c16.6,10.6,27.1,23.4,30.9,37.5C1448.5,745.2,1450.7,748,1449.7,738.3z M146.5,722.4c-1.5-10.6-5-25.6-8.4-36.9
	c-1-3.3-3.1-10.5-4.6-16c-7.5-27.7-12.1-38.2-20.9-48.5c-5.7-6.7-14.5-21.4-18.6-31c-4-9.6-6-19.9-6.7-34c-0.7-15-1.1-14.9-4.5,2.3
	c-2,9.8-2.3,14.1-2.2,34.7c0,19.9,0.3,25,2.1,33.5c4.6,22,11.4,34,30,53.6c20.1,21.1,27.7,32.6,30.8,46.6c0.9,3.7,2.1,8.4,2.8,10.3
	l1.2,3.5l0.3-3.8C148,734.7,147.4,728.2,146.5,722.4z M1464.5,728.4c4.3-16.7,11.5-27.8,31.6-48.9c17-17.9,20.9-23.7,26.3-40
	c3.8-11.7,5.6-26.4,5.6-47c0-19.1-1.7-35.4-4.7-44.5l-1.7-5.5l-0.7,14c-0.4,7.7-1.2,16.5-1.9,19.5c-2.9,12.6-13.5,33.4-23,45
	c-9.2,11.1-13.3,20.4-20,45c-1.8,6.3-4,14.2-5,17.5c-5.3,17.7-9.5,37.4-10.6,50C1459.5,743.3,1461.3,741,1464.5,728.4z M1442,645.2
	c-5.9-18.1-19.1-40.6-34.3-58.2c-9-10.5-15.6-15.6-22.7-17.6c-7.8-2.3-25.1-10.8-34.5-17c-7.5-4.9-14.2-11.1-20.8-19.4
	c-2.5-3.1-2.7-3.2-2.2-1c1.3,5.3,10.8,23.1,19.3,36c15.3,23.2,25.4,32.4,46.2,42.1c30.4,14.3,37.8,20.3,46.3,38.3
	C1445.5,661.4,1446.7,659.9,1442,645.2z M169.5,647.7c2.1-4.8,5.4-10.5,7.3-12.8c5.6-6.5,15.9-13.7,28.2-19.6
	c24.2-11.6,27.9-13.9,36.1-21.5c5.9-5.4,13.5-14.7,18.1-21.8c13.5-20.9,19.7-32.4,21.6-39.5l1.1-4l-2.2,3
	c-4.5,6.3-15.5,16.8-21.7,21c-8.6,5.7-25.3,13.9-32.2,15.9c-13,3.8-24.1,14.8-41.8,41.1c-9.7,14.4-20,38.1-20,45.9
	C164,659.4,165,658.1,169.5,647.7z M154.7,636.1c-0.4-7.5-2-23-3.7-34.6c-6.1-42.8-8.5-53-14.5-62.5c-17.2-27.4-22.5-52.4-17-79.8
	c0.4-1.9-0.1-1.4-1.8,1.8c-6.2,11.5-11.4,38.4-12.3,63.5c-0.5,13-0.3,16.4,1.6,25.5c3.3,16.2,7.3,24.2,20.5,41.5
	c14.5,19,20.9,31.9,23,46.5c0.9,5.8,1.9,11.6,2.2,12.9c0.5,2.1,0.7,2.2,1.6,0.6C154.9,650.3,155.1,644.5,154.7,636.1z M1457,642.7
	c2.1-18.1,7.3-28.8,26.6-54.7c11.6-15.7,15.4-23.7,18.1-39c4.1-22.8-1.1-67-10.2-86l-2.6-5.5l0.6,4c1.5,10.7,1.7,23.8,0.6,31.6
	c-2.1,13.8-8.5,30.8-16.3,42.9c-2.7,4.1-5.9,10.9-7.2,15c-2.2,6.9-3.4,13.5-9.7,52.5c-2.9,18.1-3.9,51.9-1.5,49.4
	C1455.6,652.7,1456.3,648.1,1457,642.7z M1428.4,572.2c-8.1-19.5-26.5-43.9-44.8-59.3c-8.5-7.2-13.1-9.5-24.9-12.4
	c-12.5-3.1-29.2-9.8-36.5-14.4c-3.2-2.1-9.2-6.9-13.1-10.7c-5.8-5.4-7-6.2-5.9-3.8c4.4,10,22.4,33.6,35,46.1
	c12.8,12.5,21.5,17.2,46.3,25.3c22.8,7.4,32.7,15,42.5,32.4C1431.2,583,1432.1,580.9,1428.4,572.2z M183.9,571.6
	c2.8-4.5,7-10.1,9.4-12.3c6.4-5.9,17.6-12.1,28-15.5c25.5-8.3,31.4-11.1,43.1-20.6c10.9-8.9,33.1-36.2,39-47.9
	c3.5-7,3.3-7.5-0.9-2.6c-10.2,11.9-30.4,22.4-54.3,28.2c-4.6,1.2-10.6,3.3-13.2,4.7c-10.4,5.6-32.4,28.6-43.5,45.4
	c-8,12.2-15.6,29-13.1,29C178.7,580,181.1,576.2,183.9,571.6z M171.9,553.5c1.4-17.9-0.1-68.8-2.4-79.6c-0.7-3.7-2.8-9.6-4.5-13.1
	c-6.7-13.3-10.9-31.1-11-45.8c0-8.6,1.9-22.1,3.9-27.4c1.8-4.7,0.5-4.1-2.5,1c-6.6,11.2-13.6,33.3-17.5,54.9
	c-3.5,19.9-1.5,40,5.4,54.3c1.3,2.6,4.9,9.1,8,14.5c12.7,21.9,16.7,33.8,16.8,50.6c0.1,10.4,0.2,11.3,1.4,8.6
	C170.2,569.9,171.3,561.8,171.9,553.5z M1441,559.9c0-8.7,0.5-12.9,1.9-17.1c3.4-9.9,9-21.8,15.4-32.7
	c11.8-19.8,14.3-29.6,13.4-52.1c-0.8-22.8-9.2-53.4-19.4-70.8c-1.4-2.3-2.7-4.2-2.8-4c-0.2,0.2,0.8,4.1,2.2,8.8
	c3.6,12.1,3.7,31.6,0.4,44c-1.3,4.7-2.7,10.2-3.2,12.3c-0.5,2.1-2.8,7.4-5,11.9c-4.7,9.3-5.6,13.7-6.9,34.3
	c-2,29.3-1.2,62.5,1.6,76.9C1439.8,577.2,1441,571.5,1441,559.9z M207.5,499.6c5.5-7.4,9.1-10.4,18-14.9c6.8-3.4,19.5-7.3,28.2-8.6
	c22.2-3.4,36.5-11.3,57.6-32c12.3-12,21-22,23.6-26.8c0.8-1.6-1-0.6-6,3.1c-3.9,3-10,6.8-13.5,8.5c-7.9,3.9-29.5,9.7-39.1,10.6
	c-13.6,1.2-26.3,9.1-47.2,29.1c-12.1,11.6-21.4,23.1-26.2,32.6C198.1,510.7,199.4,510.3,207.5,499.6z M1405.9,501.8
	c-7.2-14.1-20.5-29.2-40.3-45.5c-12.6-10.5-23.5-16.1-33.1-16.9c-10.8-0.9-29.6-6-39-10.5c-4.7-2.2-11.2-6.2-14.5-9
	c-3.2-2.7-6.2-4.9-6.5-4.9c-0.9,0,2.6,5.1,9,12.9c8.1,10.1,31.2,31.1,39.7,36.2c9,5.4,17.1,8.7,26.6,10.5c23,4.6,37,9.5,44.8,15.9
	c2.4,2,6.7,6.7,9.6,10.6C1407.8,508.7,1409.6,509,1405.9,501.8z M197,484.9c1.6-7.4,3.4-19,4-25.9s1.7-18.7,2.5-26.2
	c2.3-21.2,2-28.1-1.6-39.3c-4.4-13.9-5.9-23.2-5.9-37c0-13.2,2.2-23.4,7.6-35.5c2.2-5,2.2-5.3,0.3-3c-6.9,8.3-15,23.3-20.5,37.6
	c-12.9,34.2-13.5,56.2-2.5,80.8c5.5,12.2,8.1,19.2,10.6,29c2.8,11.3,2.9,12.1,0.9,29.6C191.2,504.9,193.8,499.2,197,484.9z
	 M1415.7,484.3c-0.2-15.4-0.1-16,3.1-25.8c1.8-5.5,5.3-14.5,7.7-20c7.5-17.4,8.9-23.3,8.8-37c-0.1-15.8-2.7-26.6-13-52.5
	c-3.4-8.6-6.7-15-12-23.1c-6-9.3-8.1-10.7-4.9-3.5c1.4,3.1,3.6,9.4,4.8,13.9c4.3,15.5,2.5,40.2-4.2,58.2c-2.1,5.7-2.2,7-1.7,24
	c0.6,19.7,4.7,57.6,7.2,67.7c3.1,12.2,3.6,13.8,4,13.8C1415.7,500,1415.8,492.9,1415.7,484.3z M249.9,425c6.9-3.5,21.8-6.8,35.7-8
	c24.6-2.2,35-6.8,61.4-27.5c9.4-7.4,24-21.3,24-22.9c0-0.4-2.5,1-5.6,2.9c-14.2,9.1-29.2,13.2-52.6,14.4l-13.6,0.7l-10.4,5.2
	c-12.4,6.3-29.9,18.6-40.8,28.9c-8.4,7.9-18,19.8-18,22.3c0,0.8,3.5-2,7.8-6.2C242,430.6,247.5,426.2,249.9,425z M1377.4,438.3
	c-3.7-5.7-13.6-17.2-19.2-22c-9.4-8.2-28-21.3-36.1-25.5c-10.5-5.3-16.1-6.8-26-6.8c-19.1,0-38.7-5.3-52.9-14.4
	c-2.4-1.5-4.6-2.5-4.9-2.3c-0.9,1,14.6,15.6,25.2,23.8c24.9,19.1,34,23.2,56.5,25.4c28.5,2.9,39.7,7,51.3,18.7
	C1378.4,442.3,1380.6,443.4,1377.4,438.3z M227.4,424.7c3.3-9.3,7-22.2,9-31.7c0.8-4.1,3.1-15.1,5.1-24.5c4.1-19.5,4.6-29.6,2-39.5
	c-2.7-10.2-2.5-31.1,0.5-42c2.1-7.8,8.8-23.2,11.1-25.4c0.5-0.6,0.9-1.5,0.9-2c0-1.9-9,8.7-15.2,17.9c-9,13.2-20.1,36.8-23.3,49.4
	c-2.4,9.1-2.6,11.8-2.3,22c0.4,10,1,13.4,4.5,24.6c2.2,7.2,4.8,18.5,5.8,25l1.8,12l-2.6,11.8C221.9,435.6,223,436.7,227.4,424.7z
	 M1384.1,423.5c-1.2-4.2-2.1-10.5-2.1-14.4c0-7.4,4-28.7,6.5-34.7c2.1-5.1,5.5-22.2,5.5-27.8c0-7.2-3.8-24.8-7.1-32.7
	c-8-19.5-22.5-43.5-31.4-51.9l-3.7-3.5l3.2,5.5c11.1,19,14.3,39.5,9.9,64.6c-1.5,8.7-1.9,13.9-1.4,19.4c0.6,7.2,1.4,11.2,8.5,44
	c3.1,14.6,7.6,29.7,11.3,38C1386.2,436.4,1386.6,432.8,1384.1,423.5z M273,376.7c10.7-8.9,17.2-10.6,43.5-11.7
	c24.2-0.9,32.8-2.6,45.9-9.2c14.6-7.2,40.5-24.6,46.1-30.8c1.9-2.1,1.7-2.1-3.5,0.5c-14.8,7.5-26,9.6-51.2,9.6
	c-14.9,0-17.3,0.2-23.6,2.3c-18.5,6.3-42.8,21.3-56.9,35.1c-5.1,5-9.3,9.7-9.3,10.4c0,1.2,0.3,1.2,1.8-0.1
	C266.7,382,270,379.3,273,376.7z M1340.5,377.5c-4.3-5.2-16.3-15.3-24.7-20.8c-10.8-7.1-29.3-16.7-37-19.1
	c-6.9-2.3-9.2-2.5-24.5-2.5c-25.6,0-36.1-2-50.8-9.8l-5-2.6l3,3.2c6.8,7.3,32.7,24.6,46.1,30.7c13.8,6.3,20.8,7.6,44.4,8.4
	c27.1,1,32.2,2.4,44.4,12.5c3.8,3,7.1,5.4,7.3,5.1C1344,382.3,1342.5,380,1340.5,377.5z M265.4,363.6c5.6-11.6,7.9-17.7,16.6-43.6
	c8.7-26.4,9.4-29.7,8.6-43.4c-1.6-26.2,4.9-48.8,18.3-63.8c5.2-5.8,0-2.5-7.1,4.6c-18.2,17.9-34.3,44.1-39.3,64.1
	c-3.1,12-3.1,18.3-0.3,32.2c1.8,8.6,2.2,14.3,2.2,27.8c0.1,15.4-0.1,17.4-2.1,21.7c-1.2,2.5-2.6,6.3-3.2,8.3
	C257.4,377.6,260.3,374,265.4,363.6z M1348.1,367.7c-4.6-11.8-5.4-16.5-4.8-28.7c0.3-6.3,1.6-16.9,2.7-23.5
	c2.5-13.6,2.3-26.9-0.4-36.8c-5.4-19.7-27.5-52.8-44.1-66l-3.9-3.2l4.6,6.5c9.7,13.7,14,25.8,15.8,44c0.7,7,0.8,12.8,0.1,17.3
	c-1.4,9.9,0.5,19.2,9.4,45.7c9.6,28.4,21.1,54.8,22.3,51.1C1350,373.5,1349.3,370.6,1348.1,367.7z M324.7,318.5
	c6.4-2.3,25.2-3.1,39.3-1.6c20.2,2.1,33.4-1.1,60-14.4c12.1-6.1,29-16.5,29-17.9c0-0.2-3.3,0.9-7.2,2.4c-11.9,4.6-23.4,6.3-37.3,5.6
	c-6.6-0.3-13.6-1.1-15.5-1.6c-8.4-2.4-20.5-0.3-37.9,6.6c-10.4,4.1-25.3,11.7-32.9,16.8c-7.6,5-17.2,13.2-17.2,14.7
	c0,0.5,3.4-1.3,7.5-4S322.1,319.4,324.7,318.5z M1303.4,328.5c-0.7-1.6-11.6-10.7-18.8-15.4c-10.2-6.8-34.8-17.6-47.5-21
	c-8.9-2.4-11.1-2.4-29.6-0.1c-16.7,2-36.8-0.5-47.6-6.1c-5-2.5-5.7-2.4-2.2,0.4c6.1,5,13.1,9.2,27.1,16.2
	c27.5,13.7,39,16.5,59.9,14.4c6.7-0.6,17.3-0.9,23.5-0.7c13.1,0.6,18,2.2,28.3,9.3C1303.8,330.5,1304.2,330.6,1303.4,328.5z
	 M310.1,307.3c6.2-10.5,9.6-17.1,18-34.8c12.1-25.6,13-28.3,14-42.5c1.7-25.4,8.7-43,23.8-59.4c3.6-3.8,3.6-3.8,0.6-2
	c-17.7,10.9-44.7,43-51.6,61.3c-4.5,12.1-5.1,17.4-4.4,36.6c0.9,24.1-0.2,32-6,44.3c-2.5,5.2-4.5,9.7-4.5,10
	C300.1,322.3,305.8,314.7,310.1,307.3z M1305.1,313.2c-7-13.9-7.6-17.5-7.3-44.1c0.1-17.8-0.2-24.9-1.3-29.8
	c-3.4-14.7-15.2-33.3-33.1-52.2c-8.3-8.8-20.5-19.1-22.7-19.1c-0.5,0,1.5,2.6,4.4,5.8c12.7,13.9,20.9,35.2,20.9,54.6
	c0,12.1,4.9,25.3,22.7,61.2c7,14.2,17.7,31.4,19.4,31.4C1308.6,321,1307.2,317.5,1305.1,313.2z M362.1,275.3l9.2-4.8l14.6,0.1
	c11.2,0.1,16.8,0.6,23.8,2.2c17.1,4,33.2,2.4,53.8-5.5c17.3-6.6,22-8.6,27.5-11.4c6.3-3.2,12.6-7.5,9.5-6.4
	c-10.7,3.6-16.8,4.6-28,4.6c-12.6,0-22.3-1.1-31.5-3.8c-10.6-3.1-25.4-0.7-50.9,8.1c-13.9,4.8-33,15.1-37,20
	C351.1,280.7,351.9,280.5,362.1,275.3z M1256,279.1c0-1.4-11.2-8.8-20.6-13.5c-8.4-4.2-20.1-8.5-37.4-13.7
	c-10.2-3.1-25.7-3.2-35-0.4c-5.5,1.7-9.4,2-25,2c-16.4,0-19.2-0.3-25-2.2c-6.1-2.1-6.4-2.1-4-0.3c1.4,1.1,5.7,3.5,9.6,5.4
	c6.5,3.1,9.8,4.5,26.9,11.2c3.3,1.3,10.7,3.5,16.5,4.9c13.3,3.2,24.2,3.3,37,0.3c7.2-1.6,12.9-2.2,23.6-2.2l14-0.1l9,4.6
	C1255.4,280.2,1256,280.4,1256,279.1z M356.2,263.6c3.2-3.8,8.6-11.2,12.1-16.5c24.2-36.5,30.3-48,31.8-59.2
	c1.7-12.8,8.2-30,14.8-38.9c4.1-5.6,9-10.9,14.3-15.6c2.7-2.4,4.6-4.4,4.3-4.4c-0.4,0-3.7,1.8-7.3,3.9
	c-15.5,9.2-39.4,31.5-48.8,45.6c-8,12.1-11,22.1-12.5,41.9c-1.8,24-4.3,32.7-13.4,45.1C345.3,274,348.6,272.7,356.2,263.6z
	 M1255.6,263.3c-8.2-12.5-10.4-20.6-12.5-46.3c-1.3-15.1-3-22.2-7.7-31c-9.1-17.3-34.8-42.7-54.8-54l-5.8-3.3l7.9,7.9
	c8.4,8.3,14.4,16.6,18.1,24.9c3.4,7.7,7,20.3,8.1,28.3c1.3,9.9,8.6,23.5,30,55.5c8.6,12.9,19.7,26.4,20.8,25.4
	C1259.9,270.4,1258.1,267.1,1255.6,263.3z M501,237.9c9-2,23.5-6.1,31-8.6c6.1-2.1,18.1-7.5,17.7-7.9c-0.2-0.2-3.5,0.3-7.3,1.1
	c-14,3-36.7,0.6-53.2-5.5c-3.5-1.4-7.8-2-12.9-2c-15.3,0-53.7,9.7-64.7,16.4c-1.1,0.7-4.3,2.5-6.9,4c-2.7,1.5-4.7,3-4.4,3.2
	c0.2,0.2,4.6-1.2,9.8-3.2c8.4-3.3,10.4-3.7,18.4-3.6c8.7,0,20.9,2.2,31.8,5.8C471,241.1,486.2,241.2,501,237.9z M1152.5,236.3
	c23.1-6.1,33.4-6.2,47.4-0.4c8.6,3.6,8.8,3.6,7,1.4c-2.2-2.7-20.5-10.8-31.9-14.2c-15.1-4.4-34.8-8.1-43.4-8.1
	c-5.3,0-9.1,0.6-12.8,2.1c-14.9,5.9-39,8.4-52.8,5.5c-3.6-0.8-6.6-1.3-6.8-1.2c-0.1,0.2,2.2,1.4,5,2.8c11.6,5.7,42.1,14.4,55.3,15.8
	C1129.9,241.1,1138,240.2,1152.5,236.3z M410.6,218.8c6-6.2,13.2-14.2,15.9-17.8c2.7-3.6,7.7-9.9,11.1-14c9.7-11.8,17.3-23.9,19-30
	c2.5-9.2,4.5-14.1,9.3-23.5c5.4-10.6,13.2-19.9,22.9-27.5c3.9-3,6.9-5.6,6.7-5.8c-0.6-0.6-18.7,9.2-24.7,13.4
	c-10.4,7.2-22.4,17.3-29.9,25.1c-12.3,12.7-18.1,24.7-20.9,42.8c-1.4,9.3-5.8,24.2-8.8,30.2c-1.2,2.3-4.3,6.8-7,10
	c-5.7,6.8-6.6,8.3-5.4,8.3C399.3,230,404.6,224.9,410.6,218.8z M1207.8,226c-11.5-14-14.5-20.9-19.3-44.5
	c-3.7-17.7-5.5-22.6-11.6-31.8c-9.3-13.8-36-35.9-54.7-45.2c-5-2.5-9.4-4.5-9.7-4.5c-0.4,0,1.9,1.9,5.1,4.3
	c16.5,12.2,27.1,28.1,33.8,50.7c1.7,5.9,4,10.7,7.4,15.7c8.7,12.6,32.4,41.6,41.3,50.6C1209.1,230.3,1213.7,233.1,1207.8,226z
	 M546.2,211.1c13.8-1.5,44.8-8.8,50.3-11.8c0.8-0.5-4.5-0.7-11.8-0.5c-12.2,0.4-14.1,0.2-25.5-2.8c-6.7-1.7-14.8-4.3-18-5.8
	c-7.5-3.4-20-4-37.8-1.8c-21.5,2.8-45.6,9.6-51.6,14.7l-2.3,1.8l3.5-1c15.3-4.8,18.1-5.2,28.4-3.9c6.7,0.9,14,2.7,22.5,5.7
	C520.9,211.7,529.5,212.8,546.2,211.1z M1100.9,206.8c15.8-5.5,22.1-6.9,32.6-7c7.3-0.1,10.5,0.3,17,2.5c8.8,2.9,10.7,2.9,4.8-0.1
	c-12.9-6.6-29.2-11.1-49.7-13.7c-18.6-2.4-30.1-1.8-39.6,2.1c-4.1,1.7-12.4,4.4-18.4,5.9c-10,2.5-12.2,2.7-24.3,2.3
	c-7.3-0.3-13.3-0.3-13.3-0.2c0,0.9,21.1,6.8,33.5,9.3c18.4,3.7,21.2,4,34.9,3.5C1088,211,1090.7,210.5,1100.9,206.8z M457.5,190.1
	c7.6-5.7,32-29.5,43.6-42.5c8.5-9.5,10-11.9,17-27.1c6.8-14.7,18.1-28.1,30.8-36.6c9-6,9.4-6.4,6.1-5.4c-14,4.1-43.2,21.6-56.5,33.8
	c-11.7,10.6-16.8,18.8-21.6,34.6c-3.5,11.4-8.4,24-11.6,29.7c-1.3,2.3-5.5,7.3-9.3,11c-3.9,3.8-7,7.3-7,7.7
	C449,196.4,450.2,195.6,457.5,190.1z M1159.9,195.6c-0.2-0.3-3.8-4-7.9-8.3c-5.3-5.5-8.6-10-11.1-15.3c-3.5-7.2-9.9-25.6-9.9-28.4
	c0-0.8-1.9-5.1-4.1-9.6c-8.4-16.7-31.1-35.8-58.9-49.6c-9.4-4.6-23.7-9.7-17.5-6.2c14.2,8,25.1,17.9,32.9,29.8
	c5.1,7.6,10.6,18.9,10.6,21.4c0,3,11.2,16.2,29.1,34.4c16.8,17,33.9,32.2,36.3,32.2C1159.9,196,1160.1,195.8,1159.9,195.6z
	 M532.8,166.5c12.7-2.6,28.7-7.5,36-11c5.4-2.6,9.7-5.7,17-12.7c20.5-19.6,34.7-27.5,50.1-27.9l3.6-0.1l-4.3-1.9
	c-5.9-2.8-16.7-3.8-30.3-2.9c-12.3,0.8-21.4,3.2-29.5,7.7c-6.5,3.6-18.5,13.4-23,19c-5.4,6.5-19.8,18.9-27.4,23.3
	c-5.5,3.3-7.7,4-14.3,4.6c-5,0.4-7.6,1.1-7.4,1.8C504.2,169.2,519.9,169.2,532.8,166.5z M1104.8,167.1c2.2-1.3,1.1-1.6-9-2.9
	c-6.7-0.9-8.6-1.6-14.9-5.8c-4-2.6-14.5-11.8-23.3-20.4c-22.5-21.8-31.3-26.3-54.1-28c-13.8-1-23.2-0.1-29.6,2.8l-4.4,2l4,0.1
	c5.5,0.1,14.5,2.6,20.3,5.5c7.6,3.8,20.9,14.2,29.9,23.2c9.5,9.6,16.3,13.3,33.8,18.4c16.3,4.8,29.7,7,38.3,6.5
	C1099.9,168.2,1103.9,167.6,1104.8,167.1z"/>
<polygon class="st0" points="804.3,410.5 717.2,359.7 717.2,460.4 "/>
<polygon class="st0" points="804.3,410.5 892.4,359.7 892.4,460.4 "/>
<circle class="st0" cx="804.3" cy="410.5" r="17.6"/>
<polygon class="st0" points="800.3,1275.7 610.5,474.3 409.9,572.2 "/>
<polygon class="st0" points="808.3,1277 998.2,475.6 1198.7,573.5 "/>
<circle class="st2" cx="809.4" cy="585.1" r="21.5"/>
<circle class="st2" cx="809.4" cy="700.5" r="21.5"/>
<circle class="st2" cx="809.4" cy="817" r="21.5"/>
<path class="st3" d="M808.3,1118.2c1.4-2.4,3.4-6.1,5.2-8.2c18.2-21.2,36.4-42.4,54.8-63.4c6.6-7.5,8.6-16,7.6-25.9
	c-1.9-19.2-3.3-38.4-4.8-57.6c-4-49.9-7.9-99.8-12.2-149.7c-4.2-49.2-8.4-98.5-13.5-147.6c-2.5-23.8-7.1-47.4-10.5-71.1
	c-0.4-2.7,1.2-5.8,2.3-8.6c7.6-19.3,16.1-38.3,22.6-57.9c3.6-10.8-1.5-17.7-12.6-21c-6.5-1.9-12.5-2.7-18.6-4h-20.3H788
	c-6.2,1.3-12.5,2.2-18.6,4c-11.1,3.3-16.2,10.2-12.6,21c6.5,19.6,15,38.6,22.6,57.9c1.1,2.8,2.7,5.9,2.3,8.6
	c-3.3,23.7-8,47.3-10.5,71.1c-5.1,49.1-9.3,98.4-13.5,147.6c-4.3,49.9-8.1,99.8-12.2,149.7c-1.6,19.2-2.9,38.4-4.8,57.6
	c-1,9.9,1,18.3,7.6,25.9c18.4,21.1,36.6,42.2,54.8,63.4C804.9,1112.1,807,1115.8,808.3,1118.2"/>
<rect x="360" y="591.8" width="870.7" height="385.2"/>
<g id="layer1" class="st1">
	<path class="st4" d="M536.7,1472c-31.6-4.4-60.1-11.4-80.2-19.7c-12.2-5-26-12.2-25.1-13c0.3-0.3,4,0.6,8.3,2
		c23,7.6,52.1,9.2,75.2,4.3c18.1-3.8,37.3-10.2,47.6-15.6c5-2.7,11.5-5.8,14.5-7c8.1-3.2,27.6-6.7,52.5-9.5
		c31.6-3.5,46.7-5.4,57.5-7c5.2-0.8,20.8-2.4,34.5-3.6c13.8-1.2,25.1-2.2,25.2-2.3c0.2-0.1-0.2-1.8-0.7-3.7c-0.6-1.8-1-6.2-1-9.5
		c0-5.9-0.1-6.2-2.7-6.8c-26.2-6.3-67.4-27.1-94.2-47.6c-8.9-6.8-20.6-18.7-24.5-24.8c-1.5-2.4-4.5-9.3-6.6-15.3
		c-5.5-15.1-18.9-42.4-26.8-54.4c-4.3-6.4-10.6-14-17.8-21.2c-6.2-6.2-10.9-11.3-10.6-11.3c2.3,0,23.6,11.8,33.2,18.3
		c42.3,28.7,49.2,34,63.8,49.1c12.3,12.9,17.6,20.2,29.2,41.1c4.6,8.3,9.9,17.3,11.7,20c5.9,8.6,17.2,21.2,24.1,26.8
		c7.6,6.2,17.9,12.7,20.2,12.7c1,0,2.1-2.2,3.4-6.7c7.5-26.9,32-45.2,60.4-45.3c28,0,50.2,15.8,60.1,42.8c1.3,3.4,2.6,6.2,2.8,6.2
		c0.3,0,2.8-1.6,5.7-3.5c7.5-4.9,17.4-14.3,24.8-23.3c7.3-8.8,9.8-12.6,19.8-30.7c9.9-17.7,14.5-24.5,23.2-34.5
		c11.5-13.1,23.4-23.2,45.2-38.2c32.8-22.7,42.6-28.7,54.1-33.2c3.8-1.5,3.7-1.2-4.1,6.2c-15.7,14.9-24.1,27-35.9,51.6
		c-4.5,9.4-9.9,21.8-12,27.6c-5.8,16.2-10.9,23.3-25.5,35.4c-23.2,19.4-61.5,40.5-88.2,48.6l-6.8,2.1v7.2c0,4-0.4,8.9-0.9,11
		c-0.7,2.7-0.6,3.9,0.2,4.2c0.7,0.1,10.4,1,21.7,2c11.3,0.9,26.4,2.5,33.5,3.5c7.2,1.1,23.4,3.1,36,4.5c34.2,3.8,39,4.4,50.8,6.6
		c13.9,2.6,22.4,5.6,31.8,10.9c12,6.8,30.5,12.9,51.9,17.2c22,4.3,52.2,2.2,74.7-5.3c3.6-1.1,6.6-1.9,6.8-1.7
		c0.8,0.7-18.8,10.6-28,14.1c-29.6,11.3-68.2,19.2-100.5,20.4c-26.9,0.9-50-2.8-69.5-11.4c-9.3-4.1-14.5-7.1-35.5-20.8
		c-17-11.2-36.3-21.7-49.3-26.9c-8.1-3.3-26.4-8.4-27-7.5c-0.2,0.2-2,3.5-4.1,7.3c-5,9.3-9.6,14.7-17.5,20.6
		c-13.4,10.1-30.3,14.5-46.7,12.2c-21.8-3.2-38.4-15.5-48.8-36l-2.7-5.4l-4.2,0.7c-11.7,1.8-23.4,5.3-34.2,10
		c-19,8.4-28,13.7-60,34.8c-11.7,7.7-24.8,13.5-41.1,18.2C593.3,1473.7,558.1,1475,536.7,1472z"/>
	<path class="st4" d="M447.5,1414.4c-17.2-1.9-36.1-6.3-52-12.3c-34-12.7-55.4-23.8-74.2-38.7c-7.9-6.2-8.6-7.9-1.9-4.3
		c20.3,11,43.2,16.9,65.6,16.9c19.7,0,36.6-2.4,50.9-7.3l12.6-4.2l22.5,0.1c13.1,0,29.4,0.7,39,1.7c9.1,0.9,25.9,2.1,37.4,2.7
		c19,1,53.5,4.7,64.6,7c2.5,0.5,6.1,1.6,8,2.5c3.3,1.5,2.4,1.6-16.1,1c-21.4-0.6-29.2,0.1-42.9,4.1c-16.9,5-30.1,9.9-46.5,17.4
		c-11.5,5.2-22.4,9-32,11C473.3,1413.9,454.8,1415.1,447.5,1414.4z"/>
	<path class="st4" d="M1137.8,1414c-17.2-2.1-28.2-5.8-57.1-18.9c-10.3-4.7-37.1-13-47.2-14.6c-6.8-1.2-13.7-1.4-28.5-1
		c-17.3,0.5-19.2,0.4-17-0.8c1.4-0.8,5-2,8-2.6c11.8-2.4,46.5-6.2,65.5-7.1c11-0.6,27.7-1.8,37-2.7c9.7-0.9,26.5-1.7,39-1.7l22-0.1
		l13,4.3c10.2,3.4,15.9,4.6,26.5,5.7c35.2,3.8,57.9,0.2,85.6-13.4l11.9-5.9l-5.5,5c-5.6,5-23.6,17.3-32.4,22.1
		c-13.8,7.6-41.7,19-60.5,24.8C1179.6,1412.8,1152.6,1415.9,1137.8,1414z"/>
	<path class="st4" d="M628,1365.3c-28.6-9.9-51.9-25.4-79.5-52.7c-27.3-27-35.7-41.5-38-65.1c-0.8-8.8-5.7-30.8-9.7-44
		c-3.8-12.7-10.2-25.7-17.8-36.2c-3.2-4.6-5.6-8.3-5.3-8.3c1.8,0,16.9,12.5,24.8,20.5c14,14.1,33.8,36.2,40.4,44.9
		c11.8,15.6,19.6,32,24.9,52.1c7.4,27.8,12.9,41.6,22.3,55.5c7.1,10.6,13.4,16,29.4,25c6.1,3.5,11.9,6.9,13,7.6
		c1.9,1.4,1.9,1.4-0.5,1.3C630.6,1365.9,628.8,1365.6,628,1365.3z"/>
	<path class="st4" d="M975,1365.5c0-0.2,3-2.2,6.8-4.3c3.7-2.1,10.1-5.9,14.2-8.2c4.1-2.4,9.6-6.3,12.2-8.7
		c10.8-10.1,22.1-31,27.8-51.3c7.8-27.8,9.5-33.1,14-42.7c8.6-18.4,17.9-30.6,43.4-57.6c16.7-17.7,28.2-28.3,34.9-32.2l3.2-1.9
		l-1.5,2.1c-15.5,22.2-20.2,32.3-25.8,55.8c-5.1,21.4-6.1,26.5-7.2,37c-1.7,15.7-8.9,29-25.2,47.1c-22.1,24.4-45.8,43.5-67.7,54.4
		C988.5,1362.9,975,1367.7,975,1365.5z"/>
	<path class="st4" d="M340.5,1337.6c-17-3.8-35.5-11.2-50-20.1c-2.7-1.7-6.1-3.7-7.4-4.5c-7.7-4.6-28-18.6-32.9-22.7
		c-7.2-6-21.7-20.5-26.2-26.2c-3.9-5-3.4-4.8,7.1,3.1c8.8,6.5,23.3,14.5,33.2,18.2c9.5,3.6,25.7,6.5,41.7,7.6
		c11.5,0.7,15.5,0.6,26.4-1c10.7-1.6,14.2-1.8,20.5-0.9c10.4,1.4,23.4,4.2,37.1,7.9c6.3,1.7,18.7,4.8,27.5,7.1
		c26.6,6.7,31.4,8,47.5,13c23.6,7.5,34.3,11.9,32.6,13.6c-0.5,0.5-14-2.2-23-4.7c-14.3-4-44.5-1.7-71.1,5.4
		C376.7,1340.6,359.3,1341.8,340.5,1337.6z"/>
	<path class="st4" d="M1220,1337.1c-6.9-1.5-14.1-3.2-16-3.9c-9.7-3.2-31.1-6.4-46.5-6.9s-16.5-0.4-27.5,2.5
		c-15,3.9-20.5,4.8-19.5,3.2c2.3-3.7,34.6-14.3,74.5-24.4c14-3.6,29.8-7.6,35-9.1c11.2-3,26.8-6.2,36.3-7.4
		c6.3-0.9,10.5-0.6,26.2,1.8c7.8,1.2,31.7-0.4,44.3-2.8c18-3.6,35.3-11.4,51.2-23.2c4.9-3.7,9-6.6,9-6.4c0,0.5-10.3,12.6-14.6,17.1
		c-12.3,12.9-45.9,36.3-68.1,47.3c-19.8,9.8-37.3,14.3-57.3,14.7C1234.1,1339.9,1231.1,1339.6,1220,1337.1z"/>
	<path class="st4" d="M502.4,1317.7c-6.7-4.3-16.5-12-24.2-19.2c-18-16.6-44-55.7-51.8-78l-2.9-8l0.3-28c0.2-16.7-0.1-31.6-0.8-37
		c-1.9-15-6.3-30.2-12.2-41.8c-1.1-2.2-1.7-4.1-1.5-4.3c1.3-1.4,17.2,19,26.2,33.6c3.2,5.2,7.3,11.8,9,14.5
		c11.8,18.5,18.9,34.9,23.1,53c2,8.5,2.8,15.5,3.4,30.5c0.5,10.7,1.3,21.9,1.9,24.7c2.6,13.3,5.5,22.5,9.6,30.9
		c4.4,9.2,7.3,12.5,24.5,28.2c3.6,3.3,4.1,4.1,2.5,4.1C508.4,1320.9,505.2,1319.5,502.4,1317.7z"/>
	<path class="st4" d="M1109.6,1309.2c9.8-9.4,12.8-13,15.7-18.7c7.3-14.6,11-31.7,12.2-56c1.8-36.9,6.8-52.6,27.3-86
		c17.5-28.5,26-40.4,32.6-45.6c2.4-1.9,2.4-1.6-1.3,6.4c-5.1,11.1-8.9,24.3-10.2,35.2c-0.8,7.6-1,27.5-0.7,59
		c0.2,15-10,36.7-32.6,68.9c-4.9,7.1-15,18.6-22.7,26.2c-11.8,11.3-26.9,22.4-30.5,22.4C1098.1,1321,1101.2,1317.4,1109.6,1309.2z"
		/>
	<path class="st4" d="M393,1267.3c-0.8-0.3-6.8-2.9-13.2-5.9c-6.5-2.9-15.2-6-19.5-6.9c-11.2-2.3-34.2-3-50.3-1.5
		c-37.2,3.5-57.5-1.2-85.5-19.5c-17-11.1-46.1-38.2-57.8-53.8c-5.6-7.4-14-20.8-13.4-21.3c0.2-0.2,4.3,3.6,9.3,8.4
		c23.3,22.6,51.8,34.2,88.9,36.2c13.6,0.7,15.9,1.1,24.5,4.3c11.3,4.2,15.1,5.7,25,10.4c4.1,1.9,17.7,8.2,30.2,13.9
		c32.5,14.8,62.7,31.2,64.1,34.9C396,1268.1,395.5,1268.2,393,1267.3z"/>
	<path class="st4" d="M1215,1265c7.2-6.4,39-23.4,63.4-34c6.1-2.6,18.5-8.3,27.6-12.5c9.1-4.3,21-9.3,26.5-11.3
		c8.9-3.1,11.6-3.5,24.5-4.2c28.9-1.5,55.7-10.2,74.8-24.2c3.2-2.3,9.9-8.2,15-13.2c5-4.9,9.2-8.6,9.2-8.2c0,1.4-7,12.4-13.2,20.8
		c-13.5,18.2-43.4,45.8-63,58.1c-17.9,11.3-38.9,17.8-57.8,17.9c-5.2,0-15.6-0.5-23-1.2c-16.1-1.5-39.1-0.8-50.5,1.5
		c-4.4,0.9-13.4,4.1-20,7s-13.1,5.6-14.5,5.9C1211.7,1268,1211.8,1267.8,1215,1265z"/>
	<path class="st4" d="M399.3,1250.5c-17-17.5-28.9-38.3-41.8-73c-7.9-21.2-9.9-39.1-5.7-52c4.2-13.2,7.2-35.3,7.2-53.1
		c0-14.6-0.3-17.3-2.9-27.3c-1.6-6.1-2.7-11.1-2.6-11.1c0.9,0,10.7,16.5,13.4,22.5c6.4,14,18,44.2,20.5,53.5
		c5.3,19.6,5.7,38.3,1.5,64.5c-1.7,10.5-2,15.8-1.6,27.5c0.8,23.5,3.1,29.6,19.2,51.8c2.6,3.5,4,6.2,3.3,6.2
		C409.1,1260,404.3,1255.7,399.3,1250.5z"/>
	<path class="st4" d="M1199,1258c0.7-1.3,3.9-5.9,7.3-10.4c10.4-14,13.6-23.4,15.2-44.1c0.5-7,0.1-13.6-2.1-30
		c-3.9-30.6-3.4-44.6,2.3-65.5c2.6-9.6,14.7-40.7,20.5-52.9c3.5-7.4,11.8-20.4,12.5-19.7c0.2,0.2-0.3,2.5-1.1,5
		c-2.4,7.1-4.6,22.1-4.6,31.6c0,12.4,3.6,38.8,7,51.6c3.5,12.9,3.7,18.8,1.1,32.2c-4.1,20.9-18.5,55.1-31.3,74.2
		c-7.2,10.6-20.5,25.9-24.7,28.4l-3.3,1.8L1199,1258z"/>
	<path class="st4" d="M1295.3,1188.7c4.1-6.4,27.5-25.3,49.2-39.9c8.3-5.6,19.3-13.1,24.5-16.7c25.7-18,35.9-23.1,51.5-26.1
		c18.1-3.6,40.5-13.2,53.6-23c8.4-6.3,21.7-20.3,27.5-28.9c2.4-3.6,4.4-6,4.4-5.4c0,2.1-7.9,19.6-12.2,26.8
		c-5.7,9.7-11.6,18-22.4,31.5c-14.6,18.2-26.5,29.6-39.9,38.2c-16.4,10.6-27.7,14.2-50.5,16.3c-37.6,3.5-55.7,8.3-70.5,18.7
		c-4.1,2.9-12.8,8.7-15.5,10.3C1293.8,1191.2,1293.9,1190.8,1295.3,1188.7z"/>
	<path class="st4" d="M307,1186.4c-3-2-7.5-5.1-10-6.9c-13.2-9.6-32.2-14.5-69.1-17.9c-27.3-2.6-40.9-7.9-60.9-23.7
		c-23.7-18.7-53.9-59.2-62.9-84.4c-1.4-4.2-1.6-5.4-0.6-4c0.9,1.1,4.6,6.1,8.4,11.1c7.4,9.8,16.4,18.4,25.1,24.3
		c13.5,9.1,34.5,18,48.6,20.6c18.2,3.3,24.9,6.7,57.3,28.9c6.1,4.2,16.2,11,22.4,15.3c6.1,4.2,15.3,10.7,20.2,14.4
		C307.7,1180.9,323.6,1197.3,307,1186.4z"/>
	<path class="st4" d="M1280,1184.7c0-0.3,2.4-5.9,5.4-12.4c7-15.3,7.6-17.7,7.6-30.5c0-13.4-2.6-27-8.4-44.5
		c-6.7-20.1-8-27.4-8.1-44.8c0-15.4,0.8-21.9,5.1-41c5.4-24.1,10.9-41.7,15.1-48c1.2-1.8,1.3-1.6,0.6,1.5c-0.5,1.9-0.8,10.5-0.8,19
		c0.1,12.8,0.5,17,2.3,24c4,14.8,10.1,32.8,13.3,39.1c7.8,15.5,7.7,36.5-0.2,69.8c-6.1,25.6-12.4,41.2-23.4,58.1
		C1284.7,1180.9,1280,1186.2,1280,1184.7z"/>
	<path class="st4" d="M325.8,1182.7c-3.8-2.9-14.2-20.9-19.3-33.2c-7.4-17.9-14.8-50.5-16.1-71c-0.8-11.3,1.1-20.5,6.5-32.3
		c4.6-10.1,11.2-31,13.7-43.2c1.8-9.2,2.3-23.7,1.1-34c-0.7-6-0.6-6.3,0.8-4c4.4,7.5,7.7,18.5,15.5,51.5c3.2,13.6,4.3,26,3.7,42
		c-0.5,13.5-1,16.2-4.2,27c-9.8,32.3-10.5,35.1-11.5,46.5c-1.5,17.3-0.4,24,6.4,38.9c3.2,6.7,5.6,12.5,5.3,12.7
		C327.5,1183.8,326.6,1183.4,325.8,1182.7z"/>
	<path class="st4" d="M238.7,1094.2c-5.8-5.5-13.2-11.4-16.4-13.1c-10.9-6-26.4-11.5-47-16.7c-8.1-2-17.8-5-21.7-6.6
		c-17-7.2-35.8-23.8-48.7-43.3c-11.1-16.6-22.5-38.1-28.7-54c-1.4-3.5-6.2-21.8-5.9-22.2c0.2-0.1,1.8,2.8,3.7,6.5
		c9.4,18.7,22.7,33.9,39,44.7c13.3,8.8,21.2,12.9,31,16.1c5.5,1.8,11.6,4.9,17.2,8.6c10.3,6.9,58.2,51.7,73,68.3
		c9.7,10.8,16.5,20.1,15.6,21.1C249.5,1103.8,244.5,1099.6,238.7,1094.2z"/>
	<path class="st4" d="M1359,1102.7c0-8.4,78.7-85.2,95.4-93.1c2.8-1.3,8-3.4,11.6-4.5c8.2-2.7,23.3-10.9,34-18.7
		c13.7-9.8,25.1-23.4,33.1-39.3c2.2-4.5,4.2-8.1,4.4-7.9c0.6,0.6-3.1,15.2-5.7,22.3c-4.1,10.9-12.5,28.1-19.3,39
		c-10.1,16.3-11.6,18.6-19,27.4c-15.2,18.3-32.3,29.2-55,35.1c-22.3,5.8-27,7.2-36,10.7c-12.9,5-19.3,8.5-25.5,13.8
		c-3,2.6-5.9,5.3-6.5,6c-0.5,0.6-3.4,3.3-6.2,6C1360.8,1102.6,1359,1103.7,1359,1102.7z"/>
	<path class="st4" d="M262.8,1099.3c-5.1-5.8-12.2-26.7-15.3-45c-1.7-9.9-2.7-20.3-3.1-33.1c-1-29.2,1.2-40.9,10.6-55.2
		c6.8-10.4,17.4-32.9,21-44.5c2.3-7.5,3.2-12.8,3.8-22.4l0.7-12.6l2.3,6.8c2.6,8,3.5,13.8,5.8,38.2c1.9,21.2,1.5,37.5-1.6,51.5
		c-2.5,11.6-4.3,16.4-13.5,35c-8.9,17.9-10.9,23.1-13.5,34.3c-3.4,14.9-2.9,21.8,3.5,44C265,1101.5,265,1101.8,262.8,1099.3z"/>
	<path class="st4" d="M1344,1100.5c0-0.5,1.3-5.5,2.9-11c3.9-13.5,4.4-18.7,3.1-28.6c-1.7-12.6-5.9-24.5-15.9-44.9
		c-11.7-24.1-14.1-32.7-14.8-54c-0.9-25.3,2.6-60.5,7.1-71c1.2-3,1.3-2.7,1.9,6.2c0.8,11.5,2.9,22.2,6.4,31.3
		c3.8,9.9,13.7,29.6,19,37.7c5.6,8.7,6.7,11.4,8.6,20.8c2.4,12,3,23.4,1.8,39c-2.4,29.9-5.5,45.2-12.8,62.5
		C1348.2,1096,1344.1,1102.7,1344,1100.5z"/>
	<path class="st4" d="M1405,1013.6c0-2.1,7.7-15.8,14.4-25.6c6-8.9,35.6-46.6,46.8-59.7c10.3-12.1,16.4-17.1,26.8-22.3
		c14-7,32.6-22.7,42-35.5c4.9-6.6,12.8-22,15.6-30.5c2.6-7.6,3-3.7,1,9c-2.6,15.9-14.2,48.1-23.9,66.4
		c-5.5,10.4-14.6,22.2-23.2,30.4c-10.1,9.6-19,14.8-37.5,22.2c-17.7,7-36.4,17.7-43.9,25.1c-1.9,1.9-5.1,5.7-7.1,8.4
		C1409.2,1010.7,1405,1015.3,1405,1013.6z"/>
	<path class="st4" d="M198,1008.6c-10.5-13.6-12.2-15.5-17.3-19.5c-6.4-4.9-25.8-15.7-34.2-19.1c-12.5-4.9-26-11.3-30.4-14.3
		c-10.6-7.1-19.9-16.7-28.7-29.2c-7.1-10.1-17.9-33.9-24.5-54c-3.5-10.3-7.8-31.1-7.9-37c0-3.6,0.4-2.9,3.4,5.5
		c4,11.6,7.1,17.7,13.7,27.5c9.1,13.4,29.1,30.6,44.9,38.5c10.7,5.4,20,14.2,35.8,34c6.4,8,15.4,19.2,20,25
		c8.5,10.7,22.8,31.5,27.6,40.4C204.6,1014.1,203.2,1015.4,198,1008.6z"/>
	<path class="st4" d="M216,1011.6c-2.2-2.8-6-19.9-7.1-32.7c-2-22.3,1.3-58.5,6.8-74.8c2.6-7.8,5.9-13.3,11.5-19.6
		c5.7-6.3,19.8-26.8,23.7-34.4c4.3-8.5,7.3-17.7,9-27.6l1.8-10l1.1,5c2.1,9.2,2.4,19.2,1.2,36.2c-3,44.2-7.7,58.3-29.1,87
		c-5.4,7.3-11.6,18.9-15.4,28.8c-3.8,10-4.6,17.8-3.1,31.5c0.7,6.3,1.2,11.6,1.1,11.8C217.4,1012.9,216.7,1012.4,216,1011.6z"/>
	<path class="st4" d="M1391.4,1007.9c0.3-3,0.9-9.8,1.3-15.1c0.5-8.7,0.3-10.6-2.2-18.5c-3.3-11-10.2-24.1-18.6-35.8
		c-15.2-21.2-20.1-31.8-23.9-51.5c-3.8-19.3-5.1-61.9-2.2-71.5c0.8-2.9,0.9-2.9,1.6,2c1.4,9.7,4.7,20.7,8.6,28.9
		c4.9,10.4,18,30,25.9,39c6.7,7.6,11.1,16.9,13.6,28.8c5.1,23.9,6.2,58.5,2.5,77.3c-2.4,12.5-4.7,20.2-6.2,21.1
		C1391,1013.1,1390.9,1011.6,1391.4,1007.9z"/>
	<path class="st4" d="M183.1,918.5c-2.2-7.3-2.5-29.8-0.7-42.5c1.9-13.6,6.7-34.5,10.3-45c4.9-14.4,7.7-18.6,21.2-32
		c21.3-21.1,30.7-34.6,36.2-51.7c1.3-4,2.7-7.3,3.1-7.3c3.5,0-4.3,49.8-10.7,68.8c-5.9,17.1-12.7,27.7-29.6,45.7
		c-11.6,12.5-19.9,24.5-24,34.9c-2.5,6.2-2.8,8.6-2.9,18.1c-0.1,6.1-0.5,11.9-0.9,13C184.4,922.2,184.1,921.9,183.1,918.5z"/>
	<path class="st4" d="M1423,911.1c0-21.3-7.6-36.1-31.5-61.1c-11.6-12.1-17.8-21.6-23.8-36.5c-5.8-14.2-12.7-49.9-12.7-65.6v-10.4
		l3.4,9.5c3.4,9.9,7.4,18.3,11,23.5c6.6,9.4,20.3,24.5,29.6,32.6c10.8,9.4,16.4,21.8,23.7,53.4c3.6,15.8,3.7,16.3,3.7,38
		c0.1,21.5-0.4,27.5-2.4,27.5C1423.4,922,1423,917.6,1423,911.1z"/>
	<path class="st4" d="M164.3,910.5c-9-16.1-19.3-25.6-42.3-39.5c-22.4-13.4-28.9-18.6-37.3-29.5c-12.2-15.7-20-35-27.3-67.2
		c-2.9-12.9-4.8-34-3.6-40.3l0.8-4.5l0.8,5.9c1,7.3,6.3,23,10.7,31.1c7.1,13.5,23.3,31.4,37.2,41.2c11.6,8.2,17.4,16.1,39.8,54.2
		c17.5,29.7,28.4,52.4,27.7,57.3C170.5,921,169,918.9,164.3,910.5z"/>
	<path class="st4" d="M1437,919.9c0-5,13.4-32.7,26.8-55.4c5.5-9.3,11.1-18.8,12.4-21c5.8-9.8,15.9-24.3,19.5-27.8
		c2.1-2.2,7.2-6.3,11.4-9.3c8.6-6,21.5-19.2,28.5-29c8.2-11.5,14.8-27.4,18.4-44.5c0.7-3.2,0.8-0.3,0.6,11.1
		c-0.4,16.1-1.9,25.5-7.2,45c-11.8,43.1-25.4,61.9-57.9,80.1c-12.6,7-29.6,19.8-36.1,27.2c-2.2,2.5-6.2,8.6-8.9,13.7
		C1439.4,919.3,1437,922.5,1437,919.9z"/>
	<path class="st4" d="M164.5,828.8c-0.9-4.7,1-23.4,3.4-34.4c4.6-20.4,17.4-51.8,25.8-62.9c2.3-3,7-7.1,11.7-10.2
		c4.3-2.9,9.3-6.5,11-8s6.6-5.9,10.9-9.7c9.8-8.6,15.9-16.5,21.9-28.4c4.4-8.5,4.8-9,4.8-5.7c0,9.6-11.5,47.6-19,62.6
		c-7.8,15.7-15,24.3-31.5,37.4c-11.9,9.5-20.6,18.4-26.1,26.6c-6,9-7.1,12-9,24.1C166.5,831.6,165.5,834,164.5,828.8z"/>
	<path class="st4" d="M1441.7,829.8c-0.4-1.3-1.3-6.7-2.1-12.1c-2.5-16.7-10.9-28.5-33.6-47.4c-18.8-15.6-24.9-22.7-32.7-38.6
		c-7-14.1-17.7-48.6-18.8-60.7l-0.6-6.5l4,8.2c2.1,4.5,5.4,10.3,7.2,13c6.8,10,25.7,27.7,37.4,35c8.9,5.7,15.6,13.9,21.7,26.9
		c12,25.6,19.8,55.4,19.8,75.1C1444,830.1,1442.7,834,1441.7,829.8z"/>
	<path class="st4" d="M1455,827.5c0-5.1,7.1-29,12-40.5c4.5-10.5,12.3-28.9,14.2-33.5c9.7-23.2,14.6-31.1,26.6-43.2
		c20.9-21,32.6-44.9,34.9-70.8c1.2-14.6,2.7-3.9,2.7,20c0,19.5-0.3,23.7-2.7,37.1c-6.6,37-17.2,55.6-42.7,74.8
		c-10.8,8.2-21,17.6-27.4,25.4c-5.1,6.3-7.8,11.4-14.9,27.7C1455.4,829.7,1455,830.1,1455,827.5z"/>
	<path class="st4" d="M152.3,827.9c-0.6-0.8-2.7-5.7-4.8-10.9s-5.1-11.5-6.8-14c-5.1-7.6-18.5-20.7-33.3-32.5
		c-7.8-6.3-15.9-13.5-18-16.2c-15.3-18.7-22.4-40.2-26-78.3c-1.4-14.7-1.5-19.3-0.4-29.4c1.4-14.4,2.9-18.4,3-7.9
		c0,10.3,5,28.6,10.5,39.1c6.4,12,15.6,24.3,25.2,33.5c9.8,9.6,14.1,16.3,22.7,35.8c17.7,40.3,23.1,54.2,27.6,71.8
		C154.2,827.4,154.3,830.3,152.3,827.9z"/>
	<path class="st4" d="M159.4,737.5c0.7-14.3,6-30.6,16.9-52c12.2-24,22.8-36.8,35.1-42.4c8.6-3.9,26.3-16,34-23.1
		c3.5-3.4,9.2-10.2,12.6-15.3c3.4-5.1,6-8.3,5.7-7.2s-1.3,4.7-2.1,8.1c-2,7.9-5.7,16.8-14.5,34.4c-11.2,22.8-21.8,35.5-38.3,45.7
		c-22.6,14.1-32.5,22.4-39.4,32.8c-1.8,2.8-4.4,9.1-5.9,14C159.5,746,158.9,746.7,159.4,737.5z"/>
	<path class="st4" d="M1448.1,742.3c-0.5-1-1.9-5.5-3.1-9.9c-3.8-14.1-14.3-26.9-30.9-37.5c-4.2-2.7-11.5-7.3-16.3-10.4
		c-9.8-6.4-20-16.6-27.2-27.4c-9-13.5-25.6-51.9-25.6-59c0-0.9,1.5,0.7,3.2,3.4c4.9,7.6,12.5,16.5,18.2,21.4
		c7.5,6.3,25.2,17.9,32.4,21.2c11.2,5,20.1,16.1,33.2,41.2c10.1,19.4,16,37.1,17.7,53C1450.3,744.1,1449.8,745.4,1448.1,742.3z"/>
	<path class="st4" d="M146.3,737c-0.7-1.9-1.9-6.6-2.8-10.3c-3.1-14-10.7-25.5-30.8-46.6c-18.6-19.6-25.4-31.6-30-53.6
		c-1.8-8.5-2.1-13.6-2.1-33.5c-0.1-20.6,0.2-24.9,2.2-34.7c3.4-17.2,3.8-17.3,4.5-2.3c0.7,14.1,2.7,24.4,6.7,34
		c4.1,9.6,12.9,24.3,18.6,31c8.8,10.3,13.4,20.8,20.9,48.5c1.5,5.5,3.6,12.7,4.6,16c5.5,18.1,10.3,43.5,9.7,51.2l-0.3,3.8L146.3,737
		z"/>
	<path class="st4" d="M1460.4,733.5c1.1-12.6,5.3-32.3,10.6-50c1-3.3,3.2-11.2,5-17.5c6.7-24.6,10.8-33.9,20-45
		c9.5-11.6,20.1-32.4,23-45c0.7-3,1.5-11.8,1.9-19.5l0.7-14l1.7,5.5c3,9.1,4.7,25.4,4.7,44.5c0,20.6-1.8,35.3-5.6,47
		c-5.4,16.3-9.3,22.1-26.3,40c-20.1,21.1-27.3,32.2-31.6,48.9C1461.3,741,1459.5,743.3,1460.4,733.5z"/>
	<path class="st4" d="M1439.3,648.4c-8.5-18-15.9-24-46.3-38.3c-20.8-9.7-30.9-18.9-46.2-42.1c-8.5-12.9-18-30.7-19.3-36
		c-0.5-2.2-0.3-2.1,2.2,1c6.6,8.3,13.3,14.5,20.8,19.4c9.4,6.2,26.7,14.7,34.5,17c7.1,2,13.7,7.1,22.7,17.6
		c15.2,17.6,28.4,40.1,34.3,58.2C1446.7,659.9,1445.5,661.4,1439.3,648.4z"/>
	<path class="st4" d="M164,655.4c0-7.8,10.3-31.5,20-45.9c17.7-26.3,28.8-37.3,41.8-41.1c6.9-2,23.6-10.2,32.2-15.9
		c6.2-4.2,17.2-14.7,21.7-21l2.2-3l-1.1,4c-1.9,7.1-8.1,18.6-21.6,39.5c-4.6,7.1-12.2,16.4-18.1,21.8c-8.2,7.6-11.9,9.9-36.1,21.5
		c-12.3,5.9-22.6,13.1-28.2,19.6c-1.9,2.3-5.2,8-7.3,12.8C165,658.1,164,659.4,164,655.4z"/>
	<path class="st4" d="M152.7,650.9c-0.3-1.3-1.3-7.1-2.2-12.9c-2.1-14.6-8.5-27.5-23-46.5c-13.2-17.3-17.2-25.3-20.5-41.5
		c-1.9-9.1-2.1-12.5-1.6-25.5c0.9-25.1,6.1-52,12.3-63.5c1.7-3.2,2.2-3.7,1.8-1.8c-5.5,27.4-0.2,52.4,17,79.8
		c6,9.5,8.4,19.7,14.5,62.5c3.3,23.1,4.9,47.1,3.3,50C153.4,653.1,153.2,653,152.7,650.9z"/>
	<path class="st4" d="M1454.4,651.6c-1.2-3.2,0.4-35,2.5-48.1c6.3-39,7.5-45.6,9.7-52.5c1.3-4.1,4.5-10.9,7.2-15
		c7.8-12.1,14.2-29.1,16.3-42.9c1.1-7.8,0.9-20.9-0.6-31.6l-0.6-4l2.6,5.5c9.1,19,14.3,63.2,10.2,86c-2.7,15.3-6.5,23.3-18.1,39
		c-19.3,25.9-24.5,36.6-26.6,54.7C1455.7,653.2,1455.4,654.3,1454.4,651.6z"/>
	<path class="st4" d="M1427,575.4c-9.8-17.4-19.7-25-42.5-32.4c-24.8-8.1-33.5-12.8-46.3-25.3c-12.6-12.5-30.6-36.1-35-46.1
		c-1.1-2.4,0.1-1.6,5.9,3.8c3.9,3.8,9.9,8.6,13.1,10.7c7.3,4.6,24,11.3,36.5,14.4c11.8,2.9,16.4,5.2,24.9,12.4
		c18.3,15.4,36.7,39.8,44.8,59.3C1432.1,580.9,1431.2,583,1427,575.4z"/>
	<path class="st4" d="M178,578.4c0-3.2,7.3-18,13.5-27.4c11.1-16.8,33.1-39.8,43.5-45.4c2.6-1.4,8.6-3.5,13.2-4.7
		c23.9-5.8,44.1-16.3,54.3-28.2c4.2-4.9,4.4-4.4,0.9,2.6c-5.9,11.7-28.1,39-39,47.9c-11.7,9.5-17.6,12.3-43.1,20.6
		c-10.4,3.4-21.6,9.6-28,15.5c-2.4,2.2-6.6,7.8-9.4,12.3c-2.8,4.6-5.2,8.4-5.5,8.4C178.2,580,178,579.3,178,578.4z"/>
	<path class="st4" d="M168.1,562.9c-0.1-16.8-4.1-28.7-16.8-50.6c-3.1-5.4-6.7-11.9-8-14.5c-6.9-14.3-8.9-34.4-5.4-54.3
		c3.9-21.6,10.9-43.7,17.5-54.9c3-5.1,4.3-5.7,2.5-1c-2,5.3-3.9,18.8-3.9,27.4c0.1,14.7,4.3,32.5,11,45.8c4.8,9.7,5.8,17,7,48.7
		c1.2,30.7,0.1,55.9-2.5,62C168.3,574.2,168.2,573.3,168.1,562.9z"/>
	<path class="st4" d="M1438.6,571.4c-2.8-14.4-3.6-47.6-1.6-76.9c1.3-20.6,2.2-25,6.9-34.3c2.2-4.5,4.5-9.8,5-11.9s1.9-7.6,3.2-12.3
		c3.3-12.4,3.2-31.9-0.4-44c-1.4-4.7-2.4-8.6-2.2-8.8c0.1-0.2,1.4,1.7,2.8,4c10.2,17.4,18.6,48,19.4,70.8
		c0.9,22.5-1.6,32.3-13.4,52.1c-6.4,10.9-12,22.8-15.4,32.7c-1.4,4.2-1.9,8.4-1.9,17.1C1441,571.5,1439.8,577.2,1438.6,571.4z"/>
	<path class="st4" d="M200,507.5c0-1.8,6.6-13.2,11.7-20c7-9.4,25.5-27.4,36.7-35.8c10.6-7.8,18.8-11.4,27.9-12.2
		c9.6-0.9,31.2-6.7,39.1-10.6c3.5-1.7,9.6-5.5,13.5-8.5c5-3.7,6.8-4.7,6-3.1c-2.6,4.8-11.3,14.8-23.6,26.8
		c-21.1,20.7-35.4,28.6-57.6,32c-8.7,1.3-21.4,5.2-28.2,8.6c-8.9,4.5-12.5,7.5-18,14.9C202.3,506.5,200,508.9,200,507.5z"/>
	<path class="st4" d="M1402.2,501.1c-2.9-3.9-7.2-8.6-9.6-10.6c-7.8-6.4-21.8-11.3-44.8-15.9c-9.5-1.8-17.6-5.1-26.6-10.5
		c-8.5-5.1-31.6-26.1-39.7-36.2c-6.4-7.8-9.9-12.9-9-12.9c0.3,0,3.3,2.2,6.5,4.9c3.3,2.8,9.8,6.8,14.5,9c9.4,4.5,28.2,9.6,39,10.5
		c5.4,0.5,8.9,1.5,15.2,4.7c14.3,7.2,41.3,31.4,51,45.9C1408.8,505,1411.4,513.6,1402.2,501.1z"/>
	<path class="st4" d="M192.4,495c2-17.5,1.9-18.3-0.9-29.6c-2.5-9.8-5.1-16.8-10.6-29c-11-24.6-10.4-46.6,2.5-80.8
		c5.5-14.3,13.6-29.3,20.5-37.6c1.9-2.3,1.9-2-0.3,3c-9.8,21.8-10.3,45.5-1.7,72.5c3.6,11.2,3.9,18.1,1.6,39.3
		c-0.8,7.5-1.9,19.3-2.5,26.2c-1.2,13.4-6.2,38.7-8.1,40.4C192,500.2,191.9,499.1,192.4,495z"/>
	<path class="st4" d="M1414.1,496.3c-0.5-2.1-1.7-6.7-2.6-10.1c-2.5-10.1-6.6-48-7.2-67.7c-0.5-17-0.4-18.3,1.7-24
		c6.7-18,8.5-42.7,4.2-58.2c-1.2-4.5-3.4-10.8-4.8-13.9c-3.2-7.2-1.1-5.8,4.9,3.5c5.3,8.1,8.6,14.5,12,23.1
		c10.3,25.9,12.9,36.7,13,52.5c0.1,13.7-1.3,19.6-8.8,37c-2.4,5.5-5.9,14.5-7.7,20c-3.2,9.8-3.3,10.4-3.1,25.8
		c0.1,8.6,0,15.7-0.2,15.7S1414.6,498.3,1414.1,496.3z"/>
	<path class="st4" d="M230,441c0-2.5,9.6-14.4,18-22.3c10.9-10.3,28.4-22.6,40.8-28.9l10.4-5.2l13.6-0.7
		c23.4-1.2,38.4-5.3,52.6-14.4c3.1-1.9,5.6-3.3,5.6-2.9c0,1.6-14.6,15.5-24,22.9c-15.2,11.9-20.5,15.4-29.5,19.6
		c-10.9,5.1-16.8,6.6-31.9,7.9c-13.9,1.2-28.8,4.5-35.7,8c-2.4,1.2-7.9,5.6-12.1,9.8C233.5,439,230,441.8,230,441z"/>
	<path class="st4" d="M1371.3,435.2c-11.6-11.7-22.8-15.8-51.3-18.7c-22.5-2.2-31.6-6.3-56.5-25.4c-10.6-8.2-26.1-22.8-25.2-23.8
		c0.3-0.2,2.5,0.8,4.9,2.3c14.2,9.1,33.8,14.4,52.9,14.4c4.7,0,10.8,0.7,13.5,1.5c8,2.4,19.3,8.7,31.5,17.5
		c15.1,11,21.6,16.8,28.6,25.4C1381.2,442.4,1382,445.9,1371.3,435.2z"/>
	<path class="st4" d="M224.7,422.3l2.6-11.8l-1.8-12c-1-6.5-3.6-17.8-5.8-25c-3.5-11.2-4.1-14.6-4.5-24.6c-0.3-10.2-0.1-12.9,2.3-22
		c3.2-12.6,14.3-36.2,23.3-49.4c6.2-9.2,15.2-19.8,15.2-17.9c0,0.5-0.4,1.4-0.9,2c-2.3,2.2-9,17.6-11.1,25.4
		c-3,10.9-3.2,31.8-0.5,42c2.6,9.9,2.1,20-2,39.5c-2,9.4-4.3,20.4-5.1,24.5c-3.3,15.5-10.5,38-12.9,40
		C222.6,433.7,223,430.3,224.7,422.3z"/>
	<path class="st4" d="M1383.3,430c-3.7-8.3-8.2-23.4-11.3-38c-7.1-32.8-7.9-36.8-8.5-44c-0.5-5.5-0.1-10.7,1.4-19.4
		c4.4-25.1,1.2-45.6-9.9-64.6l-3.2-5.5l3.7,3.5c8.9,8.4,23.4,32.4,31.4,51.9c3.3,7.9,7.1,25.5,7.1,32.7c0,5.6-3.4,22.7-5.5,27.8
		c-2.5,6-6.5,27.3-6.5,34.7c0,3.9,0.9,10.2,2.1,14.4C1386.6,432.8,1386.2,436.4,1383.3,430z"/>
	<path class="st4" d="M264,382.9c0-2.2,17.9-19,25.5-24c11.6-7.6,14.6-9.3,24.3-14.3c16.7-8.5,20.9-9.5,40-9.5
		c25.2,0,36.4-2.1,51.2-9.6c5.2-2.6,5.4-2.6,3.5-0.5c-5.6,6.2-31.5,23.6-46.1,30.8c-13.1,6.6-21.7,8.3-45.9,9.2
		c-29.7,1.2-31.9,2-50.7,17.8C264.3,384.1,264,384.1,264,382.9z"/>
	<path class="st4" d="M1336.4,377.5c-12.2-10.1-17.3-11.5-44.4-12.5c-23.6-0.8-30.6-2.1-44.4-8.4c-13.4-6.1-39.3-23.4-46.1-30.7
		l-3-3.2l5,2.6c14.7,7.8,25.2,9.8,50.8,9.8c15.3,0,17.6,0.2,24.5,2.5c7.7,2.4,26.2,12,37,19.1c12,7.8,29.7,24.2,27.9,25.9
		C1343.5,382.9,1340.2,380.5,1336.4,377.5z"/>
	<path class="st4" d="M259.1,371.5c0.6-2,2-5.8,3.2-8.3c2-4.3,2.2-6.3,2.1-21.7c0-13.5-0.4-19.2-2.2-27.8
		c-2.8-13.9-2.8-20.2,0.3-32.2c5-20,21.1-46.2,39.3-64.1c7.1-7.1,12.3-10.4,7.1-4.6c-13.4,15-19.9,37.6-18.3,63.8
		c0.8,13.7,0.1,17-8.6,43.4c-8.7,25.9-11,32-16.6,43.6C260.3,374,257.4,377.6,259.1,371.5z"/>
	<path class="st4" d="M1347.2,371.6c-7.6-12.9-25.9-63.4-28.6-79.2c-1.1-6.2-1.2-9.9-0.5-15.1c0.7-4.5,0.6-10.3-0.1-17.3
		c-1.8-18.2-6.1-30.3-15.8-44l-4.6-6.5l3.9,3.2c16.6,13.2,38.7,46.3,44.1,66c2.7,9.9,2.9,23.2,0.4,36.8c-1.1,6.6-2.4,17.2-2.7,23.5
		c-0.6,12.2,0.2,16.9,4.8,28.7C1350.7,374.2,1350.1,376.6,1347.2,371.6z"/>
	<path class="st4" d="M305,329.1c0-1.5,9.6-9.7,17.2-14.7c7.6-5.1,22.5-12.7,32.9-16.8c17.4-6.9,29.5-9,37.9-6.6
		c1.9,0.5,8.9,1.3,15.5,1.6c13.9,0.7,25.4-1,37.3-5.6c3.9-1.5,7.2-2.6,7.2-2.4c0,1.4-16.9,11.8-29,17.9
		c-26.6,13.3-39.8,16.5-60,14.4c-14.1-1.5-32.9-0.7-39.3,1.6c-2.6,0.9-8.1,3.9-12.2,6.6S305,329.6,305,329.1z"/>
	<path class="st4" d="M1296.5,325.5c-10.3-7.1-15.2-8.7-28.3-9.3c-6.2-0.2-16.8,0.1-23.5,0.7c-20.9,2.1-32.4-0.7-59.9-14.4
		c-14-7-21-11.2-27.1-16.2c-3.5-2.8-2.8-2.9,2.2-0.4c10.8,5.6,30.9,8.1,47.6,6.1c18.5-2.3,20.7-2.3,29.6,0.1
		c12.7,3.4,37.3,14.2,47.5,21c10.3,6.8,21.6,16.9,18.9,16.9C1303.3,330,1300.1,328,1296.5,325.5z"/>
	<path class="st4" d="M300,320.8c0-0.3,2-4.8,4.5-10c5.8-12.3,6.9-20.2,6-44.3c-0.7-19.2-0.1-24.5,4.4-36.6
		c6.9-18.3,33.9-50.4,51.6-61.3c3-1.8,3-1.8-0.6,2c-15.1,16.4-22.1,34-23.8,59.4c-1,14.2-1.9,16.9-14,42.5
		c-8.4,17.7-11.8,24.3-18,34.8C305.8,314.7,300.1,322.3,300,320.8z"/>
	<path class="st4" d="M1301.4,312.3c-9.6-14.5-29.7-56.5-33.4-69.7c-1.1-4-2-10.3-2-14.2c0-19.4-8.2-40.7-20.9-54.6
		c-2.9-3.2-4.9-5.8-4.4-5.8c2.2,0,14.4,10.3,22.7,19.1c17.9,18.9,29.7,37.5,33.1,52.2c1.1,4.9,1.4,12,1.3,29.8
		c-0.3,26.6,0.3,30.2,7.3,44.1c2.1,4.3,3.5,7.8,3,7.8S1304.5,317.1,1301.4,312.3z"/>
	<path class="st4" d="M353.1,278.4c4-4.9,23.1-15.2,37-20c25.5-8.8,40.3-11.2,50.9-8.1c9.2,2.7,18.9,3.8,31.5,3.8
		c11.2,0,17.3-1,28-4.6c3.1-1.1-3.2,3.2-9.5,6.4c-5.5,2.8-10.2,4.8-27.5,11.4c-20.6,7.9-36.7,9.5-53.8,5.5c-7-1.6-12.6-2.1-23.8-2.2
		l-14.6-0.1l-9.2,4.8C351.9,280.5,351.1,280.7,353.1,278.4z"/>
	<path class="st4" d="M1245.6,275.1l-9-4.6l-14,0.1c-10.7,0-16.4,0.6-23.6,2.2c-12.8,3-23.7,2.9-37-0.3c-5.8-1.4-13.2-3.6-16.5-4.9
		c-17.1-6.7-20.4-8.1-26.9-11.2c-3.9-1.9-8.2-4.3-9.6-5.4c-2.4-1.8-2.1-1.8,4,0.3c5.8,1.9,8.6,2.2,25,2.2c15.6,0,19.5-0.3,25-2
		c9.3-2.8,24.8-2.7,35,0.4c17.3,5.2,29,9.5,37.4,13.7c9.4,4.7,20.6,12.1,20.6,13.5C1256,280.4,1255.4,280.2,1245.6,275.1z"/>
	<path class="st4" d="M348.5,269.9c0.4-0.8,1.8-2.7,3-4.4c9.1-12.4,11.6-21.1,13.4-45.1c1.5-19.8,4.5-29.8,12.5-41.9
		c9.4-14.1,33.3-36.4,48.8-45.6c3.6-2.1,6.9-3.9,7.3-3.9c0.3,0-1.6,2-4.3,4.4c-5.3,4.7-10.2,10-14.3,15.6
		c-6.6,8.9-13.1,26.1-14.8,38.9c-1.5,11.2-7.6,22.7-31.8,59.2c-7,10.7-17,23-19.2,23.7C348.2,271.1,348,270.8,348.5,269.9z"/>
	<path class="st4" d="M1255.7,267.3c-7.6-8.3-14.4-17.8-29.1-40.9c-12-19-16.6-28.5-17.7-36.6c-1.1-8-4.7-20.6-8.1-28.3
		c-3.7-8.3-9.7-16.6-18.1-24.9l-7.9-7.9l5.8,3.3c20,11.3,45.7,36.7,54.8,54c4.7,8.8,6.4,15.9,7.7,31c2.1,25.7,4.3,33.8,12.5,46.3
		c2.5,3.8,4.3,7.1,4.1,7.4C1259.4,270.9,1257.6,269.4,1255.7,267.3z"/>
	<path class="st4" d="M471.8,239.9c-3.7-0.4-8.9-1.4-11.5-2.3c-10.9-3.6-23.1-5.8-31.8-5.8c-8-0.1-10,0.3-18.4,3.6
		c-5.2,2-9.6,3.4-9.8,3.2c-0.3-0.2,1.7-1.7,4.4-3.2c2.6-1.5,5.8-3.3,6.9-4c11-6.7,49.4-16.4,64.7-16.4c5.1,0,9.4,0.6,12.9,2
		c16.5,6.1,39.2,8.5,53.2,5.5c3.8-0.8,7.1-1.3,7.3-1.1c1,1-16.9,7.9-31.2,12C497,239.6,484.5,241.3,471.8,239.9z"/>
	<path class="st4" d="M1119.5,240c-13.2-1.4-43.7-10.1-55.3-15.8c-2.8-1.4-5.1-2.6-5-2.8c0.2-0.1,3.2,0.4,6.8,1.2
		c13.8,2.9,37.9,0.4,52.8-5.5c3.7-1.5,7.5-2.1,12.8-2.1c8.6,0,28.3,3.7,43.4,8.1c11.4,3.4,29.7,11.5,31.9,14.2
		c1.8,2.2,1.6,2.2-7-1.4c-14-5.8-24.3-5.7-47.4,0.4C1138,240.2,1129.9,241.1,1119.5,240z"/>
	<path class="st4" d="M398.6,228.8c0.5-0.7,3-3.9,5.6-7.1c2.7-3.2,5.8-7.7,7-10c3-6,7.4-20.9,8.8-30.2c2.8-18.1,8.6-30.1,20.9-42.8
		c7.5-7.8,19.5-17.9,29.9-25.1c6-4.2,24.1-14,24.7-13.4c0.2,0.2-2.8,2.8-6.7,5.8c-15.6,12.1-26.1,28.8-32.2,51
		c-1.7,6.1-9.3,18.2-19,30c-3.4,4.1-8.4,10.4-11.1,14C418.2,211.9,394.6,235.4,398.6,228.8z"/>
	<path class="st4" d="M1200.1,221.3c-8.9-9-32.6-38-41.3-50.6c-3.4-5-5.7-9.8-7.4-15.7c-6.7-22.6-17.3-38.5-33.8-50.7
		c-3.2-2.4-5.5-4.3-5.1-4.3c0.3,0,4.7,2,9.7,4.5c18.7,9.3,45.4,31.4,54.7,45.2c6.1,9.2,7.9,14.1,11.6,31.8
		c4.8,23.6,7.8,30.5,19.3,44.5C1213.7,233.1,1209.1,230.3,1200.1,221.3z"/>
	<path class="st4" d="M522.5,211c-3.3-0.5-11.7-2.8-18.6-5.3c-8.5-3-15.8-4.8-22.5-5.7c-10.3-1.3-13.1-0.9-28.4,3.9l-3.5,1l2.3-1.8
		c6-5.1,30.1-11.9,51.6-14.7c17.8-2.2,30.3-1.6,37.8,1.8c3.2,1.5,11.3,4.1,18,5.8c11.4,3,13.3,3.2,25.5,2.8c7.3-0.2,12.6,0,11.8,0.5
		c-2.5,1.4-20.5,6.4-31.3,8.6C547.5,211.7,534.9,212.6,522.5,211z"/>
	<path class="st4" d="M1063,211.4c-8.2-0.8-34.4-6.5-43.7-9.6c-5.1-1.6-9.3-3.1-9.3-3.2c0-0.1,6-0.1,13.3,0.2
		c12.1,0.4,14.3,0.2,24.3-2.3c6-1.5,14.3-4.2,18.4-5.9c9.5-3.9,21-4.5,39.6-2.1c20.5,2.6,36.8,7.1,49.7,13.7c5.9,3,4,3-4.8,0.1
		c-6.5-2.2-9.7-2.6-17-2.5c-10.5,0.1-16.8,1.5-32.6,7c-10.2,3.7-12.9,4.2-22.5,4.6C1072.4,211.6,1065.5,211.6,1063,211.4z"/>
	<path class="st4" d="M449,195.3c0-0.4,3.1-3.9,7-7.7c3.8-3.7,8-8.7,9.3-11c3.2-5.7,8.1-18.3,11.6-29.7c4.8-15.8,9.9-24,21.6-34.6
		c13.3-12.2,42.5-29.7,56.5-33.8c3.3-1,2.9-0.6-6.1,5.4c-12.7,8.5-24,21.9-30.8,36.6c-7,15.2-8.5,17.6-17,27.1
		C481.9,169,449,199.2,449,195.3z"/>
	<path class="st4" d="M1150,189.3c-17.3-13.8-56-55.2-56-59.9c0-2.5-5.5-13.8-10.6-21.4c-7.8-11.9-18.7-21.8-32.9-29.8
		c-6.2-3.5,8.1,1.6,17.5,6.2c27.8,13.8,50.5,32.9,58.9,49.6c2.2,4.5,4.1,8.8,4.1,9.6c0,2.8,6.4,21.2,9.9,28.4
		c2.5,5.3,5.8,9.8,11.1,15.3c4.1,4.3,7.7,8,7.9,8.3c0.2,0.2,0,0.4-0.5,0.4S1154.6,193,1150,189.3z"/>
	<path class="st4" d="M507.1,168.2c-6.3-1.3-4.6-2.9,3.6-3.6c6.6-0.6,8.8-1.3,14.3-4.6c7.6-4.4,22-16.8,27.4-23.3
		c4.5-5.6,16.5-15.4,23-19c8.1-4.5,17.2-6.9,29.5-7.7c13.6-0.9,24.4,0.1,30.3,2.9l4.3,1.9l-3.6,0.1c-15.4,0.4-29.6,8.3-50.1,27.9
		c-11.3,10.7-18,14.4-35.3,19.2C530.4,167.7,515.3,169.8,507.1,168.2z"/>
	<path class="st4" d="M1078.5,167.1c-13.6-2.6-30.5-7.6-39.3-11.8c-5.6-2.6-9.2-5.4-15.5-11.7c-9-9-22.3-19.4-29.9-23.2
		c-5.8-2.9-14.8-5.4-20.3-5.5l-4-0.1l4.4-2c6.4-2.9,15.8-3.8,29.6-2.8c22.8,1.7,31.6,6.2,54.1,28c8.8,8.6,19.3,17.8,23.3,20.4
		c6.3,4.2,8.2,4.9,14.9,5.8c10.1,1.3,11.2,1.6,9,2.9C1101.4,169,1088.7,169,1078.5,167.1z"/>
</g>
<path class="st5" d="M415.6,604.5H311.8c-35.5,0-68.2,18.6-86.5,48.9l-48.3,80.3c-19.3,32-19.3,72,0,104.1l48.3,80.3
	c18.3,30.4,51,48.9,86.5,48.9h103.9c35.5,0,68.2-18.6,86.5-48.9l48.3-80.3c19.3-32,19.3-72,0-104.1l-48.3-80.3
	C483.9,623.1,451,604.5,415.6,604.5z"/>
<path class="st6" d="M1282.5,604.7h-103.6c-35.4,0-68.2,18.5-86.4,48.9l-48.3,80.4c-19.2,31.9-19.2,71.9,0,103.8l48.3,80.4
	c18.2,30.3,51.1,48.9,86.4,48.9h103.6c35.4,0,68.2-18.5,86.4-48.9l48.3-80.4c19.2-31.9,19.2-71.9,0-103.8l-48.3-80.4
	C1350.7,623.3,1317.9,604.7,1282.5,604.7z"/>
<g>
	<path class="st0" d="M1194,952.5H401.4c-18.8,0-34-15.2-34-34v-265c0-18.8,15.2-34,34-34H1194c18.8,0,34,15.2,34,34v265
		C1227.9,937.3,1212.7,952.5,1194,952.5z"/>
</g>
<text transform="matrix(1.009 0 0 1 508.0674 871.9985)" class="st7 st8">ISAMUN</text>
<path class="st9" d="M340.1,961.6h907.3c92.8,0,168-75.2,168-168v-8.8H176.1v12.8C176.1,888.1,249.5,961.6,340.1,961.6z"/>
<text transform="matrix(1 0 0 1 720.121 938.1304)" class="st10 st11">BY</text>
<text transform="matrix(1 0 0 1 753.421 938.1304)" class="st10 st12"> HSSS</text>
</svg>
