<!DOCTYPE svg PUBLIC "-//W3C//DTD SVG 20010904//EN" "http://www.w3.org/TR/2001/REC-SVG-20010904/DTD/svg10.dtd">
<svg version="1.0" xmlns="http://www.w3.org/2000/svg" width="1200px" height="632px" viewBox="0 0 12000 6320" preserveAspectRatio="xMidYMid meet">
<g id="layer1" fill="#3f3c6f" stroke="none">
 <path d="M0 1705 l0 -1705 2400 0 2400 0 0 1705 0 1705 -2400 0 -2400 0 0 -1705z m350 1469 l50 -36 51 37 c28 20 53 35 55 32 2 -2 -5 -30 -16 -62 -11 -32 -16 -61 -12 -64 5 -3 30 -22 56 -41 l48 -35 -71 -3 -71 -3 -17 -59 c-9 -33 -19 -60 -23 -60 -4 0 -14 27 -23 60 l-17 59 -71 3 -71 3 48 35 c26 19 51 38 56 41 4 3 -1 32 -12 64 -11 32 -20 60 -20 62 0 8 13 1 60 -33z m800 0 l50 -36 51 37 c28 20 53 35 55 32 2 -2 -5 -30 -16 -62 -11 -32 -16 -61 -12 -64 5 -3 30 -22 56 -41 l48 -35 -71 -3 -71 -3 -17 -59 c-9 -33 -19 -60 -23 -60 -4 0 -14 27 -23 60 l-17 59 -71 3 -71 3 48 35 c26 19 51 38 56 41 4 3 -1 32 -12 64 -11 32 -20 60 -20 62 0 8 13 1 60 -33z m800 0 l50 -36 51 37 c28 20 53 35 55 32 2 -2 -5 -30 -16 -62 -11 -32 -16 -61 -12 -64 5 -3 30 -22 56 -41 l48 -35 -71 -3 -71 -3 -17 -59 c-9 -33 -19 -60 -23 -60 -4 0 -14 27 -23 60 l-17 59 -71 3 -71 3 48 35 c26 19 51 38 56 41 4 3 -1 32 -12 64 -11 32 -20 60 -20 62 0 8 13 1 60 -33z m800 0 l50 -36 51 37 c28 20 53 35 55 32 2 -2 -5 -30 -16 -62 -11 -32 -16 -61 -12 -64 5 -3 30 -22 56 -41 l48 -35 -71 -3 -71 -3 -17 -59 c-9 -33 -19 -60 -23 -60 -4 0 -14 27 -23 60 l-17 59 -71 3 -71 3 48 35 c26 19 51 38 56 41 4 3 -1 32 -12 64 -11 32 -20 60 -20 62 0 8 13 1 60 -33z m800 0 l50 -36 51 37 c28 20 53 35 55 32 2 -2 -5 -30 -16 -62 -11 -32 -16 -61 -12 -64 5 -3 30 -22 56 -41 l48 -35 -71 -3 -71 -3 -17 -59 c-9 -33 -19 -60 -23 -60 -4 0 -14 27 -23 60 l-17 59 -71 3 -71 3 48 35 c26 19 51 38 56 41 4 3 -1 32 -12 64 -11 32 -20 60 -20 62 0 8 13 1 60 -33z m800 0 l50 -36 51 37 c28 20 53 35 55 32 2 -2 -5 -30 -16 -62 -11 -32 -16 -61 -12 -64 5 -3 30 -22 56 -41 l48 -35 -71 -3 -71 -3 -17 -59 c-9 -33 -19 -60 -23 -60 -4 0 -14 27 -23 60 l-17 59 -71 3 -71 3 48 35 c26 19 51 38 56 41 4 3 -1 32 -12 64 -11 32 -20 60 -20 62 0 8 13 1 60 -33z m-3600 -340 c53 -38 53 -38 113 9 21 16 40 27 42 25 3 -3 -4 -31 -15 -63 -11 -32 -16 -61 -12 -64 5 -3 30 -22 56 -41 l48 -35 -70 -3 -71 -3 -17 -59 c-9 -33 -20 -60 -24 -60 -4 0 -15 27 -24 60 l-17 59 -71 3 -72 3 57 39 c31 22 57 40 57 41 0 1 -9 28 -20 60 -11 32 -20 60 -20 62 0 8 13 1 60 -33z m800 0 c53 -38 53 -38 113 9 21 16 40 27 42 25 3 -3 -4 -31 -15 -63 -11 -32 -16 -61 -12 -64 5 -3 30 -22 56 -41 l48 -35 -70 -3 -71 -3 -17 -59 c-9 -33 -20 -60 -24 -60 -4 0 -15 27 -24 60 l-17 59 -71 3 -72 3 57 39 c31 22 57 40 57 41 0 1 -9 28 -20 60 -11 32 -20 60 -20 62 0 8 13 1 60 -33z m800 0 c53 -38 53 -38 113 9 21 16 40 27 42 25 3 -3 -4 -31 -15 -63 -11 -32 -16 -61 -12 -64 5 -3 30 -22 56 -41 l48 -35 -70 -3 -71 -3 -17 -59 c-9 -33 -20 -60 -24 -60 -4 0 -15 27 -24 60 l-17 59 -71 3 -72 3 57 39 c31 22 57 40 57 41 0 1 -9 28 -20 60 -11 32 -20 60 -20 62 0 8 13 1 60 -33z m800 0 c53 -38 53 -38 113 9 21 16 40 27 42 25 3 -3 -4 -31 -15 -63 -11 -32 -16 -61 -12 -64 5 -3 30 -22 56 -41 l48 -35 -70 -3 -71 -3 -17 -59 c-9 -33 -20 -60 -24 -60 -4 0 -15 27 -24 60 l-17 59 -71 3 -72 3 57 39 c31 22 57 40 57 41 0 1 -9 28 -20 60 -11 32 -20 60 -20 62 0 8 13 1 60 -33z m800 0 c53 -38 53 -38 113 9 21 16 40 27 42 25 3 -3 -4 -31 -15 -63 -11 -32 -16 -61 -12 -64 5 -3 30 -22 56 -41 l48 -35 -70 -3 -71 -3 -17 -59 c-9 -33 -20 -60 -24 -60 -4 0 -15 27 -24 60 l-17 59 -71 3 -72 3 57 39 c31 22 57 40 57 41 0 1 -9 28 -20 60 -11 32 -20 60 -20 62 0 8 13 1 60 -33z m-3600 -340 c53 -38 53 -38 113 9 21 16 40 27 42 25 3 -3 -4 -31 -15 -63 -11 -32 -16 -61 -12 -64 5 -3 30 -22 56 -41 l48 -35 -70 -3 -71 -3 -17 -59 c-9 -33 -20 -60 -24 -60 -4 0 -15 27 -24 60 l-17 59 -71 3 -72 3 57 39 c31 22 57 40 57 41 0 1 -9 28 -20 60 -11 32 -20 60 -20 62 0 8 13 1 60 -33z m800 0 c53 -38 53 -38 113 9 21 16 40 27 42 25 3 -3 -4 -31 -15 -63 -11 -32 -16 -61 -12 -64 5 -3 30 -22 56 -41 l48 -35 -70 -3 -71 -3 -17 -59 c-9 -33 -20 -60 -24 -60 -4 0 -15 27 -24 60 l-17 59 -71 3 -72 3 57 39 c31 22 57 40 57 41 0 1 -9 28 -20 60 -11 32 -20 60 -20 62 0 8 13 1 60 -33z m800 0 c53 -38 53 -38 113 9 21 16 40 27 42 25 3 -3 -4 -31 -15 -63 -11 -32 -16 -61 -12 -64 5 -3 30 -22 56 -41 l48 -35 -70 -3 -71 -3 -17 -59 c-9 -33 -20 -60 -24 -60 -4 0 -15 27 -24 60 l-17 59 -71 3 -72 3 57 39 c31 22 57 40 57 41 0 1 -9 28 -20 60 -11 32 -20 60 -20 62 0 8 13 1 60 -33z m800 0 c53 -38 53 -38 113 9 21 16 40 27 42 25 3 -3 -4 -31 -15 -63 -11 -32 -16 -61 -12 -64 5 -3 30 -22 56 -41 l48 -35 -70 -3 -71 -3 -17 -59 c-9 -33 -20 -60 -24 -60 -4 0 -15 27 -24 60 l-17 59 -71 3 -72 3 57 39 c31 22 57 40 57 41 0 1 -9 28 -20 60 -11 32 -20 60 -20 62 0 8 13 1 60 -33z m800 0 c53 -38 53 -38 113 9 21 16 40 27 42 25 3 -3 -4 -31 -15 -63 -11 -32 -16 -61 -12 -64 5 -3 30 -22 56 -41 l48 -35 -70 -3 -71 -3 -17 -59 c-9 -33 -20 -60 -24 -60 -4 0 -15 27 -24 60 l-17 59 -71 3 -72 3 57 39 c31 22 57 40 57 41 0 1 -9 28 -20 60 -11 32 -20 60 -20 62 0 8 13 1 60 -33z m800 0 c53 -38 53 -38 113 9 21 16 40 27 42 25 3 -3 -4 -31 -15 -63 -11 -32 -16 -61 -12 -64 5 -3 30 -22 56 -41 l48 -35 -70 -3 -71 -3 -17 -59 c-9 -33 -20 -60 -24 -60 -4 0 -15 27 -24 60 l-17 59 -71 3 -72 3 57 39 c31 22 57 40 57 41 0 1 -9 28 -20 60 -11 32 -20 60 -20 62 0 8 13 1 60 -33z m-3603 -339 c25 -19 49 -35 53 -35 4 0 28 16 54 36 26 20 49 34 52 32 2 -3 -5 -31 -16 -63 -11 -32 -20 -59 -20 -60 0 -1 26 -19 57 -41 l57 -39 -72 -3 -71 -3 -17 -59 c-9 -33 -20 -60 -24 -60 -4 0 -15 27 -24 60 l-17 59 -71 3 -72 3 57 39 c31 22 57 40 57 41 0 1 -9 28 -20 60 -11 32 -20 60 -20 62 0 8 15 0 57 -32z m800 0 c25 -19 49 -35 53 -35 4 0 28 16 54 36 26 20 49 34 52 32 2 -3 -5 -31 -16 -63 -11 -32 -20 -59 -20 -60 0 -1 26 -19 57 -41 l57 -39 -72 -3 -71 -3 -17 -59 c-9 -33 -20 -60 -24 -60 -4 0 -15 27 -24 60 l-17 59 -71 3 -72 3 57 39 c31 22 57 40 57 41 0 1 -9 28 -20 60 -11 32 -20 60 -20 62 0 8 15 0 57 -32z m800 0 c25 -19 49 -35 53 -35 4 0 28 16 54 36 26 20 49 34 52 32 2 -3 -5 -31 -16 -63 -11 -32 -20 -59 -20 -60 0 -1 26 -19 57 -41 l57 -39 -72 -3 -71 -3 -17 -59 c-9 -33 -20 -60 -24 -60 -4 0 -15 27 -24 60 l-17 59 -71 3 -72 3 57 39 c31 22 57 40 57 41 0 1 -9 28 -20 60 -11 32 -20 60 -20 62 0 8 15 0 57 -32z m800 0 c25 -19 49 -35 53 -35 4 0 28 16 54 36 26 20 49 34 52 32 2 -3 -5 -31 -16 -63 -11 -32 -20 -59 -20 -60 0 -1 26 -19 57 -41 l57 -39 -72 -3 -71 -3 -17 -59 c-9 -33 -20 -60 -24 -60 -4 0 -15 27 -24 60 l-17 59 -71 3 -72 3 57 39 c31 22 57 40 57 41 0 1 -9 28 -20 60 -11 32 -20 60 -20 62 0 8 15 0 57 -32z m800 0 c25 -19 49 -35 53 -35 4 0 28 16 54 36 26 20 49 34 52 32 2 -3 -5 -31 -16 -63 -11 -32 -20 -59 -20 -60 0 -1 26 -19 57 -41 l57 -39 -72 -3 -71 -3 -17 -59 c-9 -33 -20 -60 -24 -60 -4 0 -15 27 -24 60 l-17 59 -71 3 -72 3 57 39 c31 22 57 40 57 41 0 1 -9 28 -20 60 -11 32 -20 60 -20 62 0 8 15 0 57 -32z m-3600 -340 c25 -19 49 -35 52 -35 3 0 28 16 55 35 27 19 51 33 53 32 2 -2 -6 -30 -17 -62 -11 -32 -20 -59 -20 -60 0 -1 26 -19 57 -41 l57 -39 -71 -3 -70 -3 -18 -59 c-10 -33 -21 -60 -25 -60 -4 0 -15 27 -25 60 l-18 59 -70 3 -70 3 57 39 c31 21 56 39 56 41 0 1 -9 28 -20 60 -11 32 -20 60 -20 62 0 8 15 0 57 -32z m800 0 c25 -19 49 -35 52 -35 3 0 28 16 55 35 27 19 51 33 53 32 2 -2 -6 -30 -17 -62 -11 -32 -20 -59 -20 -60 0 -1 26 -19 57 -41 l57 -39 -71 -3 -70 -3 -18 -59 c-10 -33 -21 -60 -25 -60 -4 0 -15 27 -25 60 l-18 59 -70 3 -70 3 57 39 c31 21 56 39 56 41 0 1 -9 28 -20 60 -11 32 -20 60 -20 62 0 8 15 0 57 -32z m800 0 c25 -19 49 -35 52 -35 3 0 28 16 55 35 27 19 51 33 53 32 2 -2 -6 -30 -17 -62 -11 -32 -20 -59 -20 -60 0 -1 26 -19 57 -41 l57 -39 -71 -3 -70 -3 -18 -59 c-10 -33 -21 -60 -25 -60 -4 0 -15 27 -25 60 l-18 59 -70 3 -70 3 57 39 c31 21 56 39 56 41 0 1 -9 28 -20 60 -11 32 -20 60 -20 62 0 8 15 0 57 -32z m800 0 c25 -19 49 -35 52 -35 3 0 28 16 55 35 27 19 51 33 53 32 2 -2 -6 -30 -17 -62 -11 -32 -20 -59 -20 -60 0 -1 26 -19 57 -41 l57 -39 -71 -3 -70 -3 -18 -59 c-10 -33 -21 -60 -25 -60 -4 0 -15 27 -25 60 l-18 59 -70 3 -70 3 57 39 c31 21 56 39 56 41 0 1 -9 28 -20 60 -11 32 -20 60 -20 62 0 8 15 0 57 -32z m800 0 c25 -19 49 -35 52 -35 3 0 28 16 55 35 27 19 51 33 53 32 2 -2 -6 -30 -17 -62 -11 -32 -20 -59 -20 -60 0 -1 26 -19 57 -41 l57 -39 -71 -3 -70 -3 -18 -59 c-10 -33 -21 -60 -25 -60 -4 0 -15 27 -25 60 l-18 59 -70 3 -70 3 57 39 c31 21 56 39 56 41 0 1 -9 28 -20 60 -11 32 -20 60 -20 62 0 8 15 0 57 -32z m800 0 c25 -19 49 -35 52 -35 3 0 28 16 55 35 27 19 51 33 53 32 2 -2 -6 -30 -17 -62 -11 -32 -20 -59 -20 -60 0 -1 26 -19 57 -41 l57 -39 -71 -3 -70 -3 -18 -59 c-10 -33 -21 -60 -25 -60 -4 0 -15 27 -25 60 l-18 59 -70 3 -70 3 57 39 c31 21 56 39 56 41 0 1 -9 28 -20 60 -11 32 -20 60 -20 62 0 8 15 0 57 -32z m-3600 -340 c25 -19 49 -35 52 -35 3 0 28 16 55 35 27 19 51 33 53 32 2 -2 -6 -30 -17 -62 -11 -32 -20 -59 -20 -60 0 -1 26 -19 57 -41 l57 -39 -71 -3 -70 -3 -18 -59 c-10 -33 -21 -60 -25 -60 -4 0 -15 27 -25 60 l-18 59 -70 3 -70 3 57 39 c31 21 56 39 56 41 0 1 -9 28 -20 60 -11 32 -20 60 -20 62 0 8 15 0 57 -32z m800 0 c25 -19 49 -35 52 -35 3 0 28 16 55 35 27 19 51 33 53 32 2 -2 -6 -30 -17 -62 -11 -32 -20 -59 -20 -60 0 -1 26 -19 57 -41 l57 -39 -71 -3 -70 -3 -18 -59 c-10 -33 -21 -60 -25 -60 -4 0 -15 27 -25 60 l-18 59 -70 3 -70 3 57 39 c31 21 56 39 56 41 0 1 -9 28 -20 60 -11 32 -20 60 -20 62 0 8 15 0 57 -32z m800 0 c25 -19 49 -35 52 -35 3 0 28 16 55 35 27 19 51 33 53 32 2 -2 -6 -30 -17 -62 -11 -32 -20 -59 -20 -60 0 -1 26 -19 57 -41 l57 -39 -71 -3 -70 -3 -18 -59 c-10 -33 -21 -60 -25 -60 -4 0 -15 27 -25 60 l-18 59 -70 3 -70 3 57 39 c31 21 56 39 56 41 0 1 -9 28 -20 60 -11 32 -20 60 -20 62 0 8 15 0 57 -32z m800 0 c25 -19 49 -35 52 -35 3 0 28 16 55 35 27 19 51 33 53 32 2 -2 -6 -30 -17 -62 -11 -32 -20 -59 -20 -60 0 -1 26 -19 57 -41 l57 -39 -71 -3 -70 -3 -18 -59 c-10 -33 -21 -60 -25 -60 -4 0 -15 27 -25 60 l-18 59 -70 3 -70 3 57 39 c31 21 56 39 56 41 0 1 -9 28 -20 60 -11 32 -20 60 -20 62 0 8 15 0 57 -32z m800 0 c25 -19 49 -35 52 -35 3 0 28 16 55 35 27 19 51 33 53 32 2 -2 -6 -30 -17 -62 -11 -32 -20 -59 -20 -60 0 -1 26 -19 57 -41 l57 -39 -71 -3 -70 -3 -18 -59 c-10 -33 -21 -60 -25 -60 -4 0 -15 27 -25 60 l-18 59 -70 3 -70 3 57 39 c31 21 56 39 56 41 0 1 -9 28 -20 60 -11 32 -20 60 -20 62 0 8 15 0 57 -32z m-3590 -348 l43 -30 52 36 c28 20 53 35 55 33 2 -1 -6 -29 -17 -61 -11 -32 -20 -59 -20 -60 0 -2 25 -20 56 -41 l57 -39 -70 -3 -70 -3 -18 -59 c-10 -33 -21 -60 -25 -60 -4 0 -15 27 -25 60 l-18 59 -70 3 -70 3 57 39 c31 21 56 39 56 41 0 1 -9 28 -20 60 -11 32 -20 60 -20 62 0 6 17 -4 67 -40z m800 0 l43 -30 52 36 c28 20 53 35 55 33 2 -1 -6 -29 -17 -61 -11 -32 -20 -59 -20 -60 0 -2 25 -20 56 -41 l57 -39 -70 -3 -70 -3 -18 -59 c-10 -33 -21 -60 -25 -60 -4 0 -15 27 -25 60 l-18 59 -70 3 -70 3 57 39 c31 21 56 39 56 41 0 1 -9 28 -20 60 -11 32 -20 60 -20 62 0 6 17 -4 67 -40z m800 0 l43 -30 52 36 c28 20 53 35 55 33 2 -1 -6 -29 -17 -61 -11 -32 -20 -59 -20 -60 0 -2 25 -20 56 -41 l57 -39 -70 -3 -70 -3 -18 -59 c-10 -33 -21 -60 -25 -60 -4 0 -15 27 -25 60 l-18 59 -70 3 -70 3 57 39 c31 21 56 39 56 41 0 1 -9 28 -20 60 -11 32 -20 60 -20 62 0 6 17 -4 67 -40z m800 0 l43 -30 52 36 c28 20 53 35 55 33 2 -1 -6 -29 -17 -61 -11 -32 -20 -59 -20 -60 0 -2 25 -20 56 -41 l57 -39 -70 -3 -70 -3 -18 -59 c-10 -33 -21 -60 -25 -60 -4 0 -15 27 -25 60 l-18 59 -70 3 -70 3 57 39 c31 21 56 39 56 41 0 1 -9 28 -20 60 -11 32 -20 60 -20 62 0 6 17 -4 67 -40z m800 0 l43 -30 52 36 c28 20 53 35 55 33 2 -1 -6 -29 -17 -61 -11 -32 -20 -59 -20 -60 0 -2 25 -20 56 -41 l57 -39 -70 -3 -70 -3 -18 -59 c-10 -33 -21 -60 -25 -60 -4 0 -15 27 -25 60 l-18 59 -70 3 -70 3 57 39 c31 21 56 39 56 41 0 1 -9 28 -20 60 -11 32 -20 60 -20 62 0 6 17 -4 67 -40z m800 0 l43 -30 52 36 c28 20 53 35 55 33 2 -1 -6 -29 -17 -61 -11 -32 -20 -59 -20 -60 0 -2 25 -20 56 -41 l57 -39 -70 -3 -70 -3 -18 -59 c-10 -33 -21 -60 -25 -60 -4 0 -15 27 -25 60 l-18 59 -70 3 -70 3 57 39 c31 21 56 39 56 41 0 1 -9 28 -20 60 -11 32 -20 60 -20 62 0 6 17 -4 67 -40z m-3599 -340 l42 -31 52 37 c29 20 54 35 55 33 2 -1 -6 -29 -17 -61 -11 -32 -20 -59 -20 -60 0 -2 25 -20 56 -41 l57 -39 -70 -3 -70 -3 -18 -59 c-10 -33 -21 -60 -25 -60 -4 0 -15 27 -25 60 l-18 60 -70 0 -71 0 53 40 c30 21 55 41 57 43 2 2 -5 30 -16 62 -11 32 -20 60 -20 62 0 6 17 -4 68 -40z m800 0 l42 -31 52 37 c29 20 54 35 55 33 2 -1 -6 -29 -17 -61 -11 -32 -20 -59 -20 -60 0 -2 25 -20 56 -41 l57 -39 -70 -3 -70 -3 -18 -59 c-10 -33 -21 -60 -25 -60 -4 0 -15 27 -25 60 l-18 60 -70 0 -71 0 53 40 c30 21 55 41 57 43 2 2 -5 30 -16 62 -11 32 -20 60 -20 62 0 6 17 -4 68 -40z m800 0 l42 -31 52 37 c29 20 54 35 55 33 2 -1 -6 -29 -17 -61 -11 -32 -20 -59 -20 -60 0 -2 25 -20 56 -41 l57 -39 -70 -3 -70 -3 -18 -59 c-10 -33 -21 -60 -25 -60 -4 0 -15 27 -25 60 l-18 60 -70 0 -71 0 53 40 c30 21 55 41 57 43 2 2 -5 30 -16 62 -11 32 -20 60 -20 62 0 6 17 -4 68 -40z m800 0 l42 -31 52 37 c29 20 54 35 55 33 2 -1 -6 -29 -17 -61 -11 -32 -20 -59 -20 -60 0 -2 25 -20 56 -41 l57 -39 -70 -3 -70 -3 -18 -59 c-10 -33 -21 -60 -25 -60 -4 0 -15 27 -25 60 l-18 60 -70 0 -71 0 53 40 c30 21 55 41 57 43 2 2 -5 30 -16 62 -11 32 -20 60 -20 62 0 6 17 -4 68 -40z m800 0 l42 -31 52 37 c29 20 54 35 55 33 2 -1 -6 -29 -17 -61 -11 -32 -20 -59 -20 -60 0 -2 25 -20 56 -41 l57 -39 -70 -3 -70 -3 -18 -59 c-10 -33 -21 -60 -25 -60 -4 0 -15 27 -25 60 l-18 60 -70 0 -71 0 53 40 c30 21 55 41 57 43 2 2 -5 30 -16 62 -11 32 -20 60 -20 62 0 6 17 -4 68 -40z m-3600 -340 l42 -31 52 37 c29 20 54 35 55 33 2 -1 -6 -29 -17 -61 -11 -32 -20 -59 -20 -60 0 -2 25 -20 56 -41 l57 -39 -70 -3 -70 -3 -18 -59 c-10 -33 -21 -60 -25 -60 -4 0 -15 27 -25 60 l-18 60 -70 0 -71 0 53 40 c30 21 55 41 57 43 2 2 -5 30 -16 62 -11 32 -20 60 -20 62 0 6 17 -4 68 -40z m800 0 l42 -31 52 37 c29 20 54 35 55 33 2 -1 -6 -29 -17 -61 -11 -32 -20 -59 -20 -60 0 -2 25 -20 56 -41 l57 -39 -70 -3 -70 -3 -18 -59 c-10 -33 -21 -60 -25 -60 -4 0 -15 27 -25 60 l-18 60 -70 0 -71 0 53 40 c30 21 55 41 57 43 2 2 -5 30 -16 62 -11 32 -20 60 -20 62 0 6 17 -4 68 -40z m800 0 l42 -31 52 37 c29 20 54 35 55 33 2 -1 -6 -29 -17 -61 -11 -32 -20 -59 -20 -60 0 -2 25 -20 56 -41 l57 -39 -70 -3 -70 -3 -18 -59 c-10 -33 -21 -60 -25 -60 -4 0 -15 27 -25 60 l-18 60 -70 0 -71 0 53 40 c30 21 55 41 57 43 2 2 -5 30 -16 62 -11 32 -20 60 -20 62 0 6 17 -4 68 -40z m800 0 l42 -31 52 37 c29 20 54 35 55 33 2 -1 -6 -29 -17 -61 -11 -32 -20 -59 -20 -60 0 -2 25 -20 56 -41 l57 -39 -70 -3 -70 -3 -18 -59 c-10 -33 -21 -60 -25 -60 -4 0 -15 27 -25 60 l-18 60 -70 0 -71 0 53 40 c30 21 55 41 57 43 2 2 -5 30 -16 62 -11 32 -20 60 -20 62 0 6 17 -4 68 -40z m800 0 l42 -31 52 37 c29 20 54 35 55 33 2 -1 -6 -29 -17 -61 -11 -32 -20 -59 -20 -60 0 -2 25 -20 56 -41 l57 -39 -70 -3 -70 -3 -18 -59 c-10 -33 -21 -60 -25 -60 -4 0 -15 27 -25 60 l-18 60 -70 0 -71 0 53 40 c30 21 55 41 57 43 2 2 -5 30 -16 62 -11 32 -20 60 -20 62 0 6 17 -4 68 -40z m800 0 l42 -31 52 37 c29 20 54 35 55 33 2 -1 -6 -29 -17 -61 -11 -32 -20 -59 -20 -60 0 -2 25 -20 56 -41 l57 -39 -70 -3 -70 -3 -18 -59 c-10 -33 -21 -60 -25 -60 -4 0 -15 27 -25 60 l-18 60 -70 0 -71 0 53 40 c30 21 55 41 57 43 2 2 -5 30 -16 62 -11 32 -20 60 -20 62 0 6 17 -4 68 -40z"/>
 </g>
<g id="layer2" fill="#fefdfd" stroke="none">
 <path d="M0 5590 l0 -240 6000 0 6000 0 0 240 0 240 -6000 0 -6000 0 0 -240z"/>
 <path d="M0 4620 l0 -240 6000 0 6000 0 0 240 0 240 -6000 0 -6000 0 0 -240z"/>
 <path d="M0 3652 l0 -239 3602 -6 c1981 -4 4681 -7 6000 -7 l2398 0 0 245 0 245 -6000 0 -6000 0 0 -238z"/>
 <path d="M290 3207 c0 -2 9 -30 20 -62 11 -32 16 -61 12 -64 -5 -3 -30 -22 -56 -41 l-48 -35 71 -3 71 -3 17 -59 c9 -33 19 -60 23 -60 4 0 14 27 23 60 l17 59 71 3 71 3 -48 35 c-26 19 -51 38 -56 41 -4 3 1 32 12 64 11 32 18 60 16 62 -2 3 -27 -12 -55 -32 l-51 -37 -50 36 c-47 34 -60 41 -60 33z"/>
 <path d="M1090 3207 c0 -2 9 -30 20 -62 11 -32 16 -61 12 -64 -5 -3 -30 -22 -56 -41 l-48 -35 71 -3 71 -3 17 -59 c9 -33 19 -60 23 -60 4 0 14 27 23 60 l17 59 71 3 71 3 -48 35 c-26 19 -51 38 -56 41 -4 3 1 32 12 64 11 32 18 60 16 62 -2 3 -27 -12 -55 -32 l-51 -37 -50 36 c-47 34 -60 41 -60 33z"/>
 <path d="M1890 3207 c0 -2 9 -30 20 -62 11 -32 16 -61 12 -64 -5 -3 -30 -22 -56 -41 l-48 -35 71 -3 71 -3 17 -59 c9 -33 19 -60 23 -60 4 0 14 27 23 60 l17 59 71 3 71 3 -48 35 c-26 19 -51 38 -56 41 -4 3 1 32 12 64 11 32 18 60 16 62 -2 3 -27 -12 -55 -32 l-51 -37 -50 36 c-47 34 -60 41 -60 33z"/>
 <path d="M2690 3207 c0 -2 9 -30 20 -62 11 -32 16 -61 12 -64 -5 -3 -30 -22 -56 -41 l-48 -35 71 -3 71 -3 17 -59 c9 -33 19 -60 23 -60 4 0 14 27 23 60 l17 59 71 3 71 3 -48 35 c-26 19 -51 38 -56 41 -4 3 1 32 12 64 11 32 18 60 16 62 -2 3 -27 -12 -55 -32 l-51 -37 -50 36 c-47 34 -60 41 -60 33z"/>
 <path d="M3490 3207 c0 -2 9 -30 20 -62 11 -32 16 -61 12 -64 -5 -3 -30 -22 -56 -41 l-48 -35 71 -3 71 -3 17 -59 c9 -33 19 -60 23 -60 4 0 14 27 23 60 l17 59 71 3 71 3 -48 35 c-26 19 -51 38 -56 41 -4 3 1 32 12 64 11 32 18 60 16 62 -2 3 -27 -12 -55 -32 l-51 -37 -50 36 c-47 34 -60 41 -60 33z"/>
 <path d="M4290 3207 c0 -2 9 -30 20 -62 11 -32 16 -61 12 -64 -5 -3 -30 -22 -56 -41 l-48 -35 71 -3 71 -3 17 -59 c9 -33 19 -60 23 -60 4 0 14 27 23 60 l17 59 71 3 71 3 -48 35 c-26 19 -51 38 -56 41 -4 3 1 32 12 64 11 32 18 60 16 62 -2 3 -27 -12 -55 -32 l-51 -37 -50 36 c-47 34 -60 41 -60 33z"/>
 <path d="M4800 2675 l0 -245 3600 0 3600 0 0 245 0 245 -3600 0 -3600 0 0 -245z"/>
 <path d="M690 2867 c0 -2 9 -30 20 -62 11 -32 20 -59 20 -60 0 -1 -26 -19 -57 -41 l-57 -39 72 -3 71 -3 17 -59 c9 -33 20 -60 24 -60 4 0 15 27 24 60 l17 59 71 3 70 3 -48 35 c-26 19 -51 38 -56 41 -4 3 1 32 12 64 11 32 18 60 15 63 -2 2 -21 -9 -42 -25 -60 -47 -60 -47 -113 -9 -47 34 -60 41 -60 33z"/>
 <path d="M1490 2867 c0 -2 9 -30 20 -62 11 -32 20 -59 20 -60 0 -1 -26 -19 -57 -41 l-57 -39 72 -3 71 -3 17 -59 c9 -33 20 -60 24 -60 4 0 15 27 24 60 l17 59 71 3 70 3 -48 35 c-26 19 -51 38 -56 41 -4 3 1 32 12 64 11 32 18 60 15 63 -2 2 -21 -9 -42 -25 -60 -47 -60 -47 -113 -9 -47 34 -60 41 -60 33z"/>
 <path d="M2290 2867 c0 -2 9 -30 20 -62 11 -32 20 -59 20 -60 0 -1 -26 -19 -57 -41 l-57 -39 72 -3 71 -3 17 -59 c9 -33 20 -60 24 -60 4 0 15 27 24 60 l17 59 71 3 70 3 -48 35 c-26 19 -51 38 -56 41 -4 3 1 32 12 64 11 32 18 60 15 63 -2 2 -21 -9 -42 -25 -60 -47 -60 -47 -113 -9 -47 34 -60 41 -60 33z"/>
 <path d="M3090 2867 c0 -2 9 -30 20 -62 11 -32 20 -59 20 -60 0 -1 -26 -19 -57 -41 l-57 -39 72 -3 71 -3 17 -59 c9 -33 20 -60 24 -60 4 0 15 27 24 60 l17 59 71 3 70 3 -48 35 c-26 19 -51 38 -56 41 -4 3 1 32 12 64 11 32 18 60 15 63 -2 2 -21 -9 -42 -25 -60 -47 -60 -47 -113 -9 -47 34 -60 41 -60 33z"/>
 <path d="M3890 2867 c0 -2 9 -30 20 -62 11 -32 20 -59 20 -60 0 -1 -26 -19 -57 -41 l-57 -39 72 -3 71 -3 17 -59 c9 -33 20 -60 24 -60 4 0 15 27 24 60 l17 59 71 3 70 3 -48 35 c-26 19 -51 38 -56 41 -4 3 1 32 12 64 11 32 18 60 15 63 -2 2 -21 -9 -42 -25 -60 -47 -60 -47 -113 -9 -47 34 -60 41 -60 33z"/>
 <path d="M290 2527 c0 -2 9 -30 20 -62 11 -32 20 -59 20 -60 0 -1 -26 -19 -57 -41 l-57 -39 72 -3 71 -3 17 -59 c9 -33 20 -60 24 -60 4 0 15 27 24 60 l17 59 71 3 70 3 -48 35 c-26 19 -51 38 -56 41 -4 3 1 32 12 64 11 32 18 60 15 63 -2 2 -21 -9 -42 -25 -60 -47 -60 -47 -113 -9 -47 34 -60 41 -60 33z"/>
 <path d="M1090 2527 c0 -2 9 -30 20 -62 11 -32 20 -59 20 -60 0 -1 -26 -19 -57 -41 l-57 -39 72 -3 71 -3 17 -59 c9 -33 20 -60 24 -60 4 0 15 27 24 60 l17 59 71 3 70 3 -48 35 c-26 19 -51 38 -56 41 -4 3 1 32 12 64 11 32 18 60 15 63 -2 2 -21 -9 -42 -25 -60 -47 -60 -47 -113 -9 -47 34 -60 41 -60 33z"/>
 <path d="M1890 2527 c0 -2 9 -30 20 -62 11 -32 20 -59 20 -60 0 -1 -26 -19 -57 -41 l-57 -39 72 -3 71 -3 17 -59 c9 -33 20 -60 24 -60 4 0 15 27 24 60 l17 59 71 3 70 3 -48 35 c-26 19 -51 38 -56 41 -4 3 1 32 12 64 11 32 18 60 15 63 -2 2 -21 -9 -42 -25 -60 -47 -60 -47 -113 -9 -47 34 -60 41 -60 33z"/>
 <path d="M2690 2527 c0 -2 9 -30 20 -62 11 -32 20 -59 20 -60 0 -1 -26 -19 -57 -41 l-57 -39 72 -3 71 -3 17 -59 c9 -33 20 -60 24 -60 4 0 15 27 24 60 l17 59 71 3 70 3 -48 35 c-26 19 -51 38 -56 41 -4 3 1 32 12 64 11 32 18 60 15 63 -2 2 -21 -9 -42 -25 -60 -47 -60 -47 -113 -9 -47 34 -60 41 -60 33z"/>
 <path d="M3490 2527 c0 -2 9 -30 20 -62 11 -32 20 -59 20 -60 0 -1 -26 -19 -57 -41 l-57 -39 72 -3 71 -3 17 -59 c9 -33 20 -60 24 -60 4 0 15 27 24 60 l17 59 71 3 70 3 -48 35 c-26 19 -51 38 -56 41 -4 3 1 32 12 64 11 32 18 60 15 63 -2 2 -21 -9 -42 -25 -60 -47 -60 -47 -113 -9 -47 34 -60 41 -60 33z"/>
 <path d="M4290 2527 c0 -2 9 -30 20 -62 11 -32 20 -59 20 -60 0 -1 -26 -19 -57 -41 l-57 -39 72 -3 71 -3 17 -59 c9 -33 20 -60 24 -60 4 0 15 27 24 60 l17 59 71 3 70 3 -48 35 c-26 19 -51 38 -56 41 -4 3 1 32 12 64 11 32 18 60 15 63 -2 2 -21 -9 -42 -25 -60 -47 -60 -47 -113 -9 -47 34 -60 41 -60 33z"/>
 <path d="M690 2187 c0 -2 9 -30 20 -62 11 -32 20 -59 20 -60 0 -1 -26 -19 -57 -41 l-57 -39 72 -3 71 -3 17 -59 c9 -33 20 -60 24 -60 4 0 15 27 24 60 l17 59 71 3 72 3 -57 39 c-31 22 -57 40 -57 41 0 1 9 28 20 60 11 32 18 60 16 63 -3 2 -26 -12 -52 -32 -26 -20 -50 -36 -54 -36 -4 0 -28 16 -53 35 -42 32 -57 40 -57 32z"/>
 <path d="M1490 2187 c0 -2 9 -30 20 -62 11 -32 20 -59 20 -60 0 -1 -26 -19 -57 -41 l-57 -39 72 -3 71 -3 17 -59 c9 -33 20 -60 24 -60 4 0 15 27 24 60 l17 59 71 3 72 3 -57 39 c-31 22 -57 40 -57 41 0 1 9 28 20 60 11 32 18 60 16 63 -3 2 -26 -12 -52 -32 -26 -20 -50 -36 -54 -36 -4 0 -28 16 -53 35 -42 32 -57 40 -57 32z"/>
 <path d="M2290 2187 c0 -2 9 -30 20 -62 11 -32 20 -59 20 -60 0 -1 -26 -19 -57 -41 l-57 -39 72 -3 71 -3 17 -59 c9 -33 20 -60 24 -60 4 0 15 27 24 60 l17 59 71 3 72 3 -57 39 c-31 22 -57 40 -57 41 0 1 9 28 20 60 11 32 18 60 16 63 -3 2 -26 -12 -52 -32 -26 -20 -50 -36 -54 -36 -4 0 -28 16 -53 35 -42 32 -57 40 -57 32z"/>
 <path d="M3090 2187 c0 -2 9 -30 20 -62 11 -32 20 -59 20 -60 0 -1 -26 -19 -57 -41 l-57 -39 72 -3 71 -3 17 -59 c9 -33 20 -60 24 -60 4 0 15 27 24 60 l17 59 71 3 72 3 -57 39 c-31 22 -57 40 -57 41 0 1 9 28 20 60 11 32 18 60 16 63 -3 2 -26 -12 -52 -32 -26 -20 -50 -36 -54 -36 -4 0 -28 16 -53 35 -42 32 -57 40 -57 32z"/>
 <path d="M3890 2187 c0 -2 9 -30 20 -62 11 -32 20 -59 20 -60 0 -1 -26 -19 -57 -41 l-57 -39 72 -3 71 -3 17 -59 c9 -33 20 -60 24 -60 4 0 15 27 24 60 l17 59 71 3 72 3 -57 39 c-31 22 -57 40 -57 41 0 1 9 28 20 60 11 32 18 60 16 63 -3 2 -26 -12 -52 -32 -26 -20 -50 -36 -54 -36 -4 0 -28 16 -53 35 -42 32 -57 40 -57 32z"/>
 <path d="M4800 1700 l0 -240 3600 0 3600 0 0 240 0 240 -3600 0 -3600 0 0 -240z"/>
 <path d="M290 1847 c0 -2 9 -30 20 -62 11 -32 20 -59 20 -60 0 -2 -25 -20 -56 -41 l-57 -39 70 -3 70 -3 18 -59 c10 -33 21 -60 25 -60 4 0 15 27 25 60 l18 59 70 3 71 3 -57 39 c-31 22 -57 40 -57 41 0 1 9 28 20 60 11 32 19 60 17 62 -2 1 -26 -13 -53 -32 -27 -19 -52 -35 -55 -35 -3 0 -27 16 -52 35 -42 32 -57 40 -57 32z"/>
 <path d="M1090 1847 c0 -2 9 -30 20 -62 11 -32 20 -59 20 -60 0 -2 -25 -20 -56 -41 l-57 -39 70 -3 70 -3 18 -59 c10 -33 21 -60 25 -60 4 0 15 27 25 60 l18 59 70 3 71 3 -57 39 c-31 22 -57 40 -57 41 0 1 9 28 20 60 11 32 19 60 17 62 -2 1 -26 -13 -53 -32 -27 -19 -52 -35 -55 -35 -3 0 -27 16 -52 35 -42 32 -57 40 -57 32z"/>
 <path d="M1890 1847 c0 -2 9 -30 20 -62 11 -32 20 -59 20 -60 0 -2 -25 -20 -56 -41 l-57 -39 70 -3 70 -3 18 -59 c10 -33 21 -60 25 -60 4 0 15 27 25 60 l18 59 70 3 71 3 -57 39 c-31 22 -57 40 -57 41 0 1 9 28 20 60 11 32 19 60 17 62 -2 1 -26 -13 -53 -32 -27 -19 -52 -35 -55 -35 -3 0 -27 16 -52 35 -42 32 -57 40 -57 32z"/>
 <path d="M2690 1847 c0 -2 9 -30 20 -62 11 -32 20 -59 20 -60 0 -2 -25 -20 -56 -41 l-57 -39 70 -3 70 -3 18 -59 c10 -33 21 -60 25 -60 4 0 15 27 25 60 l18 59 70 3 71 3 -57 39 c-31 22 -57 40 -57 41 0 1 9 28 20 60 11 32 19 60 17 62 -2 1 -26 -13 -53 -32 -27 -19 -52 -35 -55 -35 -3 0 -27 16 -52 35 -42 32 -57 40 -57 32z"/>
 <path d="M3490 1847 c0 -2 9 -30 20 -62 11 -32 20 -59 20 -60 0 -2 -25 -20 -56 -41 l-57 -39 70 -3 70 -3 18 -59 c10 -33 21 -60 25 -60 4 0 15 27 25 60 l18 59 70 3 71 3 -57 39 c-31 22 -57 40 -57 41 0 1 9 28 20 60 11 32 19 60 17 62 -2 1 -26 -13 -53 -32 -27 -19 -52 -35 -55 -35 -3 0 -27 16 -52 35 -42 32 -57 40 -57 32z"/>
 <path d="M4290 1847 c0 -2 9 -30 20 -62 11 -32 20 -59 20 -60 0 -2 -25 -20 -56 -41 l-57 -39 70 -3 70 -3 18 -59 c10 -33 21 -60 25 -60 4 0 15 27 25 60 l18 59 70 3 71 3 -57 39 c-31 22 -57 40 -57 41 0 1 9 28 20 60 11 32 19 60 17 62 -2 1 -26 -13 -53 -32 -27 -19 -52 -35 -55 -35 -3 0 -27 16 -52 35 -42 32 -57 40 -57 32z"/>
 <path d="M690 1507 c0 -2 9 -30 20 -62 11 -32 20 -59 20 -60 0 -2 -25 -20 -56 -41 l-57 -39 70 -3 70 -3 18 -59 c10 -33 21 -60 25 -60 4 0 15 27 25 60 l18 59 70 3 71 3 -57 39 c-31 22 -57 40 -57 41 0 1 9 28 20 60 11 32 19 60 17 62 -2 1 -26 -13 -53 -32 -27 -19 -52 -35 -55 -35 -3 0 -27 16 -52 35 -42 32 -57 40 -57 32z"/>
 <path d="M1490 1507 c0 -2 9 -30 20 -62 11 -32 20 -59 20 -60 0 -2 -25 -20 -56 -41 l-57 -39 70 -3 70 -3 18 -59 c10 -33 21 -60 25 -60 4 0 15 27 25 60 l18 59 70 3 71 3 -57 39 c-31 22 -57 40 -57 41 0 1 9 28 20 60 11 32 19 60 17 62 -2 1 -26 -13 -53 -32 -27 -19 -52 -35 -55 -35 -3 0 -27 16 -52 35 -42 32 -57 40 -57 32z"/>
 <path d="M2290 1507 c0 -2 9 -30 20 -62 11 -32 20 -59 20 -60 0 -2 -25 -20 -56 -41 l-57 -39 70 -3 70 -3 18 -59 c10 -33 21 -60 25 -60 4 0 15 27 25 60 l18 59 70 3 71 3 -57 39 c-31 22 -57 40 -57 41 0 1 9 28 20 60 11 32 19 60 17 62 -2 1 -26 -13 -53 -32 -27 -19 -52 -35 -55 -35 -3 0 -27 16 -52 35 -42 32 -57 40 -57 32z"/>
 <path d="M3090 1507 c0 -2 9 -30 20 -62 11 -32 20 -59 20 -60 0 -2 -25 -20 -56 -41 l-57 -39 70 -3 70 -3 18 -59 c10 -33 21 -60 25 -60 4 0 15 27 25 60 l18 59 70 3 71 3 -57 39 c-31 22 -57 40 -57 41 0 1 9 28 20 60 11 32 19 60 17 62 -2 1 -26 -13 -53 -32 -27 -19 -52 -35 -55 -35 -3 0 -27 16 -52 35 -42 32 -57 40 -57 32z"/>
 <path d="M3890 1507 c0 -2 9 -30 20 -62 11 -32 20 -59 20 -60 0 -2 -25 -20 -56 -41 l-57 -39 70 -3 70 -3 18 -59 c10 -33 21 -60 25 -60 4 0 15 27 25 60 l18 59 70 3 71 3 -57 39 c-31 22 -57 40 -57 41 0 1 9 28 20 60 11 32 19 60 17 62 -2 1 -26 -13 -53 -32 -27 -19 -52 -35 -55 -35 -3 0 -27 16 -52 35 -42 32 -57 40 -57 32z"/>
 <path d="M290 1167 c0 -2 9 -30 20 -62 11 -32 20 -59 20 -60 0 -2 -25 -20 -56 -41 l-57 -39 70 -3 70 -3 18 -59 c10 -33 21 -60 25 -60 4 0 15 27 25 60 l18 59 70 3 70 3 -57 39 c-31 21 -56 39 -56 41 0 1 9 28 20 60 11 32 19 60 17 61 -2 2 -27 -13 -55 -33 l-52 -36 -43 30 c-50 36 -67 46 -67 40z"/>
 <path d="M1090 1167 c0 -2 9 -30 20 -62 11 -32 20 -59 20 -60 0 -2 -25 -20 -56 -41 l-57 -39 70 -3 70 -3 18 -59 c10 -33 21 -60 25 -60 4 0 15 27 25 60 l18 59 70 3 70 3 -57 39 c-31 21 -56 39 -56 41 0 1 9 28 20 60 11 32 19 60 17 61 -2 2 -27 -13 -55 -33 l-52 -36 -43 30 c-50 36 -67 46 -67 40z"/>
 <path d="M1890 1167 c0 -2 9 -30 20 -62 11 -32 20 -59 20 -60 0 -2 -25 -20 -56 -41 l-57 -39 70 -3 70 -3 18 -59 c10 -33 21 -60 25 -60 4 0 15 27 25 60 l18 59 70 3 70 3 -57 39 c-31 21 -56 39 -56 41 0 1 9 28 20 60 11 32 19 60 17 61 -2 2 -27 -13 -55 -33 l-52 -36 -43 30 c-50 36 -67 46 -67 40z"/>
 <path d="M2690 1167 c0 -2 9 -30 20 -62 11 -32 20 -59 20 -60 0 -2 -25 -20 -56 -41 l-57 -39 70 -3 70 -3 18 -59 c10 -33 21 -60 25 -60 4 0 15 27 25 60 l18 59 70 3 70 3 -57 39 c-31 21 -56 39 -56 41 0 1 9 28 20 60 11 32 19 60 17 61 -2 2 -27 -13 -55 -33 l-52 -36 -43 30 c-50 36 -67 46 -67 40z"/>
 <path d="M3490 1167 c0 -2 9 -30 20 -62 11 -32 20 -59 20 -60 0 -2 -25 -20 -56 -41 l-57 -39 70 -3 70 -3 18 -59 c10 -33 21 -60 25 -60 4 0 15 27 25 60 l18 59 70 3 70 3 -57 39 c-31 21 -56 39 -56 41 0 1 9 28 20 60 11 32 19 60 17 61 -2 2 -27 -13 -55 -33 l-52 -36 -43 30 c-50 36 -67 46 -67 40z"/>
 <path d="M4290 1167 c0 -2 9 -30 20 -62 11 -32 20 -59 20 -60 0 -2 -25 -20 -56 -41 l-57 -39 70 -3 70 -3 18 -59 c10 -33 21 -60 25 -60 4 0 15 27 25 60 l18 59 70 3 70 3 -57 39 c-31 21 -56 39 -56 41 0 1 9 28 20 60 11 32 19 60 17 61 -2 2 -27 -13 -55 -33 l-52 -36 -43 30 c-50 36 -67 46 -67 40z"/>
 <path d="M4800 730 l0 -240 3600 0 3600 0 0 240 0 240 -3600 0 -3600 0 0 -240z"/>
 <path d="M690 827 c0 -2 9 -30 20 -62 11 -32 18 -60 16 -62 -2 -2 -27 -22 -57 -43 l-53 -40 71 0 70 0 18 -60 c10 -33 21 -60 25 -60 4 0 15 27 25 60 l18 59 70 3 70 3 -57 39 c-31 21 -56 39 -56 41 0 1 9 28 20 60 11 32 19 60 17 61 -1 2 -26 -13 -55 -33 l-52 -37 -42 31 c-51 36 -68 46 -68 40z"/>
 <path d="M1490 827 c0 -2 9 -30 20 -62 11 -32 18 -60 16 -62 -2 -2 -27 -22 -57 -43 l-53 -40 71 0 70 0 18 -60 c10 -33 21 -60 25 -60 4 0 15 27 25 60 l18 59 70 3 70 3 -57 39 c-31 21 -56 39 -56 41 0 1 9 28 20 60 11 32 19 60 17 61 -1 2 -26 -13 -55 -33 l-52 -37 -42 31 c-51 36 -68 46 -68 40z"/>
 <path d="M2290 827 c0 -2 9 -30 20 -62 11 -32 18 -60 16 -62 -2 -2 -27 -22 -57 -43 l-53 -40 71 0 70 0 18 -60 c10 -33 21 -60 25 -60 4 0 15 27 25 60 l18 59 70 3 70 3 -57 39 c-31 21 -56 39 -56 41 0 1 9 28 20 60 11 32 19 60 17 61 -1 2 -26 -13 -55 -33 l-52 -37 -42 31 c-51 36 -68 46 -68 40z"/>
 <path d="M3090 827 c0 -2 9 -30 20 -62 11 -32 18 -60 16 -62 -2 -2 -27 -22 -57 -43 l-53 -40 71 0 70 0 18 -60 c10 -33 21 -60 25 -60 4 0 15 27 25 60 l18 59 70 3 70 3 -57 39 c-31 21 -56 39 -56 41 0 1 9 28 20 60 11 32 19 60 17 61 -1 2 -26 -13 -55 -33 l-52 -37 -42 31 c-51 36 -68 46 -68 40z"/>
 <path d="M3890 827 c0 -2 9 -30 20 -62 11 -32 18 -60 16 -62 -2 -2 -27 -22 -57 -43 l-53 -40 71 0 70 0 18 -60 c10 -33 21 -60 25 -60 4 0 15 27 25 60 l18 59 70 3 70 3 -57 39 c-31 21 -56 39 -56 41 0 1 9 28 20 60 11 32 19 60 17 61 -1 2 -26 -13 -55 -33 l-52 -37 -42 31 c-51 36 -68 46 -68 40z"/>
 <path d="M290 487 c0 -2 9 -30 20 -62 11 -32 18 -60 16 -62 -2 -2 -27 -22 -57 -43 l-53 -40 71 0 70 0 18 -60 c10 -33 21 -60 25 -60 4 0 15 27 25 60 l18 59 70 3 70 3 -57 39 c-31 21 -56 39 -56 41 0 1 9 28 20 60 11 32 19 60 17 61 -1 2 -26 -13 -55 -33 l-52 -37 -42 31 c-51 36 -68 46 -68 40z"/>
 <path d="M1090 487 c0 -2 9 -30 20 -62 11 -32 18 -60 16 -62 -2 -2 -27 -22 -57 -43 l-53 -40 71 0 70 0 18 -60 c10 -33 21 -60 25 -60 4 0 15 27 25 60 l18 59 70 3 70 3 -57 39 c-31 21 -56 39 -56 41 0 1 9 28 20 60 11 32 19 60 17 61 -1 2 -26 -13 -55 -33 l-52 -37 -42 31 c-51 36 -68 46 -68 40z"/>
 <path d="M1890 487 c0 -2 9 -30 20 -62 11 -32 18 -60 16 -62 -2 -2 -27 -22 -57 -43 l-53 -40 71 0 70 0 18 -60 c10 -33 21 -60 25 -60 4 0 15 27 25 60 l18 59 70 3 70 3 -57 39 c-31 21 -56 39 -56 41 0 1 9 28 20 60 11 32 19 60 17 61 -1 2 -26 -13 -55 -33 l-52 -37 -42 31 c-51 36 -68 46 -68 40z"/>
 <path d="M2690 487 c0 -2 9 -30 20 -62 11 -32 18 -60 16 -62 -2 -2 -27 -22 -57 -43 l-53 -40 71 0 70 0 18 -60 c10 -33 21 -60 25 -60 4 0 15 27 25 60 l18 59 70 3 70 3 -57 39 c-31 21 -56 39 -56 41 0 1 9 28 20 60 11 32 19 60 17 61 -1 2 -26 -13 -55 -33 l-52 -37 -42 31 c-51 36 -68 46 -68 40z"/>
 <path d="M3490 487 c0 -2 9 -30 20 -62 11 -32 18 -60 16 -62 -2 -2 -27 -22 -57 -43 l-53 -40 71 0 70 0 18 -60 c10 -33 21 -60 25 -60 4 0 15 27 25 60 l18 59 70 3 70 3 -57 39 c-31 21 -56 39 -56 41 0 1 9 28 20 60 11 32 19 60 17 61 -1 2 -26 -13 -55 -33 l-52 -37 -42 31 c-51 36 -68 46 -68 40z"/>
 <path d="M4290 487 c0 -2 9 -30 20 -62 11 -32 18 -60 16 -62 -2 -2 -27 -22 -57 -43 l-53 -40 71 0 70 0 18 -60 c10 -33 21 -60 25 -60 4 0 15 27 25 60 l18 59 70 3 70 3 -57 39 c-31 21 -56 39 -56 41 0 1 9 28 20 60 11 32 19 60 17 61 -1 2 -26 -13 -55 -33 l-52 -37 -42 31 c-51 36 -68 46 -68 40z"/>
 </g>
<g id="layer3" fill="#b22334" stroke="none">
 <path d="M0 6075 l0 -245 6000 0 6000 0 0 245 0 245 -6000 0 -6000 0 0 -245z"/>
 <path d="M0 5105 l0 -245 6000 0 6000 0 0 245 0 245 -6000 0 -6000 0 0 -245z"/>
 <path d="M0 4135 l0 -245 6000 0 6000 0 0 245 0 245 -6000 0 -6000 0 0 -245z"/>
 <path d="M4800 3160 l0 -240 3600 0 3600 0 0 240 0 240 -3600 0 -3600 0 0 -240z"/>
 <path d="M4800 2185 l0 -245 3600 0 3600 0 0 245 0 245 -3600 0 -3600 0 0 -245z"/>
 <path d="M4800 1215 l0 -245 3600 0 3600 0 0 245 0 245 -3600 0 -3600 0 0 -245z"/>
 <path d="M4800 245 l0 -245 3600 0 3600 0 0 245 0 245 -3600 0 -3600 0 0 -245z"/>
 </g>

</svg>