<!DOCTYPE svg PUBLIC "-//W3C//DTD SVG 20010904//EN" "http://www.w3.org/TR/2001/REC-SVG-20010904/DTD/svg10.dtd">
<svg version="1.0" xmlns="http://www.w3.org/2000/svg" width="640px" height="320px" viewBox="0 0 6400 3200" preserveAspectRatio="xMidYMid meet">
<g id="layer1" fill="#03267e" stroke="none">
 <path d="M1690 2715 c531 -266 968 -484 973 -484 4 -1 7 217 7 484 l0 485 -972 -1 -973 0 965 -484z"/>
 <path d="M3730 2715 c0 -317 3 -485 10 -485 6 0 445 218 978 484 l967 485 -977 0 -978 1 0 -485z"/>
 <path d="M0 2485 l0 -355 705 0 c388 0 705 2 705 5 0 5 -1395 705 -1405 705 -3 0 -5 -160 -5 -355z"/>
 <path d="M5690 2485 l-705 -354 708 0 707 -1 0 355 c0 195 -1 355 -2 354 -2 0 -320 -159 -708 -354z"/>
 <path d="M0 715 c0 -195 2 -355 5 -355 10 0 1405 700 1405 705 0 3 -317 5 -705 5 l-705 0 0 -355z"/>
 <path d="M4991 1066 c2 -2 320 -162 707 -355 l702 -351 0 355 0 355 -707 0 c-388 0 -704 -2 -702 -4z"/>
 <path d="M1690 485 l-965 -484 973 0 972 -1 0 485 c0 267 -3 485 -7 484 -5 0 -442 -218 -973 -484z"/>
 <path d="M3730 485 l0 -485 978 1 977 0 -967 485 c-533 266 -972 484 -978 484 -7 0 -10 -168 -10 -485z"/>
 </g>
<g id="layer2" fill="#fefefe" stroke="none">
 <path d="M0 3022 l0 -177 708 -355 707 -355 -707 -3 -708 -2 0 -105 0 -105 1440 0 1440 0 0 640 0 640 -105 0 -105 0 0 -485 c0 -267 -2 -485 -5 -485 -3 0 -442 218 -975 485 l-970 485 -117 -1 -118 0 1060 -532 1060 -532 -230 -3 -230 -3 -1072 535 -1073 536 0 -178z"/>
 <path d="M3520 2560 l0 -640 1440 0 1440 0 0 105 0 105 -707 1 -708 0 708 355 707 354 0 60 0 60 -832 -416 -833 -415 -230 3 -230 3 1060 532 1060 532 -353 0 -352 1 -970 -485 c-534 -267 -974 -485 -980 -485 -7 0 -10 168 -10 485 l0 485 -105 0 -105 0 0 -640z"/>
 <path d="M0 1175 l0 -105 708 -2 707 -3 -707 -355 -708 -355 0 -57 0 -58 830 415 830 415 238 -1 237 0 -1065 -534 -1065 -534 358 0 357 -1 970 485 c533 267 972 485 975 485 3 0 5 -218 5 -485 l0 -485 105 0 105 0 0 640 0 640 -1440 0 -1440 0 0 -105z"/>
 <path d="M3520 640 l0 -640 105 0 105 0 0 485 c0 317 3 485 10 485 6 0 446 -218 980 -485 l970 -485 112 1 113 0 -1060 532 -1060 532 232 3 232 2 1071 -535 1070 -535 0 180 0 180 -707 354 -708 355 708 0 707 1 0 105 0 105 -1440 0 -1440 0 0 -640z"/>
 </g>
<g id="layer3" fill="#cf152c" stroke="none">
 <path d="M1075 2664 l1070 -535 230 3 230 3 -1062 533 -1063 532 -237 -1 -238 0 1070 -535z"/>
 <path d="M2880 2560 l0 -640 -1440 0 -1440 0 0 -320 0 -320 1440 0 1440 0 0 -640 0 -640 320 0 320 0 0 640 0 640 1440 0 1440 0 0 320 0 320 -1440 0 -1440 0 0 640 0 640 -320 0 -320 0 0 -640z"/>
 <path d="M5335 2667 l-1060 -532 230 -3 230 -3 833 415 832 416 0 120 c0 66 -1 120 -2 119 -2 0 -480 -239 -1063 -532z"/>
 <path d="M830 655 l-830 -415 0 -120 0 -120 1063 531 c584 292 1064 533 1066 535 2 2 -102 4 -232 4 l-237 0 -830 -415z"/>
 <path d="M3800 1065 c0 -3 477 -243 1060 -535 l1060 -530 237 1 238 0 -1065 534 -1065 534 -232 0 c-128 1 -233 -1 -233 -4z"/>
 </g>

</svg>