<?xml version="1.0" encoding="utf-8"?>
<!-- Generator: Adobe Illustrator 19.0.0, SVG Export Plug-In . SVG Version: 6.00 Build 0)  -->
<svg version="1.0" id="Layer_1" xmlns="http://www.w3.org/2000/svg" xmlns:xlink="http://www.w3.org/1999/xlink" x="0px" y="0px"
	 viewBox="-949 691 1600 1120" enable-background="new -949 691 1600 1120" xml:space="preserve">
<g>
	<g id="layer1">
		<path fill="#FEFEFE" d="M-150.3,1471.6c-0.7-1.6,1.6-2.8,3.7-2c2,0.8,0.8,3.4-1.4,3.4C-149,1473-150,1472.4-150.3,1471.6z"/>
		<path fill="#FEFEFE" d="M-12.1,1465.7c0.8-1.9,0.6-2.8-0.5-3.7c-2-1.7-1.7-3,0.6-3c1.2,0,2.5-1,3-2.2l0.9-2.3l0.7,2.3
			c0.4,1.5,1.4,2.2,3,2.2c2.7,0,3.2,1.7,0.8,2.7c-1.1,0.4-1.4,1.3-1,2.9c0.7,2.5-0.3,3.1-2.1,1.3c-0.8-0.8-1.8-0.6-3.7,0.6l-2.7,1.8
			L-12.1,1465.7z"/>
		<path fill="#FEFEFE" d="M-68.9,1445.1c1-2.8,0.8-3.3-1.2-5.1l-2.4-1.9l2.8-0.1c2.3,0,3.1-0.7,4-3c1.3-3.3,2.7-4,2.7-1.2
			c0,2.5,2,4.2,4.9,4.2h2.5l-2.3,1.6c-1.8,1.3-2.2,2.3-1.7,4.5c0.6,3.3,0.6,3.3-2.7,1.8c-2-0.9-3-0.8-5.1,0.6l-2.6,1.7L-68.9,1445.1
			z"/>
		<path fill="#FEFEFE" d="M-12.4,1437.6c0.5-2.8,0.2-3.6-1.5-4.5c-3-1.6-2.6-2.8,0.8-2.3c2.5,0.3,3,0,4-3l1.2-3.3l1.5,3.4
			c1.2,2.8,1.8,3.3,3.9,2.9c3.1-0.6,3.2,0.6,0.4,2.6c-1.9,1.3-2,1.9-1.1,4.5c1.2,3.5,0.7,3.9-2,1.4c-1.8-1.7-2.1-1.7-4.9,0l-3,1.7
			L-12.4,1437.6z"/>
		<path fill="#FEFEFE" d="M-44,1419.4c0.9-2.2,0.8-2.9-0.5-3.6c-2.1-1.3-1.9-2.8,0.5-2.8c1.2,0,2.5-1,3-2.2l0.9-2.3l0.7,2.3
			c0.4,1.5,1.4,2.2,3,2.2c2.7,0,3.2,1.5,0.8,2.4c-1.2,0.5-1.4,1.4-0.9,3.8c0.7,3.3,0.7,3.3-1.3,1.5c-1.9-1.8-2.2-1.8-4.6-0.1
			l-2.7,1.7L-44,1419.4z"/>
		<path fill="#FEFEFE" d="M16.6,1414.5c0.4-1.8,0.1-2.7-1-3.1c-2.2-0.9-2-2.4,0.4-2.4c1,0,2.4-0.8,3-1.7c1-1.7,1-1.7,2,0
			c0.6,0.9,2,1.7,3,1.7c2.4,0,2.6,1.5,0.4,2.4c-1.2,0.4-1.4,1.3-1,3.2c0.6,2.3,0.5,2.4-1.5,1.4c-1.5-0.9-2.4-0.9-3.2-0.1
			C16.9,1417.7,15.9,1417.1,16.6,1414.5z"/>
		<path fill="#FEFEFE" d="M-89.8,1412.1c0.2-1-0.6-2.8-1.6-4c-1.9-2.1-1.9-2.1,0.8-2.1c1.8,0,2.9-0.7,3.5-2.2l0.8-2.3l0.7,2.3
			c0.5,1.5,1.5,2.2,3.2,2.2c2.8,0,3.2,1.5,0.8,2.8c-1.1,0.6-1.5,1.7-1.1,3.1c0.6,2.4,0.3,2.5-2.3,1.1c-1.3-0.7-2.1-0.7-2.5,0
			C-88.6,1414.7-90.1,1414.1-89.8,1412.1z"/>
		<path fill="#FEFEFE" d="M-12.7,1409.8c0.6-2.1,0.2-3-1.5-4.2l-2.2-1.6h2.8c1.9,0,2.9-0.6,3.3-2c0.3-1.1,0.9-2,1.3-2
			c0.4,0,1,0.9,1.3,2c0.4,1.4,1.4,2,3.3,2h2.8l-2.2,1.6c-1.6,1.1-2.1,2.2-1.7,3.5c0.6,1.7,0.3,1.9-1.9,1.3c-1.6-0.4-3.3-0.1-4.3,0.7
			C-13.2,1412.4-13.3,1412.2-12.7,1409.8z"/>
		<path fill="#FEFEFE" d="M-265.8,1405.3c0.8-2.8,0.7-3.8-0.4-4.4c-0.7-0.4-2.2-1.5-3.3-2.3c-1.9-1.5-1.8-1.5,2.2-1.6
			c3.8,0,4.2-0.3,5.3-3.5c1.3-4,2.5-3.8,3.5,0.5c0.6,2.7,1,3,4.8,3h4.2l-3.2,2.5c-2.8,2.3-3.1,2.8-2.2,5.7c1.1,4.1,0.6,4.5-2.7,1.9
			l-2.6-2.1l-2.8,2C-266.8,1409.7-267,1409.6-265.8,1405.3z"/>
		<path fill="#FEFEFE" d="M37,1404.6c0-0.3,0.4-1.6,1-3c0.8-2.1,0.5-2.8-1.5-4.5c-3.3-2.5-3.1-3.1,0.8-3.1c2.7,0,3.5-0.5,4.4-2.7
			l1-2.8l0.8,2.8c0.6,2.3,1.2,2.7,4.4,2.7l3.6,0.1l-2.7,2.4c-2.4,2.1-2.7,2.8-1.8,5c1.4,3.6,1.4,3.6-1.9,1.8c-2.7-1.6-3-1.6-5.5,0
			C38.2,1404.3,37,1404.8,37,1404.6z"/>
		<path fill="#FEFEFE" d="M-153.4,1382.5c0.5-2.9,0.2-3.8-2.2-5.9l-2.9-2.5l3.8-0.1c3.3,0,3.9-0.4,4.8-3c0.6-1.6,1.5-3,1.9-3
			c0.4,0,1.3,1.4,1.9,3c0.9,2.6,1.5,3,4.8,3l3.8,0.1l-2.9,2.5c-2.4,2.1-2.7,3-2.2,5.9c0.7,3.7-0.3,4.5-2.4,2c-0.7-0.8-2-1.5-3-1.5
			s-2.3,0.7-3,1.5C-153.1,1387-154.1,1386.2-153.4,1382.5z"/>
		<path fill="#FEFEFE" d="M55.1,1379.3c0.9-2.5,0.7-3-1.8-5l-2.8-2.3h3.6c3.3,0,3.7-0.3,4.4-3.2l0.7-3.3l1.4,3.3
			c1.2,2.6,2,3.2,4.7,3.2l3.2,0.1l-2.6,2.2c-2.2,1.8-2.5,2.6-1.8,4.6c1.2,3.2,0.4,3.8-2.1,1.6c-1.8-1.6-2.1-1.7-4.4-0.1
			C54.2,1382.6,53.9,1382.4,55.1,1379.3z"/>
		<path fill="#FEFEFE" d="M-305.5,1377.9c0.5-1.4,0.1-2.5-1.2-3.4c-1.7-1.4-1.7-1.4,0.5-1.5c1.5,0,2.6-0.7,2.9-2
			c0.3-1.1,0.9-2,1.3-2c0.5,0,1.2,0.9,1.5,2c0.4,1.2,1.5,2,2.7,2c2,0,2,0.1,0.4,1.9c-0.9,1-1.4,2.5-1,3.5c0.7,1.7-1.1,2.3-2.1,0.6
			c-0.4-0.7-1.2-0.7-2.5,0C-305.7,1380.5-306.2,1380.2-305.5,1377.9z"/>
		<path fill="#FEFEFE" d="M42.3,1356.7c0.4-1.4,0.9-3.1,1.2-3.9c0.3-0.8-0.7-2.1-2.5-3.1c-4.1-2.5-3.8-3.7,0.9-3.7
			c3.6,0,4-0.3,4.6-3c0.4-1.6,1.1-3,1.6-3s1.2,1.4,1.6,3c0.5,2.7,0.9,3,4.4,3c4.6,0,4.9,1.1,1.2,3.8c-2.5,1.8-2.6,2.2-1.6,5.6
			c1.3,4.2,1.1,4.3-2.8,1.5c-2.7-1.9-3.2-1.9-4.7-0.7C42.6,1359.3,41.7,1359.5,42.3,1356.7z"/>
		<path fill="#FEFEFE" d="M83.6,1355.6c0.4-1.6,0.1-2.5-1-2.9c-2.5-1-1.9-2.7,0.9-2.7c1.6,0,2.5-0.6,2.5-1.5c0-0.8,0.4-1.5,0.9-1.5
			s1.1,0.7,1.5,1.5c0.3,0.8,1.8,1.5,3.2,1.5h2.7l-2.2,2.3c-1.3,1.5-1.9,3-1.5,4c0.7,2-0.7,2.2-2.4,0.5c-0.9-0.9-1.5-0.9-2.4,0
			C83.9,1358.7,82.9,1358.2,83.6,1355.6z"/>
		<path fill="#FEFEFE" d="M-298,1351c0.7-2.5,0.5-3.2-1.1-4c-2.7-1.5-2.4-3,0.7-3c1.9,0,2.8-0.7,3.7-3l1.1-2.9l1.3,2.9
			c0.9,2.2,1.9,3,3.8,3c3,0,3.2,1.3,0.4,3.1c-1.7,1.2-1.9,1.8-1,4.2c1.2,3,0.5,3.4-2.5,1.3c-1.7-1.2-2.2-1.2-3.9,0
			C-298.3,1354.7-299,1354.3-298,1351z"/>
		<path fill="#FEFEFE" d="M-390.8,1348.9c1-2.8,0.8-3.4-1.3-5l-2.4-1.9h2.8c1.9,0,3.1-0.7,3.9-2.5c1.4-3.1,2-3.1,3.3-0.3
			c0.6,1.4,2.2,2.5,4,2.8l3,0.6l-2.3,1.3c-2,1.1-2.3,1.8-1.8,4.7l0.7,3.4l-3-1.7c-2.8-1.7-3.1-1.7-4.9,0
			C-391.5,1352.8-392,1352.4-390.8,1348.9z"/>
		<path fill="#FEFEFE" d="M-164.6,1343.4c0.3-0.8-0.3-1.8-1.2-2.3c-1.5-0.9-1.5-1,0.5-1.1c1.2,0,2.4-0.6,2.7-1.2c0.5-1,0.7-1,1.2,0
			c0.3,0.6,1.3,1.2,2.1,1.2c1.2,0,1.3,0.3,0.3,1.5c-0.6,0.8-0.9,1.8-0.6,2.3s-0.8,0.9-2.5,0.9
			C-164.1,1344.7-164.9,1344.3-164.6,1343.4z"/>
		<path fill="#FEFEFE" d="M113.5,1330.4c-8-7.2-37.1-30.4-47.5-37.9c-35.9-25.6-76.4-48.8-116.4-66.4
			c-65.2-28.9-133.9-46.1-208.1-52.3c-19.5-1.6-79.7-1.6-99,0c-16.2,1.4-43.4,4.7-51.7,6.2c-2.8,0.6-6.1,1-7.4,1h-2.3l1.9-6.7
			c2.4-8.7,8.5-25.5,11.3-31.3l2.2-4.5l14-1.7c27.2-3.2,47.9-4.3,82.5-4.2c19,0,41.5,0.6,50,1.2c119.9,9.5,232.5,48.8,330,115
			c26.3,17.9,56,41,56,43.7c0,5.2-8.7,42.5-9.9,42.5C118.8,1334.9,116.3,1332.9,113.5,1330.4z M108.7,1306c4.6-2.8,6.6-7.2,6-13.4
			c-0.6-6.5-4-9.6-10.7-9.6c-12,0-18.4,15.8-9.3,23C98,1308.6,104.5,1308.6,108.7,1306z M80.8,1287c3.5-3.3,2.9-7.2-2.3-13
			c-2.5-2.8-4.5-5.7-4.5-6.5c0-4.1,7.5-1,8.8,3.7c1,3.9,3.8,6,5.2,3.8c2.6-3.9-2.4-10.9-9.7-13.6c-4.2-1.6-4.5-1.6-7.1,0.3
			c-4.4,3.2-4.1,6.6,1.3,13.4c6,7.6,5.3,10.9-1.4,7.4c-2.9-1.5-4.1-3.3-4.1-6.3c0-1-1-2.3-2.1-3.1c-1.8-1.1-2.3-1.1-3,0.1
			c-2.3,3.5,1.4,10,7.6,13.5C74.5,1289.5,78,1289.6,80.8,1287z M52.5,1267.5c1.4-1.3,2.5-3.1,2.5-4c0-2.6-2.6-6.7-6.4-10.4
			c-2-1.9-3.6-4.1-3.6-4.7c0-4.1,7.8-1.7,8.7,2.7c0.3,1.6,1.6,3.5,2.9,4.4c2.2,1.4,2.4,1.4,3-1.1c0.9-3.6-0.9-6.9-5.4-9.9
			c-5.6-3.7-10.4-4.3-13.1-1.6c-3.5,3.5-2.7,7,2.9,13.3c5.4,6,5.9,7.2,3.4,8.2c-3.3,1.3-10.5-4.7-8.9-7.4c0.6-0.9-2.5-3-4.4-3
			c-2.2,0-1.1,5.9,1.6,9.1c2.8,3.2,9.3,6.8,12.6,6.9C49.3,1270,51.2,1268.9,52.5,1267.5z M23,1251.1c0-0.3-3.6-2.6-8-5.1
			s-8-4.9-8-5.5c0.1-0.5,0.7-1.9,1.6-3c1.4-1.9,1.6-1.9,8,1.5c5.5,3,6.6,3.3,7.4,2c1.5-2.3,1.4-2.3-5-5.8c-5.9-3.3-6.8-4.4-5.1-7
			c0.7-1.1,2.5-0.5,8.5,2.8c7.4,4,9,4.3,9.8,1.3c0.3-1.5-18.4-12.5-19.4-11.5c-1.8,1.8-12.8,22.7-12.1,22.9
			c0.4,0.2,5.1,2.8,10.3,5.8c8.6,4.9,9.6,5.3,10.8,3.8C22.4,1252.4,23,1251.4,23,1251.1z M-7.3,1230.7c0.4-2.8,1.2-4.1,2.9-4.7
			c4-1.6,5.7-7.7,3.4-12.1c-1.1-1.9-13.8-8.9-16.2-8.9c-0.7,0-3.9,5.1-7.1,11.3c-5.3,10.3-5.6,11.3-4,12.4c2.5,1.9,2.8,1.7,4.8-2.7
			c1-2.2,2.2-4,2.7-4s2.7,0.9,4.8,2c4.3,2.2,5,4.3,3,9.4c-0.7,2-0.6,2.7,0.8,3.5C-10,1238.2-8.2,1235.9-7.3,1230.7z M-34,1212.2
			c0-1.2-2.6-2.6-7.5-3.8c-3-0.7-3.5,1.9-0.8,3.5c1.6,0.8,1.4,1.1-1,2.2c-2.4,1.1-3.1,1-5.5-0.8c-3.2-2.4-3.9-6.1-1.7-10.2
			c2.6-5.1,10.9-5.5,12.1-0.7c0.3,1.3,1.6,2.8,3,3.5c2.2,1,2.4,0.8,2.4-1.5c0-5.9-4.6-10.3-10.8-10.4c-10.2,0-16.6,11.9-11.3,20.6
			c2.1,3.4,7.8,6,11.2,5.1c1.4-0.4,1.9,0,1.9,1.3c0,3.8,2.6,2.6,5.2-2.4C-35.3,1215.8-34.1,1212.9-34,1212.2z M-71.9,1205.5
			c4.3-2.3,6.9-7.1,6.9-12.8c0-4.2-0.5-5.4-3.4-8.3c-2.7-2.7-4.2-3.4-7.2-3.4c-5.1,0-10.2,3.2-12,7.5
			C-92.5,1200.3-82.6,1211-71.9,1205.5z M-102.6,1196.4c0.3-0.9,0.6-3.3,0.6-5.5c0-2.6,0.5-4.2,1.5-4.6c2.5-0.9,4.7-6.1,4-9.4
			c-0.8-3.7-3.4-5.4-12.7-8.3l-7.5-2.3l-4.1,12.6c-2.3,6.8-4,12.6-3.9,12.7s1.2,0.5,2.4,0.8c1.9,0.6,2.3,0.2,3.4-3.6
			c0.7-2.4,1.4-4.4,1.5-4.6c0.5-0.8,9,2.3,10.1,3.6c0.8,0.9,1,3.1,0.6,5.8c-0.5,4-0.4,4.4,1.5,4.4
			C-104.1,1198-102.9,1197.3-102.6,1196.4z M-151.6,1179.2c1-4.7,1-4.7,8.4-2.8c5.9,1.6,7.6,1.3,11-1.7c2.9-2.6,3-8.6,0.3-11.2
			c-2.4-2.1-17.3-6.6-18.4-5.5c-0.4,0.4-2.3,6.1-4.1,12.6c-2.9,10.5-3.1,12-1.7,12.6C-153.4,1184.3-152.5,1183.5-151.6,1179.2z
			 M-188.3,1174.4c0.8-2.2-1.2-3.2-8-4c-3.1-0.4-6-1-6.3-1.5c-0.9-1.6,0.8-6,2.2-5.5c0.8,0.3,3.6,0.8,6.4,1.2c4.6,0.6,5,0.5,5-1.4
			c0-2.3-1-2.8-7.4-3.7c-3.6-0.6-4.6-1.1-4.6-2.6c0-2.2,1.7-2.4,9.1-0.8c4.2,0.9,5.3,0.9,6-0.2c0.5-0.8,0.7-1.8,0.6-2.4
			c-0.4-1.1-10.7-3.4-15.7-3.5h-3.6l-1.7,11.1c-1,6.1-1.6,11.4-1.3,11.7c0.6,0.5,13.1,2.8,16.9,3.1
			C-189.7,1175.9-188.7,1175.3-188.3,1174.4z M-381,1167.3c8.7-7.8,3.5-23.3-7.7-23.3c-3.8,0-5,0.5-7.9,3.4
			c-3.1,3.1-3.4,3.9-3.4,9.1c0,5.3,0.3,6,3.9,9.6C-391.1,1171.1-385.7,1171.5-381,1167.3z M-239.6,1168.2c0.2-0.4,0.7-6.5,1.1-13.5
			l0.8-12.8l-3.4,0.3c-3.1,0.3-3.4,0.7-6.3,8c-1.9,4.8-3.3,7.3-3.8,6.5c-0.4-0.7-1.3-4.4-2-8.4c-1.1-6.8-1.3-7.2-4.2-7.7
			c-3.5-0.7-4.6,0.5-4.6,5c0,1.7-0.3,7.2-0.6,12.2c-0.7,8.9-0.6,9.2,1.4,9.2c1.8,0,2.2-0.8,2.8-6c0.4-3.3,1-6,1.4-6
			c0.5,0,1.4,2.8,2.2,6.3c1,4.9,1.7,6.3,3.3,6.5c1.7,0.2,2.5-0.9,4.5-6.3c1.3-3.6,2.8-6.5,3.2-6.5c0.5,0,0.5,3.2,0.2,7
			c-0.7,6.6-0.6,7,1.4,7C-241.1,1169-239.9,1168.7-239.6,1168.2z M-361.3,1167.2c0.7-0.5,1.1-2.6,1-5.2l-0.2-4.5l5.2-0.3
			c4.9-0.3,5.3-0.1,6.7,2.7c0.9,1.7,1.6,3.7,1.6,4.6s0.9,1.5,2.5,1.5c2.2,0,2.4-0.3,1.9-3.2c-0.4-1.8-1.2-4.3-2-5.5
			c-1.1-1.8-1.1-2.3,0-3.2c3.6-3,2.6-9.8-1.8-12.6c-2.1-1.4-4-1.6-11.1-1l-8.5,0.7v8.2c0,10.8,1,18.6,2.4,18.6
			C-363,1168-362,1167.6-361.3,1167.2z M-312.6,1163.5c3.3-2.2,4.9-5.9,4.9-10.9c0-10.3-4-13.6-16.4-13.6h-8.2l0.7,9.2
			c0.3,5,0.6,11.1,0.6,13.6v4.5l8.1-0.7C-318.5,1165.2-313.8,1164.3-312.6,1163.5z M-273.2,1163.8c-0.3-2.2-0.8-2.3-9.8-2.8
			l-9.5-0.5v-3v-3l7.8-0.3c6.7-0.2,7.7-0.5,7.7-2.1c0-1.4-1.1-2-4.6-2.5c-2.6-0.3-6-0.6-7.5-0.6c-2.4,0-2.9-0.4-2.9-2.5
			c0-2.5,0.1-2.5,9-2.5c8.9,0,9,0,9-2.5v-2.5h-11.4h-11.5l-0.3,13c-0.2,8,0.1,13.1,0.7,13.4c0.6,0.2,6.1,0.4,12.3,0.5
			C-272.9,1166.1-272.8,1166.1-273.2,1163.8z"/>
		<path fill="#FEFEFE" d="M97,1301c-2.4-2.4-2.5-4.1-0.5-8c3.9-7.6,13.5-6.5,13.5,1.6C110,1301.6,101.7,1305.7,97,1301z"/>
		<path fill="#FEFEFE" d="M-14.3,1219.4l-4.7-2.5l1.5-2.9c0.9-1.7,1.7-3,1.9-3c0.1,0,2.2,1,4.6,2.3c5.4,2.8,6.9,4.9,5.1,7.1
			C-7.7,1222.5-8.6,1222.4-14.3,1219.4z"/>
		<path fill="#FEFEFE" d="M-82,1199.8c-2.4-2.6-2.6-5.8-0.5-9.7c1.5-3.1,3.3-4.1,6.9-4.1c5.6,0,7.7,9,3.1,13.5
			C-75.5,1202.6-79.3,1202.7-82,1199.8z"/>
		<path fill="#FEFEFE" d="M-111,1180.6c-3.6-1.3-4.8-3.9-3.1-6.5c0.7-1.1,1.8-1,6.5,0.3c5.3,1.6,5.7,1.9,5.4,4.4
			C-102.6,1182-105.5,1182.6-111,1180.6z"/>
		<path fill="#FEFEFE" d="M-145.3,1170.8c-3.5-0.9-3.8-1.3-3.2-3.7c1-3.9,1.5-4.1,7.5-2.2c4.7,1.4,5.5,2,5.5,4.1s-0.5,2.5-3,2.7
			C-140.1,1171.8-143.2,1171.4-145.3,1170.8z"/>
		<path fill="#FEFEFE" d="M-393,1162.8c-4.1-4.4-1.6-13.8,3.6-13.8c3.7,0,6.1,1.6,7.2,4.9C-379.3,1162.1-387.4,1168.7-393,1162.8z"
			/>
		<path fill="#FEFEFE" d="M-361.1,1150.2c-1.4-3.7-1.2-4,4-4.7c6-0.8,9.1,0,9.1,2.4c0,2.7-1.9,3.8-7.4,4.3
			C-359.7,1152.5-360.3,1152.3-361.1,1150.2z"/>
		<path fill="#FEFEFE" d="M-326.3,1155c-1.2-11.5-1.4-11,4.7-11c4.7,0,5.7,0.4,7.5,2.6c4.7,5.9,1,13.2-7,14.1l-4.6,0.5L-326.3,1155z
			"/>
		<path fill="#FEFEFE" d="M-121,1328.6c0-0.3,0.4-1.6,1-3c0.8-2.1,0.6-2.7-1-3.6c-2.8-1.5-2.5-3,0.6-3c1.9,0,2.8-0.7,3.6-3.1
			l1.1-3.1l1.3,3.1c1,2.3,1.9,3.1,3.9,3.1c3,0,3.2,0.7,0.4,2.9c-1.7,1.4-1.9,2.1-1,4.4c1.2,3.1,0.9,3.3-2.3,1.2
			c-2-1.3-2.5-1.3-4.2,0C-119.5,1328.9-121,1329.4-121,1328.6z"/>
		<path fill="#FEFEFE" d="M-358,1327.1c0-0.5,0.4-2.1,1-3.5c0.8-2.3,0.6-2.9-2.1-4.8l-3.1-2.3l3.9-0.5c3.3-0.4,3.9-1,4.8-3.7
			c0.5-1.8,1.3-3.3,1.7-3.3s1.1,1.5,1.6,3.3c0.7,2.9,1.3,3.3,5.1,3.7l4.3,0.5l-3.1,1.8c-3.3,1.9-3.7,3.1-2.1,7.1
			c1.1,3.1,0.4,3.2-3,0.6c-2.4-1.8-2.5-1.8-5.7,0.1C-356.5,1327.3-358,1327.7-358,1327.1z"/>
		<path fill="#FEFEFE" d="M-180,1325.5c0.8-2,0.5-2.7-1.3-4l-2.1-1.5h2.2c1.2,0,2.7-0.9,3.4-2s1.6-2,1.9-2c0.4,0,0.9,0.9,1.2,2
			c0.3,1.3,1.4,2,2.9,2c2.2,0.1,2.2,0.1,0.4,1.5c-1.2,0.9-1.7,2.2-1.3,3.5c0.6,2.3,0.3,2.4-2.3,1c-1.3-0.7-2.1-0.6-3,0.5
			C-179.9,1328.8-181.1,1328.3-180,1325.5z"/>
		<path fill="#FEFEFE" d="M-327.2,1303.5c-0.2-1.1,0.4-2.8,1.4-3.8c1.6-1.5,1.9-1.5,2.4-0.2c0.4,0.8,1.4,1.5,2.3,1.6
			c1,0,1.1,0.2,0.4,0.6c-0.7,0.2-1.3,1.2-1.3,2.1C-322,1306.4-326.8,1306.1-327.2,1303.5z"/>
		<path fill="#FEFEFE" d="M-152.7,1300.9c1-2.6,0.9-3.2-0.6-4c-2.5-1.4-2.1-2.9,0.8-2.9c1.8,0,2.6-0.7,3.1-2.5
			c0.3-1.4,1-2.5,1.4-2.5c0.4,0,1.1,1.1,1.4,2.5c0.5,1.8,1.3,2.5,3.1,2.5c2.9,0,3.1,0.7,0.8,3.2c-1.3,1.5-1.4,2.3-0.5,4.3
			c1.3,2.9,0.6,3.2-2.6,0.9c-2-1.4-2.4-1.4-4.4,0C-153.4,1304.7-154,1304.4-152.7,1300.9z"/>
		<path fill="#FEFEFE" d="M-260,1269.4c0-0.3,0.4-1.3,1-2.3c0.7-1.4,0.5-2.3-1-3.6c-2.7-2.4-2.5-3.5,0.5-3.5c1.8,0,2.9-0.8,3.7-2.7
			l1.1-2.8l1,2.8c0.8,2,1.8,2.7,3.9,2.7c3.3,0,3.7,1.5,0.8,3c-1.5,0.8-1.8,1.7-1.3,4c0.6,3.2-0.7,4-2.7,1.5c-1.1-1.3-1.5-1.3-3.3,0
			C-258.5,1270-260,1270.4-260,1269.4z"/>
		<path fill="#FEFEFE" d="M-69.6,1242.6c-1.3-1-2.5-1.1-3.5-0.5c-2.3,1.4-3,1-2.3-1.5c0.4-1.6,0.1-2.5-1-2.9c-2.4-1-1.9-2.7,0.8-2.7
			c1.6,0,2.6-0.7,3-2.2l0.7-2.3l0.9,2.3c0.5,1.2,1.8,2.2,3,2.2c2.3,0,2.6,1.3,0.6,3c-1.1,0.8-1.2,1.8-0.6,3.6
			C-66.9,1244.4-66.9,1244.4-69.6,1242.6z"/>
		<path fill="#FEFEFE" d="M-382.7,1208.8c1.8-5,1.8-5.7-0.8-7.4c-3.5-2.3-3.1-3.4,1-3.4c3.1,0,3.6-0.3,4.2-3c0.8-4.4,2-4.5,3.3-0.5
			c1,3.1,1.6,3.5,4.6,3.5c4.1,0,4.2,0.4,0.8,3.3c-2.2,2-2.4,2.5-1.4,5.1c1.4,3.8,0.7,4.3-2.7,1.8c-2.8-2-2.9-2-5.3-0.1
			C-381.9,1210.3-383.4,1210.5-382.7,1208.8z"/>
		<path fill="#FEFEFE" d="M-66.7,1170.4c1-3.4,0.9-3.8-1.6-5.8c-3.1-2.5-2.7-3.6,1.6-3.6c2.3,0,3.1-0.6,4-3c0.6-1.6,1.5-3,1.8-3
			c0.4,0,1,1.4,1.4,3c0.6,2.6,1.1,3,4,3c4.5,0,5,1.2,1.4,3.5c-1.9,1.3-2.7,2.5-2.3,3.5c0.4,0.8,0.9,2.6,1.2,3.9l0.5,2.4l-3.2-2.3
			l-3.3-2.3l-2.8,2.2C-67.9,1174.7-68,1174.6-66.7,1170.4z"/>
	</g>
	<g id="layer2">
		<path fill="#E9D42F" d="M-407.9,1146.8c-0.1-1.2,3.1-8.9,3.5-8.5c0.3,0.2-0.4,2.4-1.5,4.8S-407.9,1147.2-407.9,1146.8z"/>
	</g>
	<g id="layer3">
		<path fill="#FEDF00" d="M-159,1669.1c-5.8-3.8-33.4-21.5-61.5-39.4c-28-17.9-54.8-35-59.5-38c-4.7-3-30.5-19.5-57.5-36.7
			c-81.4-52-145.3-92.8-157.5-100.6c-6.3-4-33.3-21.3-60-38.3s-52.3-33.4-57-36.4s-29.9-19.1-56-35.8
			c-121.5-77.5-142.5-91.1-142.5-91.9s20-13.7,141.5-91.3c25-15.9,50.9-32.5,57.5-36.7s33.4-21.3,59.5-38
			c26.1-16.7,52.9-33.8,59.5-38s33.3-21.3,59.3-37.8c25.9-16.6,68.5-43.8,94.5-60.4c25.9-16.5,52.6-33.6,59.2-37.8
			c6.6-4.2,33.4-21.3,59.5-38s53-33.9,59.7-38.2l12.3-7.9l46.7,29.9c25.8,16.4,68.9,44,95.8,61.2c27,17.2,52.8,33.7,57.5,36.7
			s30.3,19.4,57,36.4s53.7,34.3,60,38.3c12.2,7.8,76.1,48.6,157.5,100.6c27,17.2,52.8,33.7,57.5,36.7c4.7,3,30.3,19.4,57,36.4
			c26.7,17,54.2,34.6,61.3,39.1c7,4.5,12.7,8.4,12.7,8.8c0,0.7-3.5,3-71,46c-27.8,17.7-55.2,35.2-61,39
			c-5.8,3.7-31.8,20.3-57.7,36.9c-94,59.9-142,90.6-153.8,98.1c-6.6,4.2-33.4,21.3-59.5,38c-26.1,16.7-52.9,33.8-59.5,38
			c-6.6,4.2-33.3,21.3-59.2,37.8c-26,16.6-68.4,43.7-94.2,60.2c-25.9,16.5-47.1,30-47.3,30C-148.4,1675.9-153.2,1672.8-159,1669.1z
			 M-114,1530c61.1-7.9,116.4-34.3,159.7-76.3c20-19.4,32.3-34.7,46.1-57.2c12-19.6,26.8-54.4,32.3-75.9
			c7.4-28.8,9.8-70.8,5.9-102.6c-5.9-48.4-25.7-96.7-55.7-136.2c-9.9-13.1-38.8-42.1-51.8-51.9c-63.4-48.2-143.3-67.5-220.3-53.3
			c-42.2,7.7-78.8,23.3-113.7,48.2c-13.3,9.5-23.6,18.5-37.5,32.9c-20.6,21.1-34.1,39.8-48.6,67.6c-7.7,14.5-9.7,19.1-15.1,33.2
			c-4.6,12.1-10.8,40-13.5,60.5c-1.6,12.7-1.6,52.8,0,66c7.8,61.6,34.3,117.1,76.5,160.7c25.6,26.3,49.6,43.8,80.7,58.7
			c32.4,15.5,60,22.8,101.5,27C-160.4,1532.1-122.7,1531.1-114,1530z"/>
	</g>
	<g id="layer4">
		<path fill="#1EA751" d="M97.4,1302.4c-1-0.8-1.3-1.2-0.5-0.8c0.8,0.4,2.8,1.1,4.5,1.5c2.9,0.6,2.9,0.7,0.5,0.8
			C100.5,1304,98.5,1303.3,97.4,1302.4z"/>
		<path fill="#1EA751" d="M91.1,1292.2c0.6-1.6,2.2-4,3.7-5.3l2.6-2.4l-2.7,3.3c-1.5,1.9-2.7,4-2.7,4.7c0,0.8-0.4,1.6-1,2
			C90.5,1294.8,90.5,1293.9,91.1,1292.2z"/>
		<path fill="#1EA751" d="M95,1294.4c0-1.7,4-6.4,5.3-6.3c0.8,0,0.7,0.3-0.1,0.6c-0.8,0.3-2.2,1.9-3.3,3.7
			C95.9,1294.1,95,1295,95,1294.4z"/>
		<path fill="#1EA751" d="M74.3,1288.3c0.9-0.2,2.5-0.2,3.5,0c0.9,0.3,0.1,0.5-1.8,0.5S73.3,1288.6,74.3,1288.3z"/>
		<path fill="#1EA751" d="M79.1,1275.7c-2.9-3.5-3-3.8-0.7-1.7c2.4,2.2,5.2,6,4.4,6C82.6,1280,81,1278.1,79.1,1275.7z"/>
		<path fill="#1EA751" d="M61.6,1273.6c0.3-0.9,0.9-1.6,1.3-1.6c1.2,0.1,4.5,3,3.4,3c-0.7,0-1.5-0.5-1.8-1c-0.5-0.8-1.1-0.7-2.1,0.1
			C61.2,1275.1,61.1,1275,61.6,1273.6z"/>
		<path fill="#1EA751" d="M83.7,1274.3c-0.4-0.3-0.7-1.5-0.7-2.5s-0.9-2.7-2-3.8s-1.6-2-1.1-2c1.4,0,3.1,2.5,4.1,5.9
			C84.9,1275.1,84.8,1275.5,83.7,1274.3z"/>
		<path fill="#1EA751" d="M73.5,1269c-0.7-2.3,0.1-4,1.8-4c0.8,0,0.8,0.3-0.2,0.9c-0.8,0.5-1.1,1.6-0.6,3c0.3,1.1,0.4,2.1,0.1,2.1
			C74.4,1271,73.9,1270.1,73.5,1269z"/>
		<path fill="#1EA751" d="M51.3,1267.7c1.5-1.4,2.8-3.6,2.8-4.9c0.1-1.6,0.3-1.8,0.6-0.6c0.6,2.3-1.3,5.5-4,6.9
			C48.9,1270.1,49,1269.8,51.3,1267.7z"/>
		<path fill="#1EA751" d="M83.5,1265.3c-2.2-1.9-3.1-3.1-2-2.5c1.9,0.9,7.4,6.3,6.4,6.2C87.7,1268.9,85.7,1267.3,83.5,1265.3z"/>
		<path fill="#1EA751" d="M17.8,1253.4c-3.8-2-3.6-2.8,0.2-0.9c1.7,0.9,3,1.8,3,2C21,1255.2,20.9,1255.1,17.8,1253.4z"/>
		<path fill="#1EA751" d="M40.7,1252.4c-1-1.4-1.6-3-1.4-3.7c0.4-0.8,0.6-0.7,0.6,0.2c0.1,0.8,0.8,2.3,1.8,3.3c0.9,1,1.4,2,1.2,2.2
			C42.7,1254.6,41.7,1253.7,40.7,1252.4z"/>
		<path fill="#1EA751" d="M15.8,1247.4c-3.8-2-3.6-2.8,0.2-0.9c1.7,0.9,3,1.8,3,2C19,1249.2,18.9,1249.1,15.8,1247.4z"/>
		<path fill="#1EA751" d="M44,1248.4c0-1.3,2.1-3.4,3.5-3.4c0.6,0,2,0.7,3.1,1.5c1.7,1.4,1.7,1.4-1,0.3c-2.5-1.1-3-1-4.2,0.7
			C44.6,1248.5,44,1248.9,44,1248.4z"/>
		<path fill="#1EA751" d="M2.3,1244.8c-2.5-1.2-2.9-2.3-1.3-3.3c0.6-0.4,0.9-0.2,0.8,0.4c-0.2,0.5,0.6,1.7,1.7,2.5
			C5.8,1246.2,5.4,1246.3,2.3,1244.8z"/>
		<path fill="#1EA751" d="M8.8,1243.4c-3.8-2-3.6-2.8,0.2-0.9c1.7,0.9,3,1.8,3,2C12,1245.2,11.9,1245.1,8.8,1243.4z"/>
		<path fill="#1EA751" d="M42,1242c0.8-0.5,2.4-1,3.4-1c2.6,0,1.8,0.6-1.9,1.4C41.3,1242.9,40.9,1242.8,42,1242z"/>
		<path fill="#1EA751" d="M17.8,1235.4c-3.8-2-3.6-2.8,0.2-0.9c1.7,0.9,3,1.8,3,2C21,1237.2,20.9,1237.1,17.8,1235.4z"/>
		<path fill="#1EA751" d="M12.4,1231.6c-0.6-1.6,1.2-5.6,2.6-5.6c0.5,0,1.2,0.4,1.5,1c0.3,0.5,0,0.7-0.9,0.4
			c-1.6-0.6-3.2,2.9-2.1,4.6c0.3,0.5,0.4,1,0,1C13.2,1233,12.7,1232.4,12.4,1231.6z"/>
		<path fill="#1EA751" d="M-8,1229c0-1.6,0.4-3,0.8-3c0.5,0,0.7,1.4,0.4,3c-0.2,1.7-0.6,3-0.8,3C-7.8,1232-8,1230.7-8,1229z"/>
		<path fill="#1EA751" d="M-24.3,1225.5c2.7-4.9,3.8-5.4,6.9-2.9c1.8,1.5,1.8,1.5-0.3,0.5c-3.3-1.7-3.9-1.4-5.8,2.9
			c-1,2.2-2.2,4-2.6,4C-26.5,1230-25.7,1228-24.3,1225.5z"/>
		<path fill="#1EA751" d="M-29.5,1228c-0.6-0.9,1.1-5,2.1-5c0.2,0,0,0.9-0.6,2s-0.8,2.5-0.5,3c0.3,0.6,0.4,1,0.1,1
			S-29.2,1228.6-29.5,1228z"/>
		<path fill="#1EA751" d="M22.8,1226.4c-3.8-2-3.6-2.8,0.2-0.9c1.7,0.9,3,1.8,3,2C26,1228.2,25.9,1228.1,22.8,1226.4z"/>
		<path fill="#1EA751" d="M-40.7,1223.3c-0.7-0.2-1.2-1.7-1.2-3.1c0.1-2.1,0.2-2.3,0.6-0.7c0.3,1.1,1,2.6,1.5,3.3
			C-38.7,1224.1-38.8,1224.1-40.7,1223.3z"/>
		<path fill="#1EA751" d="M15.8,1222.4c-3.8-2-3.6-2.8,0.2-0.9c1.7,0.9,3,1.8,3,2C19,1224.2,18.9,1224.1,15.8,1222.4z"/>
		<path fill="#1EA751" d="M-38.9,1221.7c-0.1-0.4,0.8-2.6,2-4.8c1.1-2.3,1.8-4.8,1.4-5.7c-0.5-1.4-0.4-1.5,0.6-0.4
			c1.1,1,0.8,2.2-1.3,6.5C-37.7,1220.1-38.9,1222.1-38.9,1221.7z"/>
		<path fill="#1EA751" d="M-5.4,1219.5c0.4-0.9-0.2-2.6-1.2-3.8l-1.9-2.2l2.3,1.9c2.3,2,2.8,4.1,1.2,5.1
			C-5.6,1220.8-5.7,1220.4-5.4,1219.5z"/>
		<path fill="#1EA751" d="M-19.3,1217.4c-0.7-0.8,2.4-7.4,3.5-7.4c0.4,0-0.1,1.4-1.2,3.2c-1,1.7-1.7,3.5-1.4,4
			C-17.8,1218.1-18.4,1218.3-19.3,1217.4z"/>
		<path fill="#1EA751" d="M-48.6,1215c-1.2-0.4-2.4-1.6-2.8-2.6c-0.6-1.6-0.5-1.7,1.1-0.2c1,0.8,2.7,2,3.8,2.6
			C-44.2,1216.1-45.6,1216.3-48.6,1215z"/>
		<path fill="#1EA751" d="M-11,1208.5c-3.6-1.9-6-3.4-5.5-3.4c0.6,0,3.9,1.5,7.5,3.4s6.1,3.4,5.5,3.4
			C-4,1211.9-7.4,1210.4-11,1208.5z"/>
		<path fill="#1EA751" d="M-56.7,1207.5c0-2.2,0.2-3,0.4-1.7c0.2,1.2,0.2,3,0,4C-56.6,1210.7-56.8,1209.7-56.7,1207.5z"/>
		<path fill="#1EA751" d="M-34.8,1200.5c-1.7-3.7-1.4-4.5,0.4-1.2c0.9,1.6,1.4,3.1,1.1,3.3C-33.5,1202.8-34.2,1201.9-34.8,1200.5z"
			/>
		<path fill="#1EA751" d="M-68,1201.9c0-0.4,0.7-2.2,1.5-4c0.8-1.9,1.4-2.7,1.4-1.9C-65.1,1197.4-67.9,1203.2-68,1201.9z"/>
		<path fill="#1EA751" d="M-88.7,1194.5c0-2.2,0.2-3,0.4-1.7c0.2,1.2,0.2,3,0,4C-88.6,1197.7-88.8,1196.7-88.7,1194.5z"/>
		<path fill="#1EA751" d="M-102.8,1190.3c-0.1-2.4,0-4.3,0.2-4.3c0.2,0,1.3-0.3,2.3-0.6c1.7-0.6,1.7-0.6,0.1,0.7
			c-0.9,0.8-1.9,3-2.1,4.9C-102.7,1194.3-102.7,1194.3-102.8,1190.3z"/>
		<path fill="#1EA751" d="M-84,1191.2c0-1.7,4.5-6.2,6.2-6.2c0.7,0.1,0.2,0.7-1.1,1.4c-1.3,0.7-3,2.4-3.7,3.7
			C-83.3,1191.4-83.9,1191.9-84,1191.2z"/>
		<path fill="#1EA751" d="M-119.9,1190c0-0.8,0.4-2.4,0.9-3.5c0.5-1.3,0.9-1.4,0.9-0.5c0,0.8-0.4,2.4-0.9,3.5
			C-119.5,1190.8-119.9,1190.9-119.9,1190z"/>
		<path fill="#1EA751" d="M-66.8,1187.8c-1-3-1-3.1,0.3-1.4c1.3,1.7,2.1,4.6,1.2,4.6C-65.4,1191-66.1,1189.5-66.8,1187.8z"/>
		<path fill="#1EA751" d="M-113.5,1185c-1.3-0.5-1.4-0.9-0.5-0.9c0.8,0,2.4,0.4,3.5,0.9c1.3,0.5,1.4,0.9,0.5,0.9
			C-110.8,1185.9-112.4,1185.5-113.5,1185z"/>
		<path fill="#1EA751" d="M-105.5,1182.3c1.1-0.3,2.6-1.2,3.3-2.1c0.6-0.9,1.2-1.1,1.2-0.6c0,1.7-2.3,3.4-4.4,3.3
			S-107.5,1182.8-105.5,1182.3z"/>
		<path fill="#1EA751" d="M-112.5,1173c-1.3-0.5-1.4-0.9-0.5-0.9c0.8,0,2.4,0.4,3.5,0.9c1.3,0.5,1.4,0.9,0.5,0.9
			C-109.8,1173.9-111.4,1173.5-112.5,1173z"/>
		<path fill="#1EA751" d="M-106,1170.5c-1.9-0.7-2.8-1.4-2-1.4c0.8,0,2.9,0.6,4.5,1.4C-99.6,1172.2-101.4,1172.3-106,1170.5z"/>
		<path fill="#1EA751" d="M-387.6,1169.1c3.9-0.6,5.5-1.4,7.9-4.2c1.6-1.9,2.4-2.4,1.8-1.2c-2,3.9-6.1,6.3-10.5,6.2l-4.1-0.2
			L-387.6,1169.1z"/>
		<path fill="#1EA751" d="M-153.9,1169c0-0.8,0.4-2.4,0.9-3.5c0.5-1.3,0.9-1.4,0.9-0.5c0,0.8-0.4,2.4-0.9,3.5
			C-153.5,1169.8-153.9,1169.9-153.9,1169z"/>
		<path fill="#1EA751" d="M-253.5,1166.9c-0.4-0.6-0.4-1.3-0.1-1.6c0.3-0.4,0.6-0.1,0.6,0.6c0,0.8,0.8,1.1,2,0.8
			c1.1-0.3,2-0.1,2,0.4C-249,1168.4-252.7,1168.2-253.5,1166.9z"/>
		<path fill="#1EA751" d="M-130.9,1167.1c-0.1-0.8-0.9-2.4-1.8-3.5c-1.6-2-1.6-2,0.6,0c1.3,1.2,2.1,2.8,1.8,3.5
			C-130.7,1168.2-130.9,1168.2-130.9,1167.1z"/>
		<path fill="#1EA751" d="M-262,1166.3c0.8-0.3,1.8-1.1,2.2-1.7c0.5-0.7,0.8-0.4,0.8,0.7c0,1.1-0.7,1.7-2.2,1.6
			C-262.8,1166.9-263,1166.7-262,1166.3z"/>
		<path fill="#1EA751" d="M-139,1165.4c-3.3-1.3-3.3-1.4-0.5-0.8c1.7,0.3,3.4,1,4,1.5C-134.4,1167.2-134.7,1167.2-139,1165.4z"/>
		<path fill="#1EA751" d="M-280,1165.6c0-0.2,1.6-0.6,3.5-0.8c1.9-0.2,3.5,0,3.5,0.4c0,0.4-1.6,0.8-3.5,0.8
			C-278.4,1166-280,1165.8-280,1165.6z"/>
		<path fill="#1EA751" d="M-239.7,1161.5c0-2.2,0.2-3,0.4-1.7c0.2,1.2,0.2,3,0,4C-239.6,1164.7-239.8,1163.7-239.7,1161.5z"/>
		<path fill="#1EA751" d="M-192.3,1164.3c1.2-0.2,2.4-1.2,2.6-2.1c0.3-1.2,0.5-1,0.6,0.6c0.1,1.8-0.4,2.2-2.6,2.1
			C-194,1164.8-194.1,1164.7-192.3,1164.3z"/>
		<path fill="#1EA751" d="M-280.7,1161.3c0.9-0.2,2.5-0.2,3.5,0c0.9,0.3,0.1,0.5-1.8,0.5C-280.9,1161.8-281.7,1161.6-280.7,1161.3z"
			/>
		<path fill="#1EA751" d="M-349.3,1158.6c-0.3-0.8-2.3-1.6-4.4-1.9l-3.8-0.4l3.6-0.1c3.4-0.2,7,2,5.7,3.4
			C-348.5,1159.9-349,1159.4-349.3,1158.6z"/>
		<path fill="#1EA751" d="M-296.7,1152c0-4.7,0.2-6.6,0.4-4.2c0.2,2.3,0.2,6.1,0,8.5C-296.5,1158.6-296.7,1156.7-296.7,1152z"/>
		<path fill="#1EA751" d="M-201.3,1159.3c-0.4-0.3-0.7-1.1-0.7-1.7c0-0.7,0.3-0.7,0.8,0c0.4,0.7,1.6,1.4,2.7,1.7
			c1.9,0.5,1.9,0.5-0.1,0.6C-199.7,1159.9-201,1159.7-201.3,1159.3z"/>
		<path fill="#1EA751" d="M-147.2,1159c-1.5-0.4-3-0.5-3.4-0.1c-0.4,0.3-0.4,0.1-0.1-0.6c0.5-0.8,1.7-0.9,4.5-0.1
			c2,0.5,3.9,1.2,4.1,1.4C-141.4,1160.2-144.2,1159.9-147.2,1159z"/>
		<path fill="#1EA751" d="M-252,1157.9c0-0.5,0.4-0.8,0.9-0.5c0.5,0.3,1.2-0.6,1.5-2c0.4-1.5,0.9-2.4,1.2-2.2
			c0.8,0.8-1.5,5.8-2.6,5.8C-251.5,1159-252,1158.5-252,1157.9z"/>
		<path fill="#1EA751" d="M-259,1155.4c0-3.2,1.2-6.4,2.1-5.8c1.3,0.8,1,3.6-0.6,5.8C-259,1157.4-259,1157.4-259,1155.4z"/>
		<path fill="#1EA751" d="M-395.9,1154.9c-0.1-0.8,0.6-2.4,1.5-3.5c1.5-1.9,1.5-1.9,0.6,0.1c-0.5,1.1-1.2,2.7-1.5,3.5
			C-395.8,1156.3-395.9,1156.3-395.9,1154.9z"/>
		<path fill="#1EA751" d="M-243.5,1154.8c-0.4-1-0.4-2.6,0-3.5c0.8-1.7,0.8-1.7,1.2,0c0.3,0.9,0.3,2.5,0,3.5
			C-242.7,1156.4-242.7,1156.4-243.5,1154.8z"/>
		<path fill="#1EA751" d="M-285,1153.6c0-0.2,1.8-0.6,4-0.8c2.2-0.2,4,0,4,0.4c0,0.5-1.8,0.8-4,0.8
			C-283.2,1154-285,1153.8-285,1153.6z"/>
		<path fill="#1EA751" d="M-400,1152.3c0-0.7,1.2-2.5,2.8-4.1c1.5-1.5,2-1.9,1.1-0.7c-0.9,1.1-2.1,2.9-2.7,4S-400,1152.9-400,1152.3
			z"/>
		<path fill="#1EA751" d="M-365.7,1149.5c0-2.2,0.2-3,0.4-1.7c0.2,1.2,0.2,3,0,4C-365.6,1152.7-365.8,1151.7-365.7,1149.5z"/>
		<path fill="#1EA751" d="M-292.8,1146.8c0.3-2.8,0.7-3.3,3.1-3.4c2.7-0.1,2.7-0.1,0.1,0.3c-2.2,0.4-2.5,0.9-2.2,3.4
			c0.3,1.6,0.1,2.9-0.4,2.9S-293,1148.5-292.8,1146.8z"/>
		<path fill="#1EA751" d="M-246.9,1149.7c-0.1-0.4,0.6-2.3,1.3-4.2c1.2-2.9,2-3.5,4.3-3.4l2.8,0.2l-2.6,0.4c-2,0.3-3.1,1.4-4.2,4.1
			C-246.1,1148.8-246.8,1150.1-246.9,1149.7z"/>
		<path fill="#1EA751" d="M-352,1145c-2.1-0.7-2.1-0.8-0.5-0.9c1.1,0,2.7,0.4,3.5,0.9C-347.2,1146.1-348.5,1146.1-352,1145z"/>
		<path fill="#1EA751" d="M-352.7,1140.3c0.9-0.2,2.5-0.2,3.5,0c0.9,0.3,0.1,0.5-1.8,0.5S-353.7,1140.6-352.7,1140.3z"/>
		<path fill="#1EA751" d="M-332,1139.8c0-0.5,3.9-0.7,8.8-0.7c9.1,0.2,8.1,0.6-2.6,1.1C-329.2,1140.4-332,1140.2-332,1139.8z"/>
		<path fill="#1EA751" d="M-289.2,1139.3c2.3-0.2,5.9-0.2,8,0c2,0.2,0.1,0.4-4.3,0.4C-289.9,1139.7-291.6,1139.5-289.2,1139.3z"/>
	</g>
	<g id="layer5">
		<path fill="#193C83" d="M-151.3,1472.1c-0.5-2.3-0.4-2.4,0.8-0.8c0.7,0.9,1.8,1.7,2.5,1.7s1.8-0.8,2.5-1.7
			c1.2-1.6,1.3-1.5,0.8,0.8c-0.4,2-1.1,2.6-3.3,2.6S-150.9,1474.1-151.3,1472.1z"/>
		<path fill="#193C83" d="M-12.7,1466.7c-0.2-1.6,0-1.8,0.6-0.8c0.5,0.7,1.4,1,2,0.7c0.6-0.4,1.1-0.5,1.1-0.2c0,0.3-0.8,1-1.8,1.5
			C-12.2,1468.7-12.6,1468.4-12.7,1466.7z"/>
		<path fill="#193C83" d="M-70.8,1447.8c0.2-0.6,1.5-1.2,2.8-1.3c2.1-0.2,2.2-0.1,0.5,1.2C-69.8,1449.3-71.3,1449.4-70.8,1447.8z"/>
		<path fill="#193C83" d="M-72.2,1439.6c-1.9-1.4-2.3-2.6-1-2.6c0.4,0,1.3,0.9,2,2C-69.8,1441.3-69.9,1441.4-72.2,1439.6z"/>
		<path fill="#193C83" d="M-5.6,1439.9c-0.3-0.6-1.8-0.8-3.3-0.5c-2.5,0.5-2.5,0.5-0.3-0.6c1.9-0.9,2.6-0.8,4,0.5
			c0.9,0.9,1.3,1.7,1,1.7C-4.6,1441-5.2,1440.5-5.6,1439.9z"/>
		<path fill="#193C83" d="M-16.5,1432c-1-1.1-1.5-2-1.2-2c0.4,0,1.6,0.9,2.7,2c1.1,1.1,1.6,2,1.2,2
			C-14.3,1434-15.5,1433.1-16.5,1432z"/>
		<path fill="#193C83" d="M-36.9,1417.7c-0.1-1,0.6-2,1.4-2.3c0.8-0.4,1.5-1.3,1.5-2.1c0-0.8,0.5-1.1,1.2-0.7
			c0.8,0.5,0.5,1.2-0.9,2.3c-1.1,0.9-2.2,2.3-2.6,3.1C-36.7,1419.2-36.9,1419.1-36.9,1417.7z"/>
		<path fill="#193C83" d="M22.5,1417.4c-1.1-0.8-2.6-1.2-3.5-0.9c-1.1,0.5-1.2,0.3-0.4-0.5c1.2-1.2,6.4,0.6,6.4,2.2
			C25,1419.3,24.9,1419.2,22.5,1417.4z"/>
		<path fill="#193C83" d="M-91.3,1415.3c-0.5-0.9,0.9-5.3,1.7-5.3c0.2,0,0.2,1-0.2,2.2c-0.4,1.7-0.2,2,1.1,1.5
			c2.3-0.9,2.1,0-0.2,1.3C-90,1415.5-91.1,1415.7-91.3,1415.3z"/>
		<path fill="#193C83" d="M-83.5,1415c-0.3-0.5-0.2-1,0.3-1s0.8-1.2,0.6-2.7c-0.4-2.8-0.4-2.8,0.5-0.3c0.5,1.4,0.9,3.1,1,3.8
			C-81,1416.2-82.6,1416.4-83.5,1415z"/>
		<path fill="#193C83" d="M-14,1411.9c0-0.5,0.4-0.8,0.9-0.4c0.5,0.3,1.2,0.1,1.6-0.5c0.9-1.4,7.5-0.8,7.5,0.8c0,1.5-0.5,1.5-3,0
			c-1.6-1-2.4-1-4,0C-13.4,1413.3-14,1413.3-14,1411.9z"/>
		<path fill="#193C83" d="M13,1410.5c-1-1.2-1-1.6,0.1-1.9c3.6-1.1,5.8-1.3,5.3-0.5c-0.3,0.5-1.4,0.9-2.5,0.9
			c-2.1,0-2.6,1.6-0.6,2.3c0.7,0.4,0.8,0.6,0.1,0.6C14.8,1412,13.7,1411.3,13,1410.5z"/>
		<path fill="#193C83" d="M24.8,1411.3c1.9-0.7,1.4-2.3-0.7-2.3c-1.1,0-2.2-0.4-2.5-0.9c-0.5-0.8,1.7-0.6,5.3,0.5
			c1.1,0.3,1.1,0.7,0.1,1.9c-0.7,0.8-1.8,1.5-2.4,1.4C23.9,1411.9,24,1411.7,24.8,1411.3z"/>
		<path fill="#193C83" d="M-268,1409.6c0-0.8,0.5-1.8,1.2-2.2s0.8-0.3,0.4,0.4c-0.4,0.7-0.2,1.2,0.4,1.2c0.6,0,0.8,0.5,0.5,1
			C-266.4,1411.5-268,1411.2-268,1409.6z"/>
		<path fill="#193C83" d="M-256.9,1408.6c-2.6-2-3.8-2.3-4.8-1.4c-0.7,0.6-1.5,0.9-1.8,0.7c-0.2-0.3,0.4-1,1.5-1.6
			c1.5-1,2.3-0.8,4.3,0.7c3.1,2.5,4.1,2.5,3.2,0.3c-0.5-1.4-0.3-1.5,0.5-0.7c0.7,0.7,1,1.9,0.8,2.8
			C-253.5,1410.9-254,1410.7-256.9,1408.6z"/>
		<path fill="#193C83" d="M36.1,1404.8c0-0.7,0.4-2.2,0.8-3.3c0.5-1.2,0.4-2.6-0.3-3.5c-0.9-1.3-0.9-1.3,0.6-0.2
			c1.3,1.1,1.5,1.9,0.7,3.9c-0.5,1.3-0.7,2.9-0.3,3.4c0.3,0.5,0,0.9-0.5,0.9C36.5,1406,36,1405.4,36.1,1404.8z"/>
		<path fill="#193C83" d="M-251.7,1398.9c0.9-0.6,1.5-1.4,1.2-2c-0.4-0.5-0.1-0.9,0.4-0.9c0.6,0,1.1,0.4,1.1,0.8
			c0,1.2-2.2,3.2-3.4,3.2C-253,1400-252.7,1399.5-251.7,1398.9z"/>
		<path fill="#193C83" d="M-155.3,1387.3c-0.4-0.8,0.9-5.3,1.6-5.3c0.5,0,0.1,5-0.5,5.6C-154.5,1387.9-155,1387.8-155.3,1387.3z"/>
		<path fill="#193C83" d="M-142.1,1387.8c-0.4-1.7-0.3-5.6,0.2-5.2c1.2,0.7,1.7,4.4,0.8,5C-141.6,1387.9-142,1388-142.1,1387.8z"/>
		<path fill="#193C83" d="M-300,1380.5c-1.1-1.3-1-1.4,0.5-0.8c1.5,0.5,1.7,0.3,1.2-1.1c-0.4-1-0.3-1.5,0.3-1.1
			c1.2,0.8,1.3,4.5,0.1,4.5C-298.4,1382-299.3,1381.3-300,1380.5z"/>
		<path fill="#193C83" d="M-156.9,1376.9c-1.3-1.1-2.2-2.1-2-2.3c0.2-0.3,1.7,0.7,3.2,2c1.5,1.3,2.4,2.4,2,2.4
			C-154.1,1378.9-155.6,1378-156.9,1376.9z"/>
		<path fill="#193C83" d="M-140.3,1376.6c1.5-1.3,3-2.3,3.2-2c0.5,0.4-4.1,4.3-5.2,4.4C-142.7,1379-141.8,1377.9-140.3,1376.6z"/>
		<path fill="#193C83" d="M51.1,1373.7c-1.4-1.8-0.4-2.7,3-2.7c1.5,0,3-0.6,3.2-1.2c0.3-0.8,0.6-0.6,0.6,0.5
			c0.1,1.3-0.7,1.7-3.6,1.7c-3.6,0.1-3.7,0.2-1.9,1.5c1.1,0.8,1.5,1.5,0.9,1.5C52.7,1375,51.7,1374.4,51.1,1373.7z"/>
		<path fill="#193C83" d="M65,1372l-3.5-0.7l3.8-0.2c2,0,3.7,0.4,3.7,0.9c0,0.6-0.1,0.9-0.2,0.9C68.6,1372.8,66.9,1372.4,65,1372z"
			/>
		<path fill="#193C83" d="M-149.4,1368c0.7-2.8,1.2-3.5,1.8-2.9c0.2,0.2,0.7,1.5,1,2.9c0.6,1.9,0.5,2.2-0.3,1c-1-1.3-1.2-1.3-2.2,0
			C-149.9,1370.2-150,1369.9-149.4,1368z"/>
		<path fill="#193C83" d="M52.5,1359c-0.3-0.6,0.1-0.7,1-0.4c1.3,0.5,1.4,0.2,0.5-2.2c-0.6-1.6-0.7-2.4-0.2-1.9
			c0.5,0.6,1.3,2,1.7,3.3c0.5,1.6,0.2,2.2-0.9,2.2C53.8,1360,52.8,1359.6,52.5,1359z"/>
		<path fill="#193C83" d="M90.9,1359.8c-0.8-3.1-0.5-5.9,0.9-6.9c1.4-1.1,1.5-1.1,0.5,0c-0.7,0.8-0.9,2.6-0.6,4.2
			c0.3,1.6,0.3,2.9-0.1,2.9C91.3,1360,91,1359.9,90.9,1359.8z"/>
		<path fill="#193C83" d="M-299.4,1355.1c-0.3-0.5-0.1-2,0.4-3.3c1-2.2,1-2.2,0.6-0.1c-0.2,1.2,0.1,2.4,0.7,2.6c0.8,0.2,0.8,0.5,0,1
			C-298.4,1355.7-299.1,1355.6-299.4,1355.1z"/>
		<path fill="#193C83" d="M-381.4,1349.5c-0.3-0.9-0.6-2.4-0.5-3.3c0-0.9,0.5-0.4,1,1.2C-380,1350.6-380.3,1352.2-381.4,1349.5z"/>
		<path fill="#193C83" d="M-166,1345.7c0-1.2,1.6-1.4,6.8-0.8c0.6,0,1.2,0.6,1.2,1.1c0,0.7-0.6,0.7-2,0c-1.4-0.8-2.6-0.8-4,0
			C-165.5,1346.8-166,1346.8-166,1345.7z"/>
		<path fill="#193C83" d="M-163.7,1338.3c1.6-1.6,1.8-1.6,3.4,0c1,0.9,1.2,1.7,0.6,1.7c-0.6,0-1.4-0.6-1.7-1.2c-0.5-1-0.7-1-1.2,0
			c-0.3,0.6-1.1,1.2-1.7,1.2S-164.7,1339.2-163.7,1338.3z"/>
		<path fill="#193C83" d="M-385,1337.9c0-0.6-0.7-0.9-1.5-0.5c-0.8,0.3-1.5,0.2-1.5-0.2c0-1.2,1.9-3.7,2.3-3.2c0.8,0.9,1.8,5,1.3,5
			C-384.7,1339-385,1338.5-385,1337.9z"/>
		<path fill="#193C83" d="M-111.5,1330c-0.3-0.5-0.1-1,0.5-1c0.6,0,0.8-0.5,0.4-1.2c-0.4-0.7-0.3-0.8,0.4-0.4
			c1.4,0.9,1.6,3.6,0.3,3.6C-110.5,1331-111.2,1330.6-111.5,1330z"/>
		<path fill="#193C83" d="M-359,1329.2c0-0.5,1.1-1.4,2.5-2c1.4-0.6,2.5-1,2.5-0.8c0,0.2-1.1,1.1-2.5,2S-359,1329.7-359,1329.2z"/>
		<path fill="#193C83" d="M-348.5,1327.3c-2.8-2.4-2.8-2.5-0.3-0.9c3.6,2.1,3.9,2,2.8-0.9c-0.5-1.4-0.7-2.5-0.5-2.5
			c1,0,2.6,5.3,1.8,6.1C-345.1,1329.5-346.8,1328.7-348.5,1327.3z"/>
		<path fill="#193C83" d="M-173,1324.1c0-1.2,4-5.5,4.5-4.9c0.2,0.2-0.8,1.6-2.1,3.1S-173,1324.6-173,1324.1z"/>
		<path fill="#193C83" d="M-359.5,1319.4c-1.8-1.6-2.2-2.2-0.9-1.5c1.8,0.9,5.3,4.2,4.3,4.1
			C-356.3,1321.9-357.8,1320.8-359.5,1319.4z"/>
		<path fill="#193C83" d="M-114.8,1315.1c-0.6-1.7-0.9-3.1-0.6-3.1c0.7,0,2.5,5.2,2,5.7C-113.6,1317.9-114.2,1316.7-114.8,1315.1z"
			/>
		<path fill="#193C83" d="M-150.4,1291c0.9-1.6,1.9-3,2.4-3s1.5,1.4,2.4,3c0.8,1.7,1,3,0.5,3s-1.1-1.1-1.5-2.5
			c-0.3-1.4-1-2.5-1.4-2.5c-0.4,0-1.1,1.1-1.4,2.5c-0.4,1.4-1,2.5-1.5,2.5S-151.2,1292.7-150.4,1291z"/>
		<path fill="#193C83" d="M42,1276.9c-1.7-1.3-1.8-1.7-0.5-1c3.3,1.7,5.1,3.1,4,3.1C45,1279,43.4,1278,42,1276.9z"/>
		<path fill="#193C83" d="M26.3,1267.2c-5.5-3.6-6.8-5.2-1.8-2.2c5.9,3.5,8.1,5,7,4.9C30.9,1269.9,28.6,1268.7,26.3,1267.2z"/>
		<path fill="#193C83" d="M-247.9,1261.9c1.1-1.1,2.3-1.8,2.7-1.5c0.3,0.4-0.3,1.3-1.4,2.1C-249.4,1264.7-250.3,1264.3-247.9,1261.9
			z"/>
		<path fill="#193C83" d="M-263.3,1262.3c-1-0.9-0.9-2.3,0.2-2.3c0.5,0,1.1,0.7,1.5,1.5C-261.1,1263-262.1,1263.5-263.3,1262.3z"/>
		<path fill="#193C83" d="M-255.8,1254.8c0.2-0.5,0.8-0.9,1.3-0.9s1.1,0.4,1.3,0.9c0.1,0.5-0.4,0.9-1.3,0.9
			C-255.4,1255.7-255.9,1255.3-255.8,1254.8z"/>
		<path fill="#193C83" d="M80.5,1254c-1.6-1.1-2.5-2-2-2c1,0,6.4,3.9,5.5,4C83.7,1256,82.2,1255.1,80.5,1254z"/>
		<path fill="#193C83" d="M-8.2,1247.4c-3.9-2.1-3.5-2.8,0.5-0.8c3.7,1.9,4.4,2.4,3.1,2.4C-5.1,1248.9-6.7,1248.2-8.2,1247.4z"/>
		<path fill="#193C83" d="M-65.7,1220.4c-1.8-0.8-3.3-1.6-3.3-1.9c0-0.5,7,2.2,7.9,3C-60.3,1222.4-62.5,1221.9-65.7,1220.4z"/>
		<path fill="#193C83" d="M23,1218c-1.9-1.1-3.1-1.9-2.7-2c1.1,0,6.7,2.9,6.7,3.5C27,1220.2,26.9,1220.2,23,1218z"/>
		<path fill="#193C83" d="M-76.7,1216c-3.4-1.4-2.8-2.1,0.7-0.9c1.7,0.6,3,1.3,3,1.5C-73,1217.2-74.2,1217-76.7,1216z"/>
		<path fill="#193C83" d="M-384,1210.5c0-0.9,0.6-1.2,1.5-0.9c0.8,0.4,1.2,1,0.9,1.5C-382.4,1212.5-384,1212.1-384,1210.5z"/>
		<path fill="#193C83" d="M-101.7,1207c-3.4-1.4-2.8-2.1,0.7-0.9c1.7,0.6,3,1.3,3,1.5C-98,1208.2-99.2,1208-101.7,1207z"/>
		<path fill="#193C83" d="M-115,1202.5c-1.9-0.7-2.8-1.4-2-1.4c0.8,0,2.9,0.6,4.5,1.4C-108.6,1204.2-110.4,1204.3-115,1202.5z"/>
		<path fill="#193C83" d="M-126.5,1199c-1.3-0.5-1.4-0.9-0.5-0.9c0.8,0,2.4,0.4,3.5,0.9c1.3,0.5,1.4,0.9,0.5,0.9
			C-123.8,1199.9-125.4,1199.5-126.5,1199z"/>
		<path fill="#193C83" d="M-379.7,1195.6c0.7-1.4,1.3-2.3,1.5-2.1c0.7,0.6-0.9,4.5-1.8,4.5C-380.4,1198-380.3,1196.9-379.7,1195.6z"
			/>
		<path fill="#193C83" d="M-24,1194c-1.9-1.1-3.1-1.9-2.7-2c1.1,0,6.7,2.9,6.7,3.5C-20,1196.2-20.1,1196.2-24,1194z"/>
		<path fill="#193C83" d="M-376,1192.1c0-0.7-0.4-0.9-1-0.6c-0.5,0.3-1,0.2-1-0.4c0-0.5,0.4-1.2,0.9-1.5c1-0.6,2.5,2.4,1.6,3.2
			C-375.8,1193.1-376,1192.8-376,1192.1z"/>
		<path fill="#193C83" d="M-370.7,1175.3c0.9-0.2,2.5-0.2,3.5,0c0.9,0.3,0.1,0.5-1.8,0.5S-371.7,1175.6-370.7,1175.3z"/>
		<path fill="#193C83" d="M-247.7,1175.3c0.9-0.2,2.5-0.2,3.5,0c0.9,0.3,0.1,0.5-1.8,0.5C-247.9,1175.8-248.7,1175.6-247.7,1175.3z"
			/>
		<path fill="#193C83" d="M-71.8,1174.3c-2.4-0.8-4.1-1.7-3.9-1.9c0.2-0.2,1.8,0.1,3.6,0.7c1.7,0.6,4.1,0.9,5.2,0.6
			c1.6-0.4,1.8-0.3,0.8,0.9c-0.6,0.8-1.2,1.4-1.3,1.3C-67.4,1175.9-69.4,1175.2-71.8,1174.3z"/>
		<path fill="#193C83" d="M-67.4,1169.5c0.8-3.7,1.4-4.5,1.4-1.9c0,1-0.5,2.6-1,3.4C-67.8,1172.1-67.9,1171.7-67.4,1169.5z"/>
		<path fill="#193C83" d="M-84.5,1169.5c-2.5-1.2-2.6-1.4-0.5-0.9c1.4,0.4,2.9,1,3.5,1.5C-80.3,1171.3-81,1171.2-84.5,1169.5z"/>
		<path fill="#193C83" d="M-96.5,1165.5c-2.5-1.2-2.6-1.4-0.5-0.9c1.4,0.4,2.9,1,3.5,1.5C-92.3,1167.3-93,1167.2-96.5,1165.5z"/>
		<path fill="#193C83" d="M-347.2,1132.3c1.2-0.2,3-0.2,4,0c0.9,0.3-0.1,0.5-2.3,0.4C-347.7,1132.7-348.5,1132.5-347.2,1132.3z"/>
		<path fill="#193C83" d="M-272.2,1132.3c1.2-0.2,3-0.2,4,0c0.9,0.3-0.1,0.5-2.3,0.4C-272.7,1132.7-273.5,1132.5-272.2,1132.3z"/>
	</g>
	<g id="layer6">
		<path fill="#009B3A" d="M-948,1252V692h800h800v560v560h-800h-800V1252z M-100.9,1646c25.8-16.5,68.2-43.6,94.2-60.2
			c25.9-16.5,52.6-33.6,59.2-37.8c6.6-4.2,33.4-21.3,59.5-38c26.1-16.7,52.9-33.8,59.5-38c11.8-7.5,59.8-38.2,153.8-98.1
			c25.9-16.6,51.9-33.2,57.7-36.9c5.8-3.8,33.2-21.3,61-39c67.5-43,71-45.3,71-46c0-0.4-5.7-4.3-12.7-8.8
			c-7.1-4.5-34.6-22.1-61.3-39.1c-26.7-17-52.3-33.4-57-36.4c-4.7-3-30.5-19.5-57.5-36.7c-81.4-52-145.3-92.8-157.5-100.6
			c-6.3-4-33.3-21.3-60-38.3s-52.3-33.4-57-36.4S21.5,936.2-5.5,919c-26.9-17.2-70-44.8-95.8-61.2l-46.7-29.9l-12.3,7.9
			c-6.7,4.3-33.6,21.5-59.7,38.2s-52.9,33.8-59.5,38c-6.6,4.2-33.3,21.3-59.2,37.8c-26,16.6-68.6,43.8-94.5,60.4
			c-26,16.5-52.7,33.6-59.3,37.8s-33.4,21.3-59.5,38c-26.1,16.7-52.9,33.8-59.5,38s-32.5,20.8-57.5,36.7
			c-121.5,77.6-141.5,90.5-141.5,91.3s21,14.4,142.5,91.9c26.1,16.7,51.3,32.8,56,35.8s30.3,19.4,57,36.4s53.7,34.3,60,38.3
			c12.2,7.8,76.1,48.6,157.5,100.6c27,17.2,52.8,33.7,57.5,36.7c4.7,3,31.5,20.1,59.5,38c28.1,17.9,55.7,35.6,61.5,39.4
			c5.8,3.7,10.6,6.8,10.8,6.9C-148,1676-126.8,1662.5-100.9,1646z"/>
		<path fill="#009B3A" d="M96.2,1306.4c-1.8-0.8-3.5-2.2-3.8-3.2c-0.3-0.9-1.1-2.7-1.6-3.9c-1.2-2.5,0.9-8.1,4.5-12.1
			c5.2-5.6,16-4.6,18.3,1.9c1.8,4.9,1.7,7-0.6,11.4c-1.3,2.5-3.3,4.5-5.7,5.7C102.8,1308.3,100.6,1308.3,96.2,1306.4z M108.5,1300.3
			c2.1-2.6,2.8-9.3,1.2-11c-0.4-0.3-2.8-0.8-5.5-1.1c-4.4-0.4-5.1-0.2-7.1,2.4c-1.8,2.3-2.2,3.7-1.8,6.9c0.3,2.1,1.4,4.5,2.4,5.3
			C100.4,1304.8,106,1303.6,108.5,1300.3z"/>
		<path fill="#009B3A" d="M68.7,1285.7c-4.3-2.6-8.3-9.3-6.6-11.3c1.4-1.7,4.9,0.3,4.2,2.3c-0.9,2.2,4.6,7.3,7.8,7.3
			c3.5,0,4.6-1.6,2.5-3.9c-0.9-1-1.6-2.3-1.6-2.9c0-0.6-1-1.9-2.3-2.9c-1.2-1-2.9-3.3-3.6-5.1c-1.4-3.2-1.3-3.5,1.7-6.5l3.1-3.1
			l4.5,2.3c6.4,3.3,9.8,7.2,9.4,10.7c-0.5,4.2-2.6,4-3.8-0.4c-1.2-4.8-2.6-6.1-7-6.4c-4.4-0.4-5,1.8-1.5,5.8c7.7,8.6,8,9.2,6.2,13
			c-1.5,3-2.1,3.4-5.4,3.4C74.2,1287.9,70.8,1286.9,68.7,1285.7z"/>
		<path fill="#009B3A" d="M45.5,1269c-0.3-0.5-1.5-1-2.5-1c-3.9,0-12-11.3-9.7-13.6c1.2-1.2,5.2,2.3,5.2,4.6c0,1.9,0.9,2.9,3.7,4.2
			c2,1,4.4,1.5,5.3,1.2c2.3-0.9,1.8-4-1-5.8c-1.4-1-3-2.7-3.6-3.9c-0.5-1.2-1.6-3.2-2.3-4.5c-2.2-3.8-0.9-6.9,3.2-7.9
			c7-1.7,17.3,6.3,15.3,11.8c-0.9,2.5-5.4,0.6-4.6-2c0.4-1.3-0.4-2.6-2.5-4.5c-3.6-3-5.2-3.2-7-1.1c-1.1,1.4-0.6,2.3,3.4,6.4
			c6.1,6.2,7.1,10.8,3.1,14.5C48.6,1270.1,46.5,1270.7,45.5,1269z"/>
		<path fill="#009B3A" d="M16,1251.5c-2.5-1.3-5.8-3-7.5-3.9c-1.6-0.8-4-2.3-5.2-3.3c-2.4-2-2.1-3,3.1-11.8c1.4-2.2,3.2-5.6,4.2-7.5
			s1.9-3.7,2-3.9c0.2-0.2,4.4,2,9.5,4.8c5,2.8,9.6,5.1,10.2,5.1c0.5,0,0.4,0.7-0.3,1.5c-1.7,2.1-4.2,1.9-7.3-0.5
			c-1.4-1.1-2.9-2-3.5-2c-0.5,0-2.2-1-3.7-2.2c-2.7-2.1-2.8-2.1-4.1-0.3c-2.3,3.1-1.7,4.3,4.3,7.8c3.2,1.8,5.9,4.1,6.1,5
			c0.4,2.2-1.9,2.2-4.9-0.1c-1.3-0.9-4.1-2.5-6.1-3.4c-3.5-1.7-3.8-1.7-4.7,0c-2.3,4.3-1.8,5.1,5.9,9.5c4.1,2.3,7.6,5,7.8,6
			C22.2,1254.5,21.5,1254.4,16,1251.5z"/>
		<path fill="#009B3A" d="M-12.1,1236.3c-1.5-0.4-1.5-0.7-0.4-3.1c2.1-4.3,0.9-7.8-3.6-10.2c-2.2-1.1-4.4-2-4.9-2s-1.9,1.8-3,4
			c-2,4-3.3,4.9-4.5,3c-0.5-0.9,2.6-8,8.2-18.2l2.5-4.6l7.7,3.6c5,2.4,8.2,4.6,8.9,6.1c2.5,5.1,0.9,9.6-3.8,10.6c-2.7,0.6-3,1-3,4.5
			c0,4.1-0.8,7.1-1.9,6.9C-10.2,1236.8-11.2,1236.6-12.1,1236.3z M-4,1218.5c0-0.6-0.8-1.9-1.7-2.7c-2-1.8-10.3-6.1-10.8-5.6
			c-0.1,0.2-1,1.7-1.9,3.5l-1.6,3.2l5.8,2.9c5.2,2.6,5.9,2.7,8,1.4C-5,1220.4-4,1219.2-4,1218.5z"/>
		<path fill="#009B3A" d="M-40.4,1222.3c-0.3-0.3-0.6-1.5-0.6-2.5c0-1.3-0.4-1.7-1.2-1.1c-2.6,1.5-11.8-1-11.8-3.3
			c0-0.6-0.6-1.6-1.3-2.3c-1-0.7-1.2-2.4-0.7-5.8c1-7.7,2.9-10.5,8-12c6.3-1.8,10.4-0.3,13,4.7c2.6,5.1,2.5,5.8-0.5,5.2
			c-1.4-0.2-2.2-0.9-1.9-1.4s-0.4-2-1.6-3.3c-3.9-4.2-11.2-1.9-12.9,4.1c-2.1,7.6,2.7,12.8,9,9.7c3-1.5,3.1-1.6,1.2-2.7
			c-1.1-0.6-1.8-1.6-1.6-2.2c0.4-1.3,7.5,0.7,8,2.3C-34.8,1213.1-39.6,1223.1-40.4,1222.3z"/>
		<path fill="#009B3A" d="M-80.6,1205.8c-0.3-0.4-1.4-0.8-2.4-0.8c-4.5,0-6.6-12.5-3.1-18.5c1.2-2,3.1-3.4,6.3-4.3
			c6.4-2,11,0.2,13.4,6.3c1.5,4.2,1.5,4.7-0.2,9.5c-1.5,4.2-2.5,5.5-5.4,6.7C-76,1206.5-79.9,1206.9-80.6,1205.8z M-72.6,1199.6
			c3.8-3.9,4.2-7.4,1.3-11.8c-1.5-2.1-2.5-2.6-5.3-2.3c-4.1,0.3-6.1,1.9-7.2,6c-1.6,5.7,1.4,10.9,6.5,11.4
			C-76.6,1202.9-74.5,1201.5-72.6,1199.6z"/>
		<path fill="#009B3A" d="M-106.5,1194.1c0.8-6.6-0.9-8.6-8.7-10.5c-2.6-0.6-2.9-0.4-4,3.9c-1,3.7-1.6,4.5-3.5,4.5
			c-2.6,0-2.7-0.3-1.3-2.8c0.6-0.9,2.6-6.2,4.4-11.7c3.2-9.6,3.4-10,6-9.7c1.5,0.2,3.9,1,5.4,1.8c1.5,0.8,4.2,1.7,6,2
			c6.7,1.3,8,12.2,1.5,13.9c-2.2,0.5-2.4,1-2.2,5.2c0.3,3.8-0.1,4.9-1.9,6.1C-107,1198.3-107.1,1198.2-106.5,1194.1z M-102.2,1181.7
			c2.7-3.2-1.4-7.4-8.8-9.2c-2-0.4-2.7-0.1-3.7,2.2c-1.8,3.8-1.6,5.3,0.6,5.3c1,0,3.2,0.7,4.7,1.5
			C-105.8,1183.3-103.6,1183.4-102.2,1181.7z"/>
		<path fill="#009B3A" d="M-157.3,1181.8c0.9-1.1,2.5-6.2,2.9-9.3c0-0.5,0.5-2.1,1.1-3.5s1.3-4.2,1.7-6.2c0.4-2.1,1-3.9,1.4-4.1
			c1.1-0.6,15.3,3.1,16.9,4.5c2.4,2,3.3,5.5,2.2,8.5c-1.2,3.5-6.3,6.6-8.7,5.4c-2.7-1.4-10.3-3.3-11-2.7c-0.3,0.3-0.8,2.3-1.1,4.3
			c-0.5,3.3-1,3.8-3.6,4.1C-157.8,1183.1-158.2,1182.9-157.3,1181.8z M-134.6,1170.4c1.1-2.9-1.2-5.2-6.6-6.3
			c-5.8-1.3-7.4-0.5-8,3.9c-0.2,1.8,0.2,2.5,1.4,2.5c0.9,0,2,0.4,2.4,0.8c0.4,0.4,2.9,0.7,5.5,0.7
			C-136.6,1172-135,1171.6-134.6,1170.4z"/>
		<path fill="#009B3A" d="M-191.1,1175.6c-0.5-0.5-7.8-1.7-11.9-2c-4.8-0.3-5-0.9-3.4-9.1c0.3-1.6,0.7-4.1,0.8-5.5
			c0.2-1.4,0.6-3.3,1-4.2c0.5-1,0.6-2.4,0.3-3.2c-0.4-1.1,0.3-1.4,3.1-1.2c2,0.1,4.2,0.4,4.7,0.8c0.6,0.3,3,0.6,5.4,0.6
			c4.9,0.1,7.2,1.5,5.3,3.4c-1.4,1.4-6.8,1.3-10.8-0.2c-2.4-0.9-3.1-0.8-4.1,0.7c-2,2.7-1,3.8,3.7,4c5.4,0.2,7,0.9,7,2.8
			c0,1.3-2.7,2.1-5.5,1.5c-6-1.2-7.7-1.2-7.3,0.1c0.3,0.8,0.1,2.2-0.4,3.2c-0.7,1.4-0.3,1.9,1.8,2.7c1.5,0.6,3.5,0.8,4.4,0.5
			c1-0.3,2.1-0.1,2.5,0.5c0.3,0.5,1.9,1,3.5,1c2.3,0,2.7,0.3,2.3,2C-189.2,1175.9-190.1,1176.5-191.1,1175.6z"/>
		<path fill="#009B3A" d="M-394.6,1167.2c-2.8-2.2-5.4-7.4-5.4-10.7c0-5.7,5.8-12.5,10.4-12.5c5.7,0.1,9.8,3,11.7,8.2
			c2.1,5.9,1.5,9-2.6,13.4c-2.7,2.9-3.9,3.4-7.6,3.4C-390.7,1169-393.4,1168.3-394.6,1167.2z M-383.9,1164.1c3-2.4,3.5-9.6,1-13
			c-4.2-5.5-13.2-1.9-12.8,5.1c0.3,4,2.5,7.4,5.8,8.7C-386.6,1166.2-386.5,1166.2-383.9,1164.1z"/>
		<path fill="#009B3A" d="M-243.6,1164.3c0.3-2.7,0.8-7,1.2-9.7c0.5-3.6,0.4-4.7-0.4-4.2c-0.7,0.4-1.2,1.5-1.2,2.4
			c0,1-0.6,2.7-1.4,3.8s-1.8,3.5-2.3,5.4c-1.1,4.1-3.9,6.2-5.3,4c-0.5-0.8-1.2-3.4-1.6-5.8c-0.3-2.3-1-4.4-1.4-4.7
			c-0.4-0.2-0.5-1.5-0.3-2.9c0.3-1.3,0-2.6-0.5-3c-1.4-0.8-2.4,4-1.7,7.6c0.8,3.4-1.1,8.8-3.1,8.8c-1.1,0-1.3-1.4-0.8-6.7
			c0.3-3.8,0.7-9.3,0.8-12.5c0-3.1,0.4-5.9,0.7-6.2c0.3-0.3,2-0.3,3.6,0c2.3,0.4,3.1,1.2,3.1,2.8c0,3.3,1.2,9.7,2.1,11.5
			c0.5,0.9,0.6,2.2,0.3,3c-0.2,0.8,0.1,1.2,0.8,0.9c0.6-0.2,2.5-3.8,4.2-8c2.6-6.6,3.4-7.7,5.8-8l2.7-0.4l-0.4,7.5
			c-0.2,4.2-0.5,9.8-0.7,12.4c-0.2,4.4-1.5,6.6-3.8,6.7C-243.6,1169-243.8,1166.9-243.6,1164.3z"/>
		<path fill="#009B3A" d="M-364.2,1165.7c-0.7-1.3-1.2-6.6-1.3-12.9l-0.1-10.8l3-0.5c3.9-0.7,7.1-0.9,11.8-0.7
			c3,0.2,4.2,0.9,6.4,3.8l2.7,3.5l-2.2,4.1c-1.4,2.6-1.8,4.5-1.2,5.2c0.5,0.6,1.1,2.7,1.3,4.6c0.2,2.6-0.1,3.5-1.3,3.8
			c-1.2,0.2-1.8-0.7-2.4-3.5c-0.4-2.1-1.1-4.4-1.7-5c-1.3-1.6-5.7-1.7-9.3-0.3c-2.5,1-2.7,1.3-2.1,5.4c0.5,3.4,0.4,4.5-0.8,4.9
			C-362.4,1167.7-363.4,1167.1-364.2,1165.7z M-349,1151c4.4-2.3,0.8-7.7-4.4-6.4c-1.7,0.4-4.3,0.7-5.8,0.7c-2.5,0-2.7,0.3-2.5,3.8
			l0.1,3.8l5.3-0.4C-353.4,1152.3-350.2,1151.6-349,1151z"/>
		<path fill="#009B3A" d="M-331.4,1154c-0.4-6.7-0.4-12.5-0.1-13c0.4-0.6,4.4-1,8.9-1c8,0,8.5,0.1,11.4,3.1c3.9,4,4.6,8.7,2.3,14.7
			c-1.7,4.3-2.3,4.8-7.2,6.4c-3,0.9-7.5,1.7-10,1.7l-4.6,0.1L-331.4,1154z M-316.9,1159.8c4.3-1.4,4.9-2.3,4.9-7.9
			c0-6.1-2.1-7.9-9.4-8.4c-6.4-0.4-6.2-0.8-5,11.4c0.7,5.8,0.8,6.1,3.4,6.1C-321.5,1161-318.8,1160.5-316.9,1159.8z"/>
		<path fill="#009B3A" d="M-294.9,1165.1c-1.1-0.7-1.4-3.9-1.5-13.2l-0.1-12.4h11.3c11.1,0,12.2,0.4,10.3,3.4c-0.6,1-2.9,1.2-9.2,1
			l-8.4-0.4l-0.3,3l-0.3,3l7.6,0.1c4.2,0.1,7.9,0.4,8.2,0.8c1.6,1.5-1.9,2.7-8.5,2.9l-7.2,0.2v3.2c0,1.7,0.4,3.4,0.9,3.7
			c0.4,0.3,4.8,0.7,9.7,1c6.6,0.3,8.9,0.7,8.9,1.7C-273.5,1165.5-291.6,1167.2-294.9,1165.1z"/>
	</g>
	<g id="layer7">
		<path fill="#002776" d="M-167.5,1531.4c-41.5-4.2-69.1-11.5-101.5-27c-31.1-14.9-55.1-32.4-80.7-58.7
			c-42.2-43.6-68.7-99.2-76.5-160.7c-1.7-13.6-1.7-52.4,0-66c1.2-9.4,5.4-31.8,6.8-36.2c0.3-1.1,1.5-1.7,3.2-1.6
			c1.5,0,4.3-0.3,6.2-0.7s4.6-0.6,5.9-0.6c1.3,0.1,3-0.4,3.7-1c0.8-0.6,2.7-0.9,4.4-0.6c1.6,0.4,3.2,0.2,3.5-0.3
			c0.3-0.5,1.8-0.9,3.3-0.8c1.5,0.1,5.5-0.4,8.9-1c3.5-0.6,7.8-0.8,9.8-0.5c2,0.3,4.1,0.1,4.9-0.6c0.8-0.7,3.6-1.1,6.2-1.1
			c2.7,0.1,10.1-0.2,16.4-0.6c21.7-1.5,63.3-0.9,87,1.1c3,0.3,8,0.7,11,0.9c3,0.2,7.8,0.7,10.5,1.1c10.2,1.3,12.1,1.5,14.9,1.6
			c1.6,0,3.5,0.4,4.1,0.9c0.7,0.6,2.3,1,3.6,0.9c1.3,0,4,0.2,5.9,0.6c1.9,0.3,5.7,0.8,8.5,1.1c2.7,0.3,5.5,1,6.2,1.5
			c0.7,0.6,1.8,0.9,2.5,0.7c0.7-0.3,3.2,0.1,5.7,0.9c2.4,0.7,4.7,1,5.1,0.8c0.5-0.3,1.2-0.1,1.5,0.5c0.4,0.6,1.5,0.8,2.5,0.5
			s2.1-0.2,2.4,0.4c0.3,0.5,2.2,0.9,4.1,0.9c2,0,4.2,0.5,5,1.2c0.8,0.6,1.9,0.9,2.4,0.6c0.5-0.4,1.3-0.1,1.6,0.5
			c0.4,0.5,1.3,0.8,2.1,0.5c0.7-0.3,1.6-0.1,2,0.5c0.3,0.5,1.3,0.9,2.2,0.7c1-0.1,2.3,0.1,2.9,0.5c0.7,0.5,3.2,1,5.5,1.3
			c2.3,0.3,4.8,1,5.5,1.6c0.7,0.5,1.6,0.7,2,0.5c0.5-0.3,2.6,0.3,4.8,1.4c2.2,1,5.6,2.1,7.5,2.5c1.9,0.3,5,1.2,6.8,2.1
			c1.8,0.8,4.3,1.6,5.5,1.7c2.4,0.4,4.6,1.1,9.5,3.3c1.8,0.8,3.6,1.2,4.1,0.9c0.4-0.3,1.7,0.1,2.7,0.9s2.7,1.5,3.7,1.5
			c0.9,0,2.5,0.4,3.5,0.9c0.9,0.5,2.8,1.3,4.2,1.9c1.4,0.5,4.1,1.7,6.2,2.6c2,0.9,4.1,1.6,4.6,1.6c0.6,0,3.3,1.1,6,2.5
			c2.8,1.4,5.5,2.5,6.1,2.5s1.9,0.4,2.9,0.8c0.9,0.5,3.8,1.8,6.5,3c9.5,4.2,14.2,6.4,15.7,7.3c0.8,0.5,2.2,1.2,3,1.5
			c1.4,0.5,12.8,6.1,28,13.9c3.3,1.7,6.5,3.6,7.2,4.3c0.6,0.6,1.9,1.2,2.8,1.2s2.5,0.9,3.5,2s2.6,2,3.5,2s2.5,0.9,3.5,2s2.2,2,2.7,2
			s2.4,1.1,4.1,2.4c3.5,2.6,11,7,14.3,8.5c1.2,0.5,3.4,2.1,4.9,3.5s3.3,2.6,4,2.6c0.6,0,2.7,1.4,4.5,3c1.8,1.7,3.9,3,4.5,3
			c0.7,0,2,0.9,3,2s2.4,2,3,2c0.7,0,1.5,0.7,1.9,1.5c0.3,0.8,1,1.5,1.5,1.5c0.6,0,2.2,1.1,3.7,2.5s3.3,2.5,3.9,2.5
			c0.7,0,1.5,0.7,1.9,1.5c0.3,0.8,1.2,1.5,1.9,1.5c0.8,0,3,1.6,5,3.5s4,3.5,4.4,3.5c0.5,0,1.4,0.9,2.1,2c0.7,1.1,1.8,2,2.5,2
			c0.7,0,1.8,0.9,2.5,2c0.7,1.1,1.9,2,2.7,2s1.9,0.9,2.5,2s1.7,2,2.5,2s2.2,1.1,3.1,2.5s2.1,2.5,2.7,2.5c0.6,0,2.3,1.1,3.7,2.5
			s4.3,4,6.5,5.9l3.9,3.4l-4.3,11.8c-10.9,30-28.6,60.6-49.2,85c-10.7,12.6-32.3,33.1-45,42.6c-40,30-85.3,48.4-134.9,54.8
			C-122.7,1531.1-160.4,1532.1-167.5,1531.4z M-144.7,1472.4c0.4-2.4-1.8-3.6-5.1-2.7c-1.3,0.3-1.8,1.1-1.5,2.7
			c0.4,1.7,1.2,2.3,3.3,2.3C-145.9,1474.7-145.1,1474.1-144.7,1472.4z M-8.6,1465.8c0.3-1,0.8-0.8,1.6,0.5c1.6,2.6,3,2.1,3-1.2
			c0-1.8,0.8-3.4,2.3-4.4c2.2-1.6,2.1-1.6-1.5-1.6c-3.3-0.1-3.8-0.4-3.8-2.5c0-3.2-1.8-4.3-2.2-1.5c-0.2,1.2-1.2,2.7-2.3,3.3
			s-2.2,1.2-2.4,1.3c-0.2,0.2,0.4,1.1,1.3,2.2c1.1,1.2,1.4,2.1,0.7,2.6c-0.6,0.3-1.1,1.5-1.1,2.6c0,1.6,0.3,1.8,1.9,0.9
			C-10,1467.5-8.9,1466.5-8.6,1465.8z M-66.9,1446.9c1.5-1.5,2.4-1.8,3.2-1c0.6,0.6,2,1.1,3,1.1c1.6,0,1.9-0.5,1.3-3
			c-0.5-2.6-0.2-3.2,1.8-4c3.5-1.3,4.4-3.2,1.1-2.4c-2.8,0.7-6.5-1.7-6.5-4.3c0-2.4-1.8-1.4-3.2,1.8c-1.2,2.7-1.7,3-4.5,2.5
			c-4.1-0.6-4.3,0.8-0.3,2.6c3.4,1.4,3.7,2.5,1.5,5.4C-72.4,1449.4-70.4,1450.4-66.9,1446.9z M-1.8,1440.8c-2.3-2.3-0.4-8.8,2.7-8.8
			c0.6,0,1.1-0.5,1.1-1c0-0.7-1.3-0.9-3.2-0.5c-2.9,0.5-3.5,0.2-4.5-2.2c-0.7-1.5-1.3-3.3-1.3-4.1c0-0.7-0.4-1-1-0.7
			c-0.5,0.3-1,1.4-1,2.4c0,3-3.4,5.3-6.6,4.5l-2.9-0.7l1.9,2.2c1.1,1.1,2.6,2.1,3.4,2.1c1.1,0,1.3,0.8,0.8,3.5l-0.7,3.4l3-1
			c2.4-0.8,3.5-0.7,5.3,0.5C-2.2,1442.3-0.1,1442.5-1.8,1440.8z M-40.4,1419.8c0.7-0.5,1.4-0.3,1.8,0.7c0.9,2.5,2.6,1.7,2.6-1.3
			c0-1.7,0.8-3.2,2-4c2.8-1.7,1.8-3-2-2.4c-2.7,0.4-3,0.2-3-2.2c0-3.1-1.5-3.5-2.3-0.5c-0.3,1.1-1.5,2.3-2.6,2.6
			c-2.5,0.6-2.7,1.9-0.6,3.1c1.3,0.6,1.4,1.4,0.6,3.5c-0.9,2.2-0.8,2.5,0.7,2C-42.3,1421-41,1420.3-40.4,1419.8z M22.7,1417.5
			c2.5,1.7,2.6,1.7,1.8-0.1c-1.6-4.1-1.5-4.9,0.7-5.9c3-1.3,2.9-2.9-0.2-3.3c-1.4-0.2-3.1-0.9-3.7-1.4c-0.9-0.7-1.7-0.7-2.5,0
			c-0.7,0.5-2.4,1.2-3.8,1.4c-3.1,0.4-3.2,2-0.2,3.3c2.2,1,2.3,1.8,0.7,5.9c-0.8,1.8-0.7,1.8,1.8,0.1
			C19.9,1415.9,20.1,1415.9,22.7,1417.5z M-86.8,1412.8c0.3-0.8,1.1-0.5,2.3,1c2.7,3.1,3.8,2.7,3-1c-0.6-2.6-0.3-3.4,1.6-4.9
			l2.4-1.9h-3.1c-2.2,0-3.4-0.7-4.4-2.5c-1.4-2.6-3.2-2.4-2.8,0.3c0.2,1.3-0.6,1.8-2.9,2c-3.2,0.3-4.8,2.2-1.9,2.2
			c2.2,0,2.7,1.5,1.7,4.3c-0.5,1.4-0.7,2.7-0.4,3.1C-90.5,1416.1-87.3,1414.3-86.8,1412.8z M-11,1411.8c1.6-1,2.4-1,4.1,0
			c2.6,1.7,3.7,0.7,2.1-1.8c-1.7-2.7-1.6-2.9,1.6-4.2l2.7-1.1l-3.5-0.6c-2.9-0.5-3.6-1.1-3.8-3.3c-0.2-1.6-0.7-2.8-1.2-2.8
			s-1,1.2-1.2,2.8c-0.2,2.1-0.9,2.8-3.1,3c-2.5,0.3-2.6,0.5-1.1,1.9c1,1.1,1.4,2.6,1,4.5C-14,1413.4-13.8,1413.5-11,1411.8z
			 M-265.3,1409.8c0.4-0.7,1.8-1.8,2.9-2.5c1.8-1,2.7-0.8,5.5,1.3c3.6,2.6,4.9,1.8,3-1.9c-1.9-3.8-1.7-4.9,1.3-6.6
			c4.7-2.7,4.3-3.9-0.9-3.4c-4,0.5-4.5,0.3-4.5-1.5c0-1.1-0.6-3.1-1.3-4.5l-1.3-2.5l-1.2,4.4c-1.2,4.3-1.3,4.4-5.4,4.4h-4.2l3.2,3.3
			c3,3.1,3.1,3.4,1.7,6.1c-0.8,1.5-1.5,3.2-1.5,3.7C-268,1411.4-266.2,1411.2-265.3,1409.8z M38,1405.3c0-1.2,4.9-3.2,5.5-2.3
			c0.3,0.4,1.4,1,2.6,1.3c1.9,0.5,2.1,0.2,1.6-2.1c-0.6-2.8,1.2-6.2,3.2-6.2c0.6,0,1.1-0.4,1.1-1c0-0.5-1.8-1-4-1
			c-3.1,0-4-0.4-4.1-1.7c-0.3-3.7-0.4-4.3-1.1-4.3c-0.5,0-0.8,0.3-0.9,0.8c0,0.4-0.5,1.2-1.1,1.9c-0.5,0.7-0.7,1.7-0.3,2.3
			c0.4,0.6-0.9,1-3.4,1c-2.3,0-4.1,0.5-4.1,1c0,0.6,0.6,1,1.3,1c1.9,0,3.5,3.3,2.6,5.5c-1.1,2.8-1.1,4.5,0.1,4.5
			C37.6,1406,38,1405.7,38,1405.3z M-144.5,1385.4c1.5,1.4,3.1,2.3,3.5,2.1c1-0.6,0.1-4.3-1.1-5.1c-1.7-1-0.9-2.9,2.1-4.9
			c1.6-1.1,3-2.3,3-2.7c0-0.4-1.9-0.8-4.2-1c-4.1-0.3-4.3-0.4-5.1-4.5c-0.4-2.4-1.2-4.3-1.7-4.3s-1.3,1.9-1.7,4.3
			c-0.8,4.1-1,4.2-5.1,4.5c-2.3,0.2-4.2,0.6-4.2,1c0,0.4,1.4,1.6,3,2.7c3.5,2.3,3.5,2.4,1.6,6.1c-2.2,4.1-1,4.7,3.3,1.8l3.9-2.5
			L-144.5,1385.4z M57.2,1380.8l3-2.3l1.5,2.3c0.9,1.2,1.9,2.2,2.4,2.2c1.3,0,1.1-4.4-0.2-5.7c-0.8-0.8-0.2-1.6,2-2.9
			c4.1-2.4,3.9-3.4-0.8-3.4c-3.4,0-3.9-0.3-4.8-3.2l-1-3.3l-1.3,3.2c-0.9,2.5-1.8,3.2-4.3,3.5c-3.9,0.4-4.1,1.9-0.4,3.6
			c3.1,1.5,3.3,2.1,1.2,4.8C51.6,1383.5,52.7,1384,57.2,1380.8z M-303.6,1379.9l1.8-2.1l1.4,2.1c0.8,1.2,1.9,2.1,2.5,2.1
			c1.3,0,1.2-3.7-0.2-4.5c-0.7-0.5-0.4-1.4,0.7-2.6c1.6-1.8,1.6-1.9-0.4-1.9c-1.3,0-2.2-0.7-2.4-2c-0.4-2.7-2.1-2.8-3.3-0.1
			c-0.5,1.1-1.8,2.1-2.7,2.1c-2.2,0-2.3,1.3-0.3,3c1.1,0.9,1.2,1.7,0.5,3C-308,1382.6-306.5,1383.2-303.6,1379.9z M55.5,1357.8
			c-0.4-1.3-1.1-2.7-1.6-3.2c-1.6-1.8-0.9-3.6,1.6-4.6c4.1-1.5,3.2-4-1.4-4c-3.7,0-4-0.2-4.3-3.2c-0.2-1.8-0.7-3.3-1.3-3.3
			c-0.5,0-1.6,1.5-2.4,3.3c-1.2,2.7-2,3.2-4.7,3.2c-3.7,0-5.6,1.9-2.6,2.7c2.9,0.7,4.9,4.8,3.2,6.8c-2.2,2.6,0.3,3.9,3,1.7
			c2-1.6,2.8-1.7,4.5-0.8c1.1,0.6,2.4,1.7,2.8,2.4c0.4,0.6,1.5,1.2,2.3,1.2C55.7,1360,56,1359.4,55.5,1357.8z M89.6,1358.1l2.7,2.4
			l-0.6-2.9c-0.3-1.8,0.1-3.9,1-5.3c1.5-2.2,1.4-2.3-1-2.3c-1.6,0-3.1-0.8-3.7-2c-1.2-2.2-3.5-1.7-2.6,0.6c0.4,1-0.2,1.4-1.9,1.4
			c-2.8,0-3.3,2.1-1,4c1.1,0.9,1.2,1.7,0.5,3c-1.7,3.1-1.1,3.5,1.5,1l2.5-2.3L89.6,1358.1z M-294.3,1352.6c1.5-0.5,2.7-0.1,4.1,1.4
			c1.2,1.3,2.2,1.7,2.6,1.1c0.4-0.5,0.2-1.2-0.4-1.6c-0.6-0.4-0.8-1.1-0.4-1.6c0.3-0.5,0.1-1.6-0.5-2.3c-0.9-1-0.7-1.5,0.9-1.9
			c2.9-0.8,2.6-3.7-0.5-3.7c-2.5,0-4.6-2.5-3.8-4.7c0.2-0.6,0-1.4-0.5-1.7c-0.5-0.3-1.5,1-2.2,2.9c-1,2.6-2,3.5-3.7,3.5
			c-2.8,0-3.2,3-0.4,3.7c1.7,0.4,1.7,0.7,0.4,3.4c-1.6,3.2-0.7,6.2,1.1,3.7C-297,1354-295.5,1353-294.3,1352.6z M-388.5,1351
			c0.8-1.3,5.2-1.3,6,0c1.3,2,2.4-0.1,1.8-3.5c-0.4-2.7-0.2-3.5,0.9-3.5c0.9,0,2.1-0.7,2.8-1.5c1-1.2,0.6-1.3-2.3-0.8
			c-3.7,0.6-4.9-0.4-5.3-4.5c-0.2-1.3-0.6-2.7-0.9-3c-0.8-0.9-2.6,2-2.1,3.5c0.8,2.1-3.1,4.6-6.1,3.9c-2.4-0.5-2.6-0.5-1.1,0.6
			c0.9,0.7,2.5,1.8,3.5,2.4c1.5,1,1.6,1.5,0.6,3.3c-0.7,1.1-1.3,2.5-1.3,3.1C-392,1352.3-389.3,1352.3-388.5,1351z M-160,1346
			c2.2,1.2,2.7,0.1,0.8-1.9c-1.1-1-0.8-1.6,1.2-3.2c1.4-1.1,1.8-1.8,1-1.6c-0.8,0.2-2.3-0.2-3.2-1c-1.5-1.4-2-1.3-4.3,0.5
			c-2.1,1.7-2.3,2.1-0.8,2.6c1.2,0.5,1.4,0.9,0.5,1.8c-0.7,0.7-1.2,1.8-1.2,2.5c0,1.1,0.5,1.1,2,0.3
			C-162.6,1345.2-161.4,1345.2-160,1346z M-118,1327.9c0-1.6,5.1-0.1,6.6,1.9c2,2.8,2.9,0.4,1.1-2.7c-2.2-3.8-2.2-4,0.9-5.1
			c3-1.2,2.3-3-1.2-3c-1.3,0-2.4-0.4-2.4-0.9s-0.5-2.2-1.1-3.8l-1.1-2.8l-1.2,3.5c-1,2.7-1.9,3.6-3.9,3.8c-3.2,0.4-3.7,3.1-0.7,3.9
			c1.3,0.4,1.7,0.9,1.2,1.7c-0.5,0.6-1.2,2.4-1.6,3.9c-0.6,2.6-0.5,2.7,1.4,1.7C-118.9,1329.4-118,1328.4-118,1327.9z
			 M-353.8,1325.8c1.7-1.6,2-1.5,5,1.2c3.9,3.6,5.7,2.5,3.4-2.1c-2-4-2-4.9-0.1-4.9c0.9,0,1.8-0.7,2.1-1.5c0.4-0.8,1.2-1.5,2-1.5
			s1.4-0.4,1.4-0.8c0-0.5-2.1-0.8-4.7-0.8c-4.4,0.1-4.8-0.1-5.1-2.4c-0.2-1.4-0.5-3.1-0.8-3.9c-0.7-2-3.1,0.4-3.9,4
			c-0.6,2.5-1.1,2.9-4.1,2.9c-4.1,0-4.3,0.7-0.7,3.6c2,1.6,2.4,2.5,1.8,4c-0.5,1-1,2.9-1.1,4.2c-0.3,2.1-0.1,2.2,1.4,1.1
			C-356.3,1328.1-354.7,1326.8-353.8,1325.8z M-177.6,1327.1c0.3-0.4,1.8-0.6,3.2-0.3c1.8,0.3,2.5,0.1,2-0.6c-0.3-0.6,0.6-2.4,2-4.1
			l2.6-3.1l-3.1,0.6c-2.4,0.5-3.1,0.3-3.1-0.9c0-2.6-2.1-3-3.7-0.7c-1.1,1.6-2.2,2-3.9,1.6c-1.4-0.4-2.4-0.2-2.4,0.4
			c0,0.5,0.6,1,1.3,1c2.4,0,3.6,2.1,2.7,4.6c-0.7,1.8-0.6,2.4,0.5,2.4C-178.8,1328-177.9,1327.6-177.6,1327.1z M-320.6,1303.3
			c1.6-2.2,1.6-2.3-0.3-2.3c-1.4,0-2.3-0.9-2.8-2.7l-0.7-2.8l-0.6,2.5c-0.5,1.8-1.2,2.4-2.8,2.3c-1.2-0.2-2.2,0.2-2.2,0.7
			c0,0.6,0.7,1,1.6,1c1,0,1.3,0.6,0.9,1.9C-328.3,1306.7-322.8,1306.2-320.6,1303.3z M-150.2,1302.4c2-1.4,2.4-1.4,4.4,0
			c3.2,2.3,3.8,2,2.8-1.3c-0.6-2.2-0.5-3.1,0.6-3.5c2.1-0.8,1.7-3.3-0.6-3.9c-1.1-0.3-2.4-1.7-3-3.1c-0.5-1.4-1.4-2.6-2-2.6
			c-0.6,0-1.5,1.2-2,2.6c-0.6,1.4-1.9,2.8-3,3.1c-2.3,0.6-2.7,3.1-0.6,3.9c1.1,0.4,1.2,1.3,0.6,3.5
			C-154,1304.4-153.4,1304.7-150.2,1302.4z M-258.3,1270.6c0.4-0.8,1.5-1.5,2.3-1.6c2.2-0.3,6,1.1,6,2.2c0,0.5,0.5,0.6,1,0.3
			c0.7-0.4,0.7-1.1,0.2-1.8c-2.5-3.1-2.2-5.2,0.8-6.5c4-1.8,3.8-3.2-0.4-3.2c-3.3,0-4.7-1.4-5-4.7c-0.2-2.5-2.1-1.4-3,1.6
			c-0.8,2.7-1.4,3.1-4.2,3.1c-4,0-4.5,1.6-0.8,3c2,0.8,2.4,1.5,1.9,3.3c-0.4,1.2-0.9,3-1.1,4
			C-261.2,1272.3-259.4,1272.6-258.3,1270.6z M-67.9,1240.6c-0.8-1-0.7-1.7,0.4-2.6c2-1.7,1.9-2.4-0.7-3.5c-1.3-0.6-2.4-2-2.6-3.3
			c-0.4-2.9-2.2-1.8-2.2,1.4c0,2.1-0.5,2.4-3.7,2.5c-3.7,0-3.8,0-1.5,1.6c1.2,0.9,2.2,2.6,2.2,3.9c0,2.7,0.3,2.8,2.9,1.4
			c1.4-0.7,2.3-0.4,3.7,1.1c1.7,1.9,1.9,1.9,2.2,0.5C-67,1242.7-67.3,1241.3-67.9,1240.6z M-379.8,1208.9c2.7-2.6,3.3-2.8,4-1.5
			c0.5,0.9,1.4,1.6,2,1.6s1.7,0.8,2.4,1.7c1.8,2.6,2.5,1.2,1.3-3c-1-3.7,0.1-7.7,2.1-7.7c0.6,0,1-0.4,1-1c0-0.5-1.6-1-3.5-1
			c-3,0-3.5-0.4-4.1-2.7c-0.3-1.6-0.9-3.7-1.4-4.8c-0.7-1.8-0.9-1.7-1.9,1c-1.8,4.9-2.7,6-5.2,6.3c-3.7,0.6-4.5,2-1.7,3.1
			c3.1,1.2,4.2,2.7,2.7,3.6c-0.5,0.4-0.8,1.3-0.5,2.1c0.3,0.7,0.1,1.6-0.4,1.9c-1.1,0.7-1.4,3.5-0.4,3.5
			C-383.1,1212-381.5,1210.6-379.8,1208.9z"/>
		<path fill="#002776" d="M126.5,1288.6c-1-1.4-2.3-2.6-3-2.6s-2-1.1-2.9-2.5s-2.3-2.5-3.1-2.5s-1.9-0.9-2.5-2s-1.7-2-2.4-2
			c-0.8,0-1.6-0.7-2-1.5c-0.3-0.8-1.2-1.5-2-1.5c-0.7,0-1.6-0.7-2-1.5c-0.3-0.8-1.2-1.5-2.1-1.5c-0.8,0-1.5-0.5-1.5-1
			c0-0.6-0.8-1.4-1.7-1.7c-2-0.7-15.7-10.8-18.4-13.5c-1-0.9-3.3-2.4-5.3-3.3c-2-1-4.6-2.8-5.9-4.1c-1.2-1.3-2.7-2.4-3.4-2.4
			c-0.6,0-2.5-1.1-4.1-2.5c-1.7-1.4-3.4-2.5-4-2.5c-0.5,0-1.5-0.7-2.2-1.5s-3.1-2.4-5.4-3.4c-2.2-1-5.8-3.2-7.9-4.9
			c-2.1-1.7-5.9-4.1-8.4-5.3c-2.5-1.2-6.8-3.7-9.5-5.5c-2.8-1.9-5.4-3.4-6-3.4c-0.5,0-2.1-0.9-3.5-2s-3.4-2-4.3-2
			c-1,0-4.1-1.6-7-3.5s-5.8-3.5-6.5-3.5s-2.4-0.9-3.8-2s-3.1-2-3.7-2c-0.7,0-4.9-2-9.4-4.4c-4.4-2.4-9.5-4.7-11.3-5
			c-1.7-0.4-3.7-1.4-4.4-2.2c-0.6-0.8-1.9-1.4-2.8-1.4s-2.5-0.7-3.5-1.5c-1.1-0.8-2.8-1.5-3.9-1.5c-1.1,0-4-1.1-6.6-2.4
			c-2.5-1.3-7.1-3.1-10.1-4.1c-6.8-2.2-7.2-2.5-5.5-4.9c1.8-2.4,6.8-2.5,9.3-0.3c2.8,2.5,3.2,2.1,1.5-1.4c-1.3-2.6-1.3-3.5-0.3-5.5
			c0.8-1.3,1.9-2.4,2.5-2.4c0.7,0,1.8-0.6,2.4-1.3c0.9-1.1,0.3-1.4-3.1-1.5c-4.4-0.2-6.7-2.2-6.8-5.9c0-1.3-0.4-2.3-1-2.3
			c-0.5,0-1,0.6-1,1.3c0,3.4-2.6,6.7-5.2,6.7c-3.5,0-4.4,1.6-1.8,3c1.7,0.9,2,1.9,1.7,5c-0.2,2.2-0.6,4.2-0.9,4.5
			c-0.7,0.7-11.7-2.2-13.3-3.5c-0.7-0.6-2.6-1.2-4.2-1.4c-1.7-0.2-5.1-1.4-7.7-2.5c-2.6-1.2-5.1-1.9-5.6-1.6s-1.1,0.1-1.5-0.5
			c-0.3-0.5-1.5-1-2.5-1s-3.1-0.5-4.7-1.2c-1.5-0.7-3.2-1.3-3.8-1.3c-0.5-0.1-2.3-0.7-4-1.4c-1.6-0.7-4.1-1.4-5.5-1.6
			c-1.4-0.2-2.7-0.5-3-0.6c-0.3-0.1-0.9-0.3-1.5-0.4c-3.1-0.4-12.1-2.9-13-3.4c-0.5-0.4-2.3-0.8-3.9-0.9c-1.6-0.1-3.4-0.6-4-1
			c-0.6-0.5-2.4-0.9-4-1c-1.6-0.1-3.5-0.7-4.2-1.3c-0.7-0.5-1.8-0.9-2.6-0.7c-1.6,0.3-13.4-2-16.3-3.2c-1.1-0.5-2.7-0.9-3.5-0.9
			c-4.1-0.2-10.6-1.3-11.5-2.1c-0.6-0.5-2.1-0.7-3.3-0.3c-1.2,0.3-2.8,0.1-3.5-0.4c-0.6-0.5-3.3-1-6-1.1c-2.6-0.1-5.6-0.6-6.6-1.1
			c-1-0.6-2.7-0.8-3.8-0.5c-1.2,0.3-2.4,0.1-2.7-0.5c-0.4-0.6-2-0.8-3.6-0.4c-1.7,0.3-3.6,0.1-4.3-0.5c-0.7-0.6-2.8-1-4.7-1
			c-1.9,0.1-6-0.2-9-0.6c-5.7-0.8-10.4-1.2-23-2.1c-9.5-0.7-88-0.7-98,0c-9.8,0.6-16.2,1.2-23,2.1c-3,0.4-7.1,0.7-9,0.6
			c-1.9,0-4,0.4-4.7,1c-0.7,0.6-2.2,0.8-3.4,0.5c-1.2-0.3-3.2-0.2-4.5,0.3c-1.3,0.5-2.4,0.7-2.4,0.4c0-1.5,13.6-27,18.6-34.9
			c14.2-22.4,36.8-48.4,56.8-65.4c70.6-59.8,167.1-80.7,256.8-55.6c32.5,9.1,66.2,26.1,94.3,47.4c13,9.8,41.9,38.8,51.8,51.9
			c26.3,34.5,44.2,74.5,52.6,117.2c2.9,15,4.1,25.3,4.8,43.5c0.6,16.1-1.1,46.2-2.7,47.9C128.6,1290.8,127.4,1290,126.5,1288.6z"/>
	</g>
</g>
</svg>
