<?xml version="1.0" encoding="utf-8"?>
<!-- Generator: Adobe Illustrator 21.0.2, SVG Export Plug-In . SVG Version: 6.00 Build 0)  -->
<svg version="1.1" id="Layer_1" xmlns="http://www.w3.org/2000/svg" xmlns:xlink="http://www.w3.org/1999/xlink" x="0px" y="0px"
	 viewBox="0 0 900 600" style="enable-background:new 0 0 900 600;" xml:space="preserve">
<style type="text/css">
	.st0{fill:#DE2910;}
	.st1{fill:#FFDE00;}
</style>
<rect class="st0" width="900" height="600"/>
<g transform="translate(5,5) scale(3)">
	<path id="s" class="st1" d="M150,60.1l52.9,162.8L64.4,122.3h171.2L97.1,222.9L150,60.1z"/>
</g>
<g transform="translate(10,2) rotate(23.036243)">
	<path id="s_1_" class="st1" d="M311.7,32.4l-5,56.8l-29.4-48.9l52.5,22.3l-55.6,12.8L311.7,32.4z"/>
</g>
<g transform="translate(12,4) rotate(45.869898)">
	<path id="s_2_" class="st1" d="M381.5,99.1l-26.7,50.4l-8.1-56.5l39.7,41l-56.2-9.8L381.5,99.1z"/>
</g>
<g transform="translate(12,7) rotate(69.945396)">
	<path id="s_3_" class="st1" d="M388.2,199.7l-44.9,35.2l15.7-54.9l19.6,53.6l-47.3-31.9L388.2,199.7z"/>
</g>
<g transform="translate(10,9) rotate(20.659808)">
	<path id="s_4_" class="st1" d="M310.6,241.9l-2.6,57l-31.4-47.7l53.4,20.1l-55,15.1L310.6,241.9z"/>
</g>
</svg>
