<?xml version="1.0" encoding="utf-8"?>
<!-- Generator: Adobe Illustrator 19.0.0, SVG Export Plug-In . SVG Version: 6.00 Build 0)  -->
<svg version="1.0" id="Layer_1" xmlns="http://www.w3.org/2000/svg" xmlns:xlink="http://www.w3.org/1999/xlink" x="0px" y="0px"
	 viewBox="-1093 451 1313 1600" enable-background="new -1093 451 1313 1600" xml:space="preserve">
<g>
	<g id="layer1">
		<path fill="#FFFFFF" d="M-771.7,1849.8c-0.5-0.7-8.4-18.8-17.6-40.3c-9.1-21.4-17.5-41.2-18.6-43.8l-2.1-4.8l-4.2,3.4
			c-8.9,7.1-69.5,52.5-71.6,53.6c-1.8,1-2.3,0.9-2.8-0.2c-0.5-1.3,1.2-16.2,8.2-71.6c2.9-23.7,3-25.4,0.7-24.7c-1,0.2-4,0.7-6.8,1
			c-2.7,0.4-23.4,2.9-45.9,5.7c-28.1,3.4-41.2,4.7-41.9,4c-1.2-1.2-3.7,2.2,30.6-43c14.1-18.7,25.7-34.4,25.7-35
			c0-0.5-0.6-1.1-1.2-1.4c-0.7-0.3-11.4-4.8-23.8-10c-12.4-5.2-31.3-13.2-42-17.7s-19.8-8.7-20.2-9.4c-0.4-0.6-0.2-1.6,0.5-2.3
			c0.7-0.6,10.9-5.3,22.7-10.3c53.1-22.5,64-27.3,64-28.2c0-0.5-11.6-16.2-25.7-34.9c-34.3-45.2-31.8-41.8-30.6-43
			c0.9-0.9,14.4,0.5,77.8,8.5c9.9,1.3,18.2,2.2,18.5,2c0.3-0.1-2-20.9-5.2-46.1c-3.1-25.2-5.7-46.6-5.8-47.6c0-1,0.7-2,1.5-2.3
			c1-0.4,14.8,9.3,38.8,27.3c20.4,15.3,37.7,28.2,38.3,28.5c1,0.7,2.9-3.6,31.9-72.2c5.9-14,7.3-16.4,9-15.2
			c0.6,0.4,3.2,5.7,5.7,11.7c2.6,6.1,10.8,25.3,18.2,42.9c7.5,17.5,13.6,32.3,13.6,32.8c0,0.6,0.7,0.8,1.5,0.4
			c0.8-0.3,17.9-12.9,37.9-28.1c20.1-15.1,37.2-27.8,38.1-28.1c0.8-0.4,1.7,0,2.1,0.9c0.3,0.8-2,22.3-5.2,47.7
			c-3.5,28.4-5.3,46.5-4.7,47.1c0.5,0.5,8.7-0.1,21.3-1.6c11.3-1.4,31.6-3.9,45.3-5.6c25.3-3.1,29.2-3.3,29.2-1.2
			c0,0.6-12.6,17.9-28,38.2c-15.4,20.4-28,37.6-28,38.3c0,0.7,6.8,4.1,15,7.6c8.3,3.5,27.6,11.8,42.9,18.3
			c15.4,6.5,28.3,12.5,28.8,13.1c0.4,0.7,0.2,1.8-0.5,2.5c-0.7,0.6-20.6,9.3-44.4,19.3l-43.2,18.2l29,38.5
			c27.7,36.7,31.4,42.5,26.2,40.9c-3.9-1.1-93.4-11.8-94-11.2c-0.4,0.3-0.2,4.6,0.5,9.4c7,54.8,10.3,85.5,9.4,86.4
			c-1.4,1.4,2.6,4.1-41.2-28.9c-19.8-15-36.4-27.3-36.9-27.3s-3.7,6.6-7.1,14.8c-12.1,28.4-20.2,47.8-25.2,59.7
			C-768.8,1849.8-770.1,1851.8-771.7,1849.8z"/>
		<path fill="#FFFFFF" d="M-795,1186.5c-52.1-5.8-97.7-28.4-134.5-66.6c-30-31.1-50.1-70.6-57.6-113.2c-3.3-18.3-3.1-42.3,0.2-35.6
			c0.4,0.8,3.5,7.2,6.9,14.2c6.9,14.2,19.4,33.6,29.3,45.5c7.1,8.4,24.2,25.3,32.2,31.8c6.3,5.2,17.7,13.2,23.4,16.6l4.4,2.6l7.9-6
			c4.3-3.4,7.8-6.2,7.8-6.4c0-0.1-7.7-5.9-17-12.9c-11.4-8.5-17-13.3-16.8-14.4c0.2-1.2,5.6-2.9,20.6-6.8
			c11.2-2.8,20.6-5.4,20.9-5.7c0.3-0.2-4.5-8.9-10.7-19.1c-7.4-12.2-10.9-19-10.2-19.7c1-1,3.2-0.7,29.2,3.1
			c7.4,1.2,13.8,1.7,14.2,1.3c0.5-0.5-0.6-10.2-2.3-21.6c-2.1-14.2-2.7-21.2-2-21.9c0.6-0.6,6.9,2.6,19.8,10.2
			c16.5,9.8,18.8,10.9,19.4,9.2c0.4-1,2.8-10.1,5.4-20.2c4.6-18.1,5.9-21.5,8.1-20.1c0.6,0.4,6.5,8,13.3,17
			c6.7,8.9,12.6,16,13.2,15.6c0.5-0.3,6.3-7.7,12.9-16.4s12.3-16.1,12.8-16.4c2-1.2,3.2,2,7.8,20.7c2.7,11,5.2,20.3,5.5,20.8
			c0.3,0.6,9-4,19.3-10.2c13-7.8,19-10.9,19.7-10.2c0.8,0.8,0.1,7.4-2,21.9c-1.7,11.4-2.8,21-2.5,21.3c0.2,0.3,9.9-0.8,21.4-2.4
			c15.3-2.1,21.3-2.6,22.1-1.8c0.8,0.8-2,6.2-10,19.8c-6.2,10.3-11,18.9-10.9,19c0.2,0.1,8.9,2.3,19.3,5c20.8,5.3,22.8,6,22.3,8
			c-0.2,0.8-7.9,7.1-17.1,14l-16.9,12.6l8.1,6c4.5,3.2,8.4,5.9,8.7,5.9c1.1,0,18.3-11.9,25.6-17.6c11.6-9.2,30.6-28.9,40.4-41.9
			c9.9-13.2,19.4-29,25.3-41.9c4.1-8.8,5.6-10.5,7.3-8.8c1.3,1.3-1.3,29.2-3.8,41.2c-18.5,88.5-88.7,156.6-177.4,172
			c-10.8,1.8-38.7,4.1-47.5,3.9C-781.7,1187.8-788.7,1187.2-795,1186.5z"/>
	</g>
	<g id="layer2">
		<path fill="#003893" d="M-1093,1251c0-652.1,0.2-800,1.3-800c2.3,0,11.7,5.4,33.2,19c5,3.2,14,8.8,20,12.5
			c6.1,3.8,15.4,9.6,20.7,12.9c5.3,3.4,15.4,9.7,22.5,14.2c7,4.4,17.8,11.1,23.8,14.9c6.1,3.7,13.5,8.4,16.5,10.3
			c3,2,10,6.3,15.5,9.7c12.9,8,24,14.9,34,21.4c4.4,2.8,8.7,5.4,9.5,5.8c0.8,0.4,6.1,3.6,11.7,7.2c5.6,3.6,14.7,9.4,20.2,12.9
			c24.8,15.3,30.9,19.1,41.4,26c6.2,4,11.9,7.5,12.7,7.9c0.8,0.4,6.2,3.7,12,7.3c5.8,3.7,15.1,9.6,20.8,13.1s14.7,9.1,20,12.5
			c5.3,3.4,14.7,9.2,20.7,12.9c6.1,3.7,15.4,9.6,20.7,13.1c5.4,3.5,10,6.4,10.3,6.4s1.8,0.8,3.3,1.8c3.7,2.6,19.4,12.5,32.7,20.7
			c10.6,6.6,17.7,11,41.4,26c6.1,3.9,11.9,7.5,12.9,8c0.9,0.6,6.7,4.1,12.7,7.9c6.1,3.8,15.4,9.7,20.7,13c5.3,3.4,14,8.8,19.3,12.1
			c5.4,3.3,14.4,8.9,20,12.5c26.6,16.7,32.7,20.6,34.2,21.5c1,0.6,6.7,4.1,12.8,7.9c6,3.8,15.4,9.7,20.7,13
			c15,9.4,28.2,17.6,40.8,25.5c6.3,4,12.4,7.8,13.4,8.4c1.1,0.7,6.6,4.1,12.2,7.7c5.6,3.6,14.7,9.2,20.1,12.6
			c24.6,15.2,32.5,20.2,42,26.3c5.7,3.6,12.2,7.7,14.6,9.1c2.4,1.4,7.5,4.5,11.3,7c3.8,2.5,7.4,4.7,8,5c0.5,0.3,5.9,3.6,12,7.4
			c19,12,30,18.9,40.6,25.5c12.4,7.7,24.6,15.4,43,27c7.5,4.7,18,11.3,23.4,14.6c5.3,3.3,14.3,8.9,20,12.5
			c5.6,3.6,14.7,9.2,20.1,12.6c5.4,3.4,15,9.4,21.3,13.3c6.3,4,12.4,7.8,13.4,8.4c1.1,0.7,6.6,4.1,12.2,7.7s14.7,9.2,20.1,12.6
			c24.5,15.2,32.5,20.2,42,26.3c5.7,3.6,11.1,7.1,12,7.6c0.9,0.6,6.5,4,12.3,7.6s15.5,9.7,21.5,13.4c6.1,3.7,15.1,9.4,20,12.5
			c5,3.1,14,8.8,20,12.5c6.1,3.7,15.3,9.5,20.5,12.8c5.2,3.3,11.1,7,13,8.3c5.3,3.3,22.7,14.2,33.6,20.9c5.3,3.3,14.3,8.9,19.9,12.5
			c8.7,5.5,25.7,16.2,34.9,22c1.3,0.8,4.4,2.7,6.8,4.1c2.3,1.4,10.2,6.3,17.3,10.9c7.2,4.5,16.4,10.3,20.5,12.7
			c8.9,5.3,12,8,12,10.5c0,1.7-13.8,1.8-411.5,1.8c-226.3,0-411.5,0.2-411.5,0.4s173.3,173.5,385.1,385.2s385.9,386.1,387,387.7
			l2,2.7h-632H-1093V1251z M-335.4,1615.1c-283.5-283.5-387.7-388.3-387.3-389.5c0.6-1.5,33.7-1.6,386.3-1.8l385.7-0.3l-23.4-14.6
			c-22.6-14.2-92.3-57.8-246.9-154.6c-40.4-25.3-106.8-66.8-147.5-92.3s-101.6-63.6-135.2-84.7C-625.1,801.4-688.6,761.6-749,723.8
			c-33.8-21.2-98.4-61.6-143.5-89.8c-135-84.5-151.8-95-152.1-95c-0.7,0-0.4,1462.7,0.3,1463.3c0.3,0.4,247.3,0.7,548.7,0.7H52.5
			L-335.4,1615.1z"/>
	</g>
	<g id="layer3">
		<path fill="#DC143C" d="M-1046.3,2004.3c-0.4-0.3-0.7-330.6-0.7-734c0-635.5,0.2-733.4,1.4-733.9c0.9-0.3,20.1,11.1,45.3,26.9
			c24.1,15,75.2,47,113.6,71c38.3,24.1,101.1,63.3,139.5,87.4c66.3,41.5,112.2,70.2,241.7,151.3c31.4,19.6,93.9,58.8,139,87
			s107.7,67.4,139,87c57.6,36,173.5,108.6,242.5,151.8c20.6,12.9,37.8,23.9,38.2,24.5c0.4,0.6,0.4,1.5,0.2,1.9
			c-0.3,0.4-174.5,0.8-387.2,0.8h-386.7l388.4,388.4c231.3,231.3,388.1,388.8,387.7,389.5C54.8,2005.1-1045.1,2005.6-1046.3,2004.3z
			 M-758.4,1818.2c12.7-30.1,21.9-51.8,23.8-56.4c0.9-2.1,2.1-3.8,2.8-3.8c0.6,0,18.2,12.9,39,28.6c20.9,15.7,38.1,28.4,38.2,28.2
			c0.2-0.1-1.1-12.2-2.9-26.8c-7.4-58.9-8.3-67.5-7.7-68.2c0.4-0.3,21.8,2,47.6,5.2c25.9,3.3,47.1,5.8,47.3,5.6
			c0.3-0.3-15.2-21-47.4-63.5c-5.2-6.8-9.2-12.9-9-13.5c0.3-0.7,19.6-9.3,42.8-19.1c23.3-9.8,43.1-18.2,43.9-18.6
			c1.7-0.9,5.8,1-45.5-20.9c-20.9-8.9-38.6-16.6-39.2-17.2c-0.7-0.6-1.3-1.7-1.3-2.5c0-0.8,12.6-18.1,28.1-38.5
			c15.4-20.3,27.9-37.2,27.7-37.4c-0.2-0.2-14.5,1.4-31.8,3.5c-55.6,6.9-60.7,7.4-62.3,6.8c-1.1-0.4-1.4-1.6-1.1-4.4
			c9-72.1,11.1-89.9,10.8-90.2c-0.2-0.2-17.2,12.3-37.7,27.7c-20.5,15.5-38.1,28.2-39,28.2c-1,0-2.2-1.1-2.7-2.4
			c-1-2.7-27.6-65.5-32.4-76.4c-1.8-4.1-3.5-7.5-4-7.5c-0.8-0.2-2.5,3.5-13.6,29.8c-19.9,47.4-23.6,55.8-24.8,56.2
			c-0.7,0.3-18.4-12.4-39.4-28.1c-21-15.7-38.2-28.5-38.3-28.3c-0.1,0.1,2.4,21.3,5.6,47.2c3.3,25.8,5.5,47.3,5.1,47.7
			c-0.8,0.8-24.5-1.8-74.3-8.2c-8.6-1.1-16.9-2-18.4-2c-2.7,0-2.7,0-0.8,2.4c1,1.4,13.9,18.5,28.7,38c14.7,19.5,26.6,36,26.4,36.6
			c-0.3,1-17.9,8.7-71.6,31.5c-8.9,3.8-15.9,7.2-15.5,7.5c0.5,0.4,8.5,3.9,17.8,7.8c50.8,21.3,67,28.3,68.4,29.6
			c1.3,1.3-1.7,5.7-25.5,37.1c-14.8,19.6-27.7,36.7-28.7,38.1l-1.9,2.4h2.9c1.5,0,9.6-0.9,17.8-2c47.2-6,73.9-9,74.6-8.3
			c0.7,0.7-5.9,58.7-10,88.3c-0.5,3.6-0.7,6.6-0.6,6.8c0.2,0.2,16.6-12,36.4-27c44.7-33.7,39.9-30.4,41.6-28.7
			c0.7,0.8,9.5,20.7,19.6,44.3c17.5,41.3,18.3,42.8,19.6,40.2C-768.5,1842.1-763.6,1830.7-758.4,1818.2z M-761.5,1185
			c18.7-1.2,34.7-3.8,50-8.1c78.2-22,138.6-87.2,155-167.4c1.7-8.3,4.6-33.7,4-34.4c-0.3-0.2-2,3-3.9,7.2c-5.4,12-15.3,28.2-25,41.2
			c-9.8,13.1-28.8,32.7-40.5,42c-8.7,6.8-26,18.5-27.6,18.5c-2.1,0-19-13.1-19-14.8c0-1,6.3-6.5,16-13.8c8.8-6.7,15.9-12.5,15.7-13
			c-0.1-0.5-9.1-3.2-19.9-6c-10.8-2.8-19.9-5.6-20.1-6.2c-0.2-0.6,4.2-8.8,9.7-18.1c12.6-21.1,12.3-20.4,8-19.6
			c-16.6,2.8-38.4,5.4-39.3,4.5c-0.7-0.7,0-7.6,1.9-21c1.5-11,2.6-20.2,2.3-20.5s-8.4,4.2-18.1,10c-9.6,5.8-18,10.5-18.6,10.5
			c-1.7,0-2.7-2.8-7.7-23c-2.5-10.2-4.7-18.6-4.8-18.8c-0.2-0.1-6.1,7.4-13.1,16.8c-7.1,9.4-13.4,16.9-14.1,16.8
			c-0.7-0.2-7-7.9-13.9-17.1c-7-9.3-12.8-16.7-13-16.5c-0.2,0.1-2.4,8.6-5,18.7c-5.3,20.7-6,23.1-7.4,23.1c-0.6,0-9-4.7-18.7-10.5
			c-9.7-5.8-17.9-10.3-18.2-10s0.7,9.2,2.3,19.9c1.5,10.6,2.5,20.1,2.1,21.1c-0.7,2-3.9,1.8-25.8-1.6c-7-1.1-13.7-1.9-14.8-1.7
			c-1.8,0.3-0.7,2.4,8.5,17.8c5.8,9.6,10.5,18.1,10.5,18.8c0,1.8-2.4,2.6-22.4,7.7c-17,4.2-19.5,5-18.5,5.8
			c0.2,0.2,7.7,5.9,16.7,12.6c8.9,6.7,16.2,12.8,16.2,13.5c0,1.8-16.3,14.6-18.6,14.6c-6.2,0-32.8-20.4-50.9-39.1
			c-16.5-17.1-28.6-34.1-39.8-55.8c-3.2-6.4-6.2-11.8-6.5-12.1c-0.9-0.9,0.8,16.6,2.8,28.3c11.5,65.9,54.6,124.5,115,155.9
			c23.8,12.4,49.6,20.2,77,23.3C-777.9,1186.2-779.8,1186.1-761.5,1185z"/>
	</g>
</g>
</svg>
