<!DOCTYPE svg PUBLIC "-//W3C//DTD SVG 20010904//EN" "http://www.w3.org/TR/2001/REC-SVG-20010904/DTD/svg10.dtd">
<svg version="1.0" xmlns="http://www.w3.org/2000/svg" width="1600px" height="1066px" viewBox="0 0 16000 10660" preserveAspectRatio="xMidYMid meet">
<g id="layer1" fill="#f8b516" stroke="none">
 <path d="M0 8952 l1 -427 2394 -1594 c1317 -877 2395 -1598 2395 -1601 0 -3 -1078 -724 -2395 -1601 l-2394 -1594 -1 -427 0 -428 2502 1668 c1377 918 2743 1828 3036 2022 292 195 532 357 532 360 0 3 -240 165 -532 360 -293 194 -1659 1105 -3035 2022 l-2503 1668 0 -428z"/>
 </g>
<g id="layer2" fill="#000000" stroke="none">
 <path d="M0 5330 c0 -2550 3 -3190 12 -3184 117 71 4768 3177 4768 3184 0 7 -4650 3112 -4767 3184 -10 6 -13 -634 -13 -3184z"/>
 </g>
<g id="layer3" fill="#fefefe" stroke="none">
 <path d="M5120 8530 l3195 -2130 3843 0 3842 0 0 355 0 355 -3733 0 -3733 0 -2664 1775 -2665 1775 -640 0 -640 0 3195 -2130z"/>
 <path d="M7830 3936 c-267 -178 -1702 -1134 -3190 -2126 -1488 -991 -2707 -1804 -2709 -1806 -2 -2 283 -4 635 -4 l639 0 2664 1775 2664 1775 3734 0 3733 0 0 355 0 355 -3842 0 -3843 0 -485 -324z"/>
 </g>
<g id="layer4" fill="#002395" stroke="none">
 <path d="M3220 10655 c0 -3 1196 -802 2657 -1775 l2657 -1770 3733 0 3733 0 0 1775 0 1775 -6390 0 c-3514 0 -6390 -2 -6390 -5z"/>
 </g>
<g id="layer5" fill="#de3831" stroke="none">
 <path d="M5871 1775 l-2664 -1775 6396 0 6397 0 0 1775 0 1775 -3732 0 -3733 0 -2664 -1775z"/>
 </g>
<g id="layer6" fill="#007a4d" stroke="none">
 <path d="M0 10020 l0 -640 3035 -2023 c1669 -1112 3035 -2024 3035 -2027 0 -3 -1366 -915 -3035 -2027 l-3035 -2023 0 -640 0 -640 962 0 962 0 111 74 c60 40 1496 998 3190 2127 l3080 2054 3845 5 3845 5 0 1065 0 1065 -3845 5 -3845 5 -3190 2127 -3190 2128 -962 0 -963 0 0 -640z"/>
 </g>

</svg>