<!DOCTYPE svg PUBLIC "-//W3C//DTD SVG 20010904//EN" "http://www.w3.org/TR/2001/REC-SVG-20010904/DTD/svg10.dtd">
<svg version="1.0" xmlns="http://www.w3.org/2000/svg" width="800px" height="480px" viewBox="0 0 8000 4800" preserveAspectRatio="xMidYMid meet">
<g id="layer1" fill="#01257d" stroke="none">
 <path d="M1270 4599 c184 -111 694 -416 1133 -680 l797 -478 0 680 0 679 -1132 0 -1133 0 335 -201z"/>
 <path d="M4800 4119 c0 -374 3 -678 8 -676 4 3 511 307 1127 677 616 370 1122 674 1124 676 2 2 -505 4 -1127 4 l-1132 0 0 -681z"/>
 <path d="M0 3721 l0 -521 868 0 867 0 -835 501 c-459 275 -850 510 -867 521 l-33 20 0 -521z"/>
 <path d="M7136 3720 l-859 -515 858 -3 c472 -1 860 -1 862 1 2 2 2 235 1 518 l-3 515 -859 -516z"/>
 <path d="M0 1079 l0 -521 33 20 c17 11 408 246 867 521 l835 501 -867 0 -868 0 0 -521z"/>
 <path d="M6286 1591 c5 -4 393 -238 862 -519 l852 -511 0 519 0 520 -862 0 c-481 0 -858 -4 -852 -9z"/>
 <path d="M2069 680 l-1126 -675 1125 -3 c619 -1 1127 -1 1129 1 2 2 2 307 1 678 l-3 675 -1126 -676z"/>
 <path d="M4800 681 l0 -681 1132 0 c622 0 1129 2 1127 4 -2 2 -508 306 -1124 676 -616 370 -1123 674 -1127 677 -5 2 -8 -302 -8 -676z"/>
 </g>
<g id="layer2" fill="#fffefe" stroke="none">
 <path d="M0 4522 l0 -281 868 -520 867 -521 -867 0 -868 0 0 -160 0 -160 1760 0 1760 0 0 960 0 960 -160 0 -160 0 -2 -678 -3 -678 -1131 678 -1130 679 -152 -3 -152 -3 1285 -770 c1204 -722 1284 -772 1285 -797 l0 -28 -266 0 -266 0 -1311 787 c-722 432 -1322 793 -1334 801 l-23 14 0 -280z"/>
 <path d="M4480 3840 l0 -960 1760 0 1760 0 0 160 0 160 -862 2 -861 3 859 515 859 516 3 92 c1 51 0 92 -3 92 -4 0 -464 -274 -1023 -610 l-1017 -610 -310 0 -310 0 1329 798 1329 797 -462 3 -462 2 -1132 -679 -1132 -679 -3 679 -2 679 -160 0 -160 0 0 -960z"/>
 <path d="M0 1760 l0 -160 868 0 867 0 -867 -521 -868 -520 0 -90 c0 -49 3 -89 6 -89 3 0 463 275 1022 610 l1017 610 310 0 310 0 -1329 -798 -1329 -797 463 -3 464 -2 1131 678 1130 678 3 -678 2 -678 160 0 160 0 0 960 0 960 -1760 0 -1760 0 0 -160z"/>
 <path d="M4480 960 l0 -960 160 0 160 0 2 679 3 679 1132 -679 1132 -680 151 3 150 3 -1285 770 c-1204 722 -1284 772 -1285 798 l0 27 268 0 267 -1 1330 -798 1330 -799 3 276 c2 213 -1 279 -10 288 -7 6 -395 240 -862 520 l-849 509 861 3 862 2 0 160 0 160 -1760 0 -1760 0 0 -960z"/>
 </g>
<g id="layer3" fill="#cf142b" stroke="none">
 <path d="M25 4787 c11 -8 610 -368 1332 -800 l1311 -787 266 0 266 0 0 28 c-1 25 -81 75 -1290 800 l-1288 772 -308 0 c-261 0 -305 -2 -289 -13z"/>
 <path d="M3520 3840 l0 -960 -1760 0 -1760 0 0 -480 0 -480 1760 0 1760 0 0 -960 0 -960 480 0 480 0 0 960 0 960 1760 0 1760 0 0 480 0 480 -1760 0 -1760 0 0 960 0 960 -480 0 -480 0 0 -960z"/>
 <path d="M6665 3999 l-1330 -799 310 0 310 0 1022 613 1022 612 1 188 c0 103 -1 187 -2 186 -2 0 -601 -360 -1333 -800z"/>
 <path d="M1023 987 l-1022 -612 -1 -187 0 -187 1315 789 c723 434 1322 793 1332 799 13 7 -72 10 -292 11 l-310 0 -1022 -613z"/>
 <path d="M4800 1573 c1 -26 81 -76 1290 -801 l1289 -772 305 2 306 3 -1329 798 -1329 797 -266 0 -266 0 0 -27z"/>
 </g>

</svg>